  0
SECTION
  2
HEADER
  9
$ACADVER
  1
AC1018
  9
$ACADMAINTVER
 70
     0
  9
$DWGCODEPAGE
  3
ANSI_1252
  9
$INSBASE
 10
0.0
 20
0.0
 30
0.0
  9
$EXTMIN
 10
0.0
 20
0.0
 30
0.0
  9
$EXTMAX
 10
210.0
 20
297.0
 30
0.0
  9
$LIMMIN
 10
0.0
 20
0.0
  9
$LIMMAX
 10
420.0
 20
297.0
  9
$ORTHOMODE
 70
     0
  9
$REGENMODE
 70
     1
  9
$FILLMODE
 70
     1
  9
$QTEXTMODE
 70
     0
  9
$MIRRTEXT
 70
     0
  9
$LTSCALE
 40
1.0
  9
$ATTMODE
 70
     1
  9
$TEXTSIZE
 40
2.5
  9
$TRACEWID
 40
1.0
  9
$TEXTSTYLE
  7
Standard
  9
$CLAYER
  8
Principal
  9
$CELTYPE
  6
ByLayer
  9
$CECOLOR
 62
   256
  9
$CELTSCALE
 40
1.0
  9
$DISPSILH
 70
     0
  9
$DIMSCALE
 40
1.0
  9
$DIMASZ
 40
2.5
  9
$DIMEXO
 40
0.625
  9
$DIMDLI
 40
3.75
  9
$DIMRND
 40
0.0
  9
$DIMDLE
 40
0.0
  9
$DIMEXE
 40
1.25
  9
$DIMTP
 40
0.0
  9
$DIMTM
 40
0.0
  9
$DIMTXT
 40
2.5
  9
$DIMCEN
 40
2.5
  9
$DIMTSZ
 40
0.0
  9
$DIMTOL
 70
     0
  9
$DIMLIM
 70
     0
  9
$DIMTIH
 70
     1
  9
$DIMTOH
 70
     1
  9
$DIMSE1
 70
     0
  9
$DIMSE2
 70
     0
  9
$DIMTAD
 70
     1
  9
$DIMZIN
 70
     8
  9
$DIMBLK
  1

  9
$DIMASO
 70
     1
  9
$DIMSHO
 70
     1
  9
$DIMPOST
  1

  9
$DIMAPOST
  1

  9
$DIMALT
 70
     0
  9
$DIMALTD
 70
     3
  9
$DIMALTF
 40
0.03937007874016
  9
$DIMLFAC
 40
1.0
  9
$DIMTOFL
 70
     1
  9
$DIMTVP
 40
0.0
  9
$DIMTIX
 70
     0
  9
$DIMSOXD
 70
     0
  9
$DIMSAH
 70
     0
  9
$DIMBLK1
  1

  9
$DIMBLK2
  1

  9
$DIMSTYLE
  2
ISO-25
  9
$DIMCLRD
 70
     0
  9
$DIMCLRE
 70
     0
  9
$DIMCLRT
 70
   252
  9
$DIMTFAC
 40
1.0
  9
$DIMGAP
 40
0.625
  9
$DIMJUST
 70
     0
  9
$DIMSD1
 70
     0
  9
$DIMSD2
 70
     0
  9
$DIMTOLJ
 70
     0
  9
$DIMTZIN
 70
     8
  9
$DIMALTZ
 70
     0
  9
$DIMALTTZ
 70
     0
  9
$DIMUPT
 70
     0
  9
$DIMDEC
 70
     2
  9
$DIMTDEC
 70
     2
  9
$DIMALTU
 70
     2
  9
$DIMALTTD
 70
     3
  9
$DIMTXSTY
  7
Standard
  9
$DIMAUNIT
 70
     0
  9
$DIMADEC
 70
     0
  9
$DIMALTRND
 40
0.0
  9
$DIMAZIN
 70
     0
  9
$DIMDSEP
 70
    44
  9
$DIMATFIT
 70
     3
  9
$DIMFRAC
 70
     0
  9
$DIMLDRBLK
  1

  9
$DIMLUNIT
 70
     2
  9
$DIMLWD
 70
    -2
  9
$DIMLWE
 70
    -2
  9
$DIMTMOVE
 70
     0
  9
$LUNITS
 70
     2
  9
$LUPREC
 70
     4
  9
$SKETCHINC
 40
1.0
  9
$FILLETRAD
 40
0.0
  9
$AUNITS
 70
     0
  9
$AUPREC
 70
     0
  9
$MENU
  1
.
  9
$ELEVATION
 40
0.0
  9
$PELEVATION
 40
0.0
  9
$THICKNESS
 40
0.0
  9
$LIMCHECK
 70
     0
  9
$CHAMFERA
 40
0.0
  9
$CHAMFERB
 40
0.0
  9
$CHAMFERC
 40
0.0
  9
$CHAMFERD
 40
0.0
  9
$SKPOLY
 70
     0
  9
$TDCREATE
 40
2454228.501617651
  9
$TDUCREATE
 40
2454228.418284317
  9
$TDUPDATE
 40
2454229.435704746
  9
$TDUUPDATE
 40
2454229.352371412
  9
$TDINDWG
 40
0.1225806481
  9
$TDUSRTIMER
 40
0.1225788426
  9
$USRTIMER
 70
     1
  9
$ANGBASE
 50
0.0
  9
$ANGDIR
 70
     0
  9
$PDMODE
 70
     0
  9
$PDSIZE
 40
0.0
  9
$PLINEWID
 40
0.0
  9
$SPLFRAME
 70
     0
  9
$SPLINETYPE
 70
     6
  9
$SPLINESEGS
 70
     8
  9
$HANDSEED
  5
4CB
  9
$SURFTAB1
 70
     6
  9
$SURFTAB2
 70
     6
  9
$SURFTYPE
 70
     6
  9
$SURFU
 70
     6
  9
$SURFV
 70
     6
  9
$UCSBASE
  2

  9
$UCSNAME
  2

  9
$UCSORG
 10
0.0
 20
0.0
 30
0.0
  9
$UCSXDIR
 10
1.0
 20
0.0
 30
0.0
  9
$UCSYDIR
 10
0.0
 20
1.0
 30
0.0
  9
$UCSORTHOREF
  2

  9
$UCSORTHOVIEW
 70
     0
  9
$UCSORGTOP
 10
0.0
 20
0.0
 30
0.0
  9
$UCSORGBOTTOM
 10
0.0
 20
0.0
 30
0.0
  9
$UCSORGLEFT
 10
0.0
 20
0.0
 30
0.0
  9
$UCSORGRIGHT
 10
0.0
 20
0.0
 30
0.0
  9
$UCSORGFRONT
 10
0.0
 20
0.0
 30
0.0
  9
$UCSORGBACK
 10
0.0
 20
0.0
 30
0.0
  9
$PUCSBASE
  2

  9
$PUCSNAME
  2

  9
$PUCSORG
 10
0.0
 20
0.0
 30
0.0
  9
$PUCSXDIR
 10
1.0
 20
0.0
 30
0.0
  9
$PUCSYDIR
 10
0.0
 20
1.0
 30
0.0
  9
$PUCSORTHOREF
  2

  9
$PUCSORTHOVIEW
 70
     0
  9
$PUCSORGTOP
 10
0.0
 20
0.0
 30
0.0
  9
$PUCSORGBOTTOM
 10
0.0
 20
0.0
 30
0.0
  9
$PUCSORGLEFT
 10
0.0
 20
0.0
 30
0.0
  9
$PUCSORGRIGHT
 10
0.0
 20
0.0
 30
0.0
  9
$PUCSORGFRONT
 10
0.0
 20
0.0
 30
0.0
  9
$PUCSORGBACK
 10
0.0
 20
0.0
 30
0.0
  9
$USERI1
 70
     0
  9
$USERI2
 70
     0
  9
$USERI3
 70
     0
  9
$USERI4
 70
     0
  9
$USERI5
 70
     0
  9
$USERR1
 40
0.0
  9
$USERR2
 40
0.0
  9
$USERR3
 40
0.0
  9
$USERR4
 40
0.0
  9
$USERR5
 40
0.0
  9
$WORLDVIEW
 70
     1
  9
$SHADEDGE
 70
     3
  9
$SHADEDIF
 70
    70
  9
$TILEMODE
 70
     1
  9
$MAXACTVP
 70
    64
  9
$PINSBASE
 10
0.0
 20
0.0
 30
0.0
  9
$PLIMCHECK
 70
     0
  9
$PEXTMIN
 10
20.35386536121368
 20
29.07030212879181
 30
0.0
  9
$PEXTMAX
 10
183.1847882509231
 20
261.6327191591263
 30
0.0
  9
$PLIMMIN
 10
-3.177031983809058
 20
-3.174537166595477
  9
$PLIMMAX
 10
206.7116246324019
 20
293.8784718666076
  9
$UNITMODE
 70
     0
  9
$VISRETAIN
 70
     1
  9
$PLINEGEN
 70
     0
  9
$PSLTSCALE
 70
     1
  9
$TREEDEPTH
 70
  3020
  9
$CMLSTYLE
  2
Standard
  9
$CMLJUST
 70
     0
  9
$CMLSCALE
 40
20.0
  9
$PROXYGRAPHICS
 70
     1
  9
$MEASUREMENT
 70
     1
  9
$CELWEIGHT
370
    -1
  9
$ENDCAPS
280
     0
  9
$JOINSTYLE
280
     0
  9
$LWDISPLAY
290
     0
  9
$INSUNITS
 70
     4
  9
$HYPERLINKBASE
  1

  9
$STYLESHEET
  1

  9
$XEDIT
290
     1
  9
$CEPSNTYPE
380
     0
  9
$PSTYLEMODE
290
     1
  9
$FINGERPRINTGUID
  2
{FDEAD578-A652-11D2-9A35-0060089B3A3F}
  9
$VERSIONGUID
  2
{76735CAE-A685-4269-ADB9-A76556378770}
  9
$EXTNAMES
290
     1
  9
$PSVPSCALE
 40
0.0
  9
$OLESTARTUP
290
     0
  9
$SORTENTS
280
   127
  9
$INDEXCTL
280
     0
  9
$HIDETEXT
280
     1
  9
$XCLIPFRAME
290
     0
  9
$HALOGAP
280
     0
  9
$OBSCOLOR
 70
   257
  9
$OBSLTYPE
280
     0
  9
$INTERSECTIONDISPLAY
280
     0
  9
$INTERSECTIONCOLOR
 70
   257
  9
$DIMASSOC
280
     2
  9
$PROJECTNAME
  1

  0
ENDSEC
  0
SECTION
  2
CLASSES
  0
CLASS
  1
ACDBDICTIONARYWDFLT
  2
AcDbDictionaryWithDefault
  3
ObjectDBX Classes
 90
        0
 91
        1
280
     0
281
     0
  0
CLASS
  1
DICTIONARYVAR
  2
AcDbDictionaryVar
  3
ObjectDBX Classes
 90
        0
 91
        2
280
     0
281
     0
  0
CLASS
  1
DIMASSOC
  2
AcDbDimAssoc
  3
"AcDbDimAssoc|Product Desc:     AcDim ARX App For Dimension|Company:          Autodesk, Inc.|WEB Address:      www.autodesk.com"
 90
        0
 91
        5
280
     0
281
     0
  0
ENDSEC
  0
SECTION
  2
TABLES
  0
TABLE
  2
VPORT
  5
8
330
0
100
AcDbSymbolTable
 70
     3
  0
VPORT
  5
4CA
330
8
100
AcDbSymbolTableRecord
100
AcDbViewportTableRecord
  2
*Active
 70
     0
 10
0.0
 20
0.0
 11
1.0
 21
1.0
 12
110.9788148339911
 22
172.8412621936393
 13
0.0
 23
0.0
 14
10.0
 24
10.0
 15
10.0
 25
10.0
 16
0.0
 26
0.0
 36
1.0
 17
0.0
 27
0.0
 37
0.0
 40
75.0993948774352
 41
1.528132992327365
 42
50.0
 43
0.0
 44
0.0
 50
0.0
 51
0.0
 71
     0
 72
  1000
 73
     1
 74
     3
 75
     0
 76
     0
 77
     0
 78
     0
281
     0
 65
     1
110
0.0
120
0.0
130
0.0
111
1.0
121
0.0
131
0.0
112
0.0
122
1.0
132
0.0
 79
     0
146
0.0
  0
ENDTAB
  0
TABLE
  2
LTYPE
  5
5
330
0
100
AcDbSymbolTable
 70
     3
  0
LTYPE
  5
14
330
5
100
AcDbSymbolTableRecord
100
AcDbLinetypeTableRecord
  2
ByBlock
 70
     0
  3

 72
    65
 73
     0
 40
0.0
  0
LTYPE
  5
15
330
5
100
AcDbSymbolTableRecord
100
AcDbLinetypeTableRecord
  2
ByLayer
 70
     0
  3

 72
    65
 73
     0
 40
0.0
  0
LTYPE
  5
16
330
5
100
AcDbSymbolTableRecord
100
AcDbLinetypeTableRecord
  2
Continuous
 70
     0
  3
Solid line
 72
    65
 73
     0
 40
0.0
  0
LTYPE
  5
84
330
5
100
AcDbSymbolTableRecord
100
AcDbLinetypeTableRecord
  2
ACAD_ISO03W100
 70
     0
  3
ISO dash space __    __    __    __    __    __
 72
    65
 73
     2
 40
30.0
 49
12.0
 74
     0
 49
-18.0
 74
     0
  0
LTYPE
  5
89
330
5
100
AcDbSymbolTableRecord
100
AcDbLinetypeTableRecord
  2
ACAD_ISO02W100
 70
     0
  3
ISO dash __ __ __ __ __ __ __ __ __ __ __ __ __
 72
    65
 73
     2
 40
15.0
 49
12.0
 74
     0
 49
-3.0
 74
     0
  0
ENDTAB
  0
TABLE
  2
LAYER
  5
2
330
0
100
AcDbSymbolTable
 70
     7
  0
LAYER
  5
10
330
2
100
AcDbSymbolTableRecord
100
AcDbLayerTableRecord
  2
0
 70
     4
 62
    -7
  6
Continuous
370
    -3
390
F
  0
LAYER
  5
85
330
2
100
AcDbSymbolTableRecord
100
AcDbLayerTableRecord
  2
Apoyo
 70
     4
 62
    -5
  6
ACAD_ISO02W100
370
    -3
390
F
  0
LAYER
  5
86
330
2
100
AcDbSymbolTableRecord
100
AcDbLayerTableRecord
  2
Principal
 70
     0
 62
     7
  6
Continuous
370
    -3
390
F
  0
LAYER
  5
87
330
2
100
AcDbSymbolTableRecord
100
AcDbLayerTableRecord
  2
Cotas
 70
     4
 62
     1
  6
Continuous
370
    -3
390
F
  0
LAYER
  5
BB
330
2
100
AcDbSymbolTableRecord
100
AcDbLayerTableRecord
  2
Defpoints
 70
     4
 62
    -7
  6
Continuous
290
     0
370
    -3
390
F
  0
LAYER
  5
3FB
330
2
100
AcDbSymbolTableRecord
100
AcDbLayerTableRecord
  2
Marco
 70
     4
 62
    -7
  6
Continuous
370
    -3
390
F
  0
LAYER
  5
3FC
330
2
100
AcDbSymbolTableRecord
100
AcDbLayerTableRecord
  2
Esqueleto
 70
     4
 62
    -4
  6
Continuous
370
    -3
390
F
  0
ENDTAB
  0
TABLE
  2
STYLE
  5
3
330
0
100
AcDbSymbolTable
 70
     2
  0
STYLE
  5
11
330
3
100
AcDbSymbolTableRecord
100
AcDbTextStyleTableRecord
  2
Standard
 70
     0
 40
0.0
 41
1.0
 50
0.0
 71
     0
 42
2.5
  3
txt
  4

  0
STYLE
  5
83
330
3
100
AcDbSymbolTableRecord
100
AcDbTextStyleTableRecord
  2

 70
     1
 40
0.0
 41
1.0
 50
0.0
 71
     0
 42
2.5
  3
ltypeshp.shx
  4

  0
ENDTAB
  0
TABLE
  2
VIEW
  5
6
330
0
100
AcDbSymbolTable
 70
     0
  0
ENDTAB
  0
TABLE
  2
UCS
  5
7
330
0
100
AcDbSymbolTable
 70
     0
  0
ENDTAB
  0
TABLE
  2
APPID
  5
9
330
0
100
AcDbSymbolTable
 70
     1
  0
APPID
  5
12
330
9
100
AcDbSymbolTableRecord
100
AcDbRegAppTableRecord
  2
ACAD
 70
     0
  0
ENDTAB
  0
TABLE
  2
DIMSTYLE
  5
A
330
0
100
AcDbSymbolTable
 70
     1
100
AcDbDimStyleTable
 71
     1
340
27
  0
DIMSTYLE
105
27
102
{ACAD_REACTORS
330
101
330
E5
330
299
330
2AD
330
474
102
}
330
A
100
AcDbSymbolTableRecord
100
AcDbDimStyleTableRecord
  2
ISO-25
 70
     0
 41
2.5
 42
0.625
 43
3.75
 44
1.25
 77
     1
 78
     8
140
2.5
141
2.5
143
0.03937007874016
147
0.625
171
     3
172
     1
178
   252
271
     2
272
     2
274
     3
278
    44
283
     0
284
     8
340
11
  0
ENDTAB
  0
TABLE
  2
BLOCK_RECORD
  5
1
330
0
100
AcDbSymbolTable
 70
     5
  0
BLOCK_RECORD
  5
1F
330
1
100
AcDbSymbolTableRecord
100
AcDbBlockTableRecord
  2
*Model_Space
340
22
  0
BLOCK_RECORD
  5
4A5
330
1
100
AcDbSymbolTableRecord
100
AcDbBlockTableRecord
  2
*Paper_Space
340
4A6
  0
BLOCK_RECORD
  5
E6
330
1
100
AcDbSymbolTableRecord
100
AcDbBlockTableRecord
  2
*D0
340
0
  0
BLOCK_RECORD
  5
102
330
1
100
AcDbSymbolTableRecord
100
AcDbBlockTableRecord
  2
*D1
340
0
  0
BLOCK_RECORD
  5
29A
330
1
100
AcDbSymbolTableRecord
100
AcDbBlockTableRecord
  2
*D2
340
0
  0
BLOCK_RECORD
  5
2AE
330
1
100
AcDbSymbolTableRecord
100
AcDbBlockTableRecord
  2
*D3
340
0
  0
BLOCK_RECORD
  5
475
330
1
100
AcDbSymbolTableRecord
100
AcDbBlockTableRecord
  2
*D4
340
0
  0
ENDTAB
  0
ENDSEC
  0
SECTION
  2
BLOCKS
  0
BLOCK
  5
20
330
1F
100
AcDbEntity
  8
0
100
AcDbBlockBegin
  2
*Model_Space
 70
     0
 10
0.0
 20
0.0
 30
0.0
  3
*Model_Space
  1

  0
ENDBLK
  5
21
330
1F
100
AcDbEntity
  8
0
100
AcDbBlockEnd
  0
BLOCK
  5
4A7
330
4A5
100
AcDbEntity
 67
     1
  8
0
100
AcDbBlockBegin
  2
*Paper_Space
 70
     0
 10
0.0
 20
0.0
 30
0.0
  3
*Paper_Space
  1

  0
ENDBLK
  5
4A8
330
4A5
100
AcDbEntity
 67
     1
  8
0
100
AcDbBlockEnd
  0
BLOCK
  5
F2
330
E6
100
AcDbEntity
  8
0
100
AcDbBlockBegin
  2
*D0
 70
     1
 10
0.0
 20
0.0
 30
0.0
  3
*D0
  1

  0
LINE
  5
468
330
E6
100
AcDbEntity
  8
Cotas
 62
     0
370
    -2
100
AcDbLine
 10
138.3649999999999
 20
171.0
 30
0.0
 11
142.9899999999999
 21
171.0
 31
0.0
  0
LINE
  5
469
330
E6
100
AcDbEntity
  8
Cotas
 62
     0
370
    -2
100
AcDbLine
 10
122.7857799852678
 20
193.1456205488808
 30
0.0
 11
126.4950000000002
 21
199.5701780708484
 31
0.0
  0
ARC
  5
46A
330
E6
100
AcDbEntity
  8
Cotas
 62
     0
370
    -2
100
AcDbCircle
 10
109.9999999999999
 20
171.0
 30
0.0
 40
31.74000000000002
100
AcDbArc
 50
4.514067472206673
 51
26.16299613103774
  0
ARC
  5
46B
330
E6
100
AcDbEntity
  8
Cotas
 62
     0
370
    -2
100
AcDbCircle
 10
109.9999999999999
 20
171.0
 30
0.0
 40
31.74000000000002
100
AcDbArc
 50
33.99176376383219
 51
55.48593252779278
  0
SOLID
  5
46C
330
E6
100
AcDbEntity
  8
Cotas
 62
     0
100
AcDbTrace
 10
142.0578872137805
 20
173.5144698905387
 30
0.0
 11
141.2252003728609
 21
173.4816511549789
 31
0.0
 12
141.74
 22
171.0
 32
0.0
 13
141.74
 23
171.0
 33
0.0
  0
SOLID
  5
46D
330
E6
100
AcDbEntity
  8
Cotas
 62
     0
100
AcDbTrace
 10
127.7617731299734
 20
196.8009911836672
 30
0.0
 11
128.2065384091481
 21
197.5057097735207
 31
0.0
 12
125.8700000000002
 22
198.4876463161179
 32
0.0
 13
125.8700000000002
 23
198.4876463161179
 33
0.0
  0
MTEXT
  5
46E
330
E6
100
AcDbEntity
  8
Cotas
 62
   252
100
AcDbMText
 10
137.4876463161181
 20
186.8699999999998
 30
0.0
 40
2.5
 41
0.0
 71
     5
 72
     1
  1
60°
 73
     1
 44
1.0
  0
POINT
  5
46F
330
E6
100
AcDbEntity
  8
Defpoints
 62
     0
100
AcDbPoint
 10
139.8258437837447
 20
181.8557193491566
 30
0.0
  0
POINT
  5
470
330
E6
100
AcDbEntity
  8
Defpoints
 62
     0
100
AcDbPoint
 10
109.9999999999999
 20
171.0
 30
0.0
  0
POINT
  5
471
330
E6
100
AcDbEntity
  8
Defpoints
 62
     0
100
AcDbPoint
 10
109.9999999999999
 20
171.0
 30
0.0
  0
POINT
  5
472
330
E6
100
AcDbEntity
  8
Defpoints
 62
     0
100
AcDbPoint
 10
137.7399999999999
 20
171.0
 30
0.0
  0
POINT
  5
473
330
E6
100
AcDbEntity
  8
Defpoints
 62
     0
100
AcDbPoint
 10
122.4732799852678
 20
192.6043546715155
 30
0.0
  0
ENDBLK
  5
F3
330
E6
100
AcDbEntity
  8
0
100
AcDbBlockEnd
  0
BLOCK
  5
108
330
102
100
AcDbEntity
  8
0
100
AcDbBlockBegin
  2
*D1
 70
     1
 10
0.0
 20
0.0
 30
0.0
  3
*D1
  1

  0
LINE
  5
382
330
102
100
AcDbEntity
  8
Cotas
 62
     0
370
    -2
100
AcDbLine
 10
100.0349999999999
 20
171.0000000000003
 30
0.0
 11
111.9099999999999
 21
171.0000000000003
 31
0.0
  0
LINE
  5
383
330
102
100
AcDbEntity
  8
Cotas
 62
     0
370
    -2
100
AcDbLine
 10
111.9099999999999
 20
171.0000000000003
 30
0.0
 11
120.6599999999999
 21
171.0000000000001
 31
0.0
  0
MTEXT
  5
384
330
102
100
AcDbEntity
  8
Cotas
 62
   252
100
AcDbMText
 10
105.6599999999999
 20
173.0833333333336
 30
0.0
 40
2.5
 41
0.0
 71
     5
 72
     1
  1
R13,16
 73
     1
 44
1.0
  0
SOLID
  5
385
330
102
100
AcDbEntity
  8
Cotas
 62
     0
100
AcDbTrace
 10
120.66
 20
171.4166666666667
 30
0.0
 11
120.6599999999999
 21
170.5833333333334
 31
0.0
 12
123.16
 22
171.0
 32
0.0
 13
123.16
 23
171.0
 33
0.0
  0
POINT
  5
386
330
102
100
AcDbEntity
  8
Defpoints
 62
     0
100
AcDbPoint
 10
123.16
 20
171.0
 30
0.0
  0
POINT
  5
387
330
102
100
AcDbEntity
  8
Defpoints
 62
     0
100
AcDbPoint
 10
110.0
 20
171.0000000000004
 30
0.0
  0
ENDBLK
  5
109
330
102
100
AcDbEntity
  8
0
100
AcDbBlockEnd
  0
BLOCK
  5
2A2
330
29A
100
AcDbEntity
  8
0
100
AcDbBlockBegin
  2
*D2
 70
     1
 10
0.0
 20
0.0
 30
0.0
  3
*D2
  1

  0
LINE
  5
388
330
29A
100
AcDbEntity
  8
Cotas
 62
     0
370
    -2
100
AcDbLine
 10
133.6316666666687
 20
152.0802316786572
 30
0.0
 11
120.9233333333354
 21
152.0802316786572
 31
0.0
  0
LINE
  5
389
330
29A
100
AcDbEntity
  8
Cotas
 62
     0
370
    -2
100
AcDbLine
 10
120.9233333333354
 20
152.0802316786572
 30
0.0
 11
118.2150000000015
 21
156.7712026158226
 31
0.0
  0
MTEXT
  5
38A
330
29A
100
AcDbEntity
  8
Cotas
 62
   252
100
AcDbMText
 10
127.5900000000021
 20
154.1635650119905
 30
0.0
 40
2.5
 41
0.0
 71
     5
 72
     1
  1
R13,93
 73
     1
 44
1.0
  0
LINE
  5
38B
330
29A
100
AcDbEntity
  8
Cotas
 62
     0
370
    -2
100
AcDbLine
 10
109.9999999999997
 20
171.0000000000001
 30
0.0
 11
116.9650000000012
 21
158.9362661252835
 31
0.0
  0
SOLID
  5
38C
330
29A
100
AcDbEntity
  8
Cotas
 62
     0
100
AcDbTrace
 10
118.575843918245
 20
156.979535949156
 30
0.0
 11
117.854156081758
 21
156.5628692824892
 31
0.0
 12
116.9650000000012
 22
158.9362661252835
 32
0.0
 13
116.9650000000012
 23
158.9362661252835
 33
0.0
  0
POINT
  5
38D
330
29A
100
AcDbEntity
  8
Defpoints
 62
     0
100
AcDbPoint
 10
116.9650000000012
 20
158.9362661252835
 30
0.0
  0
POINT
  5
38E
330
29A
100
AcDbEntity
  8
Defpoints
 62
     0
100
AcDbPoint
 10
109.9999999999997
 20
171.0000000000001
 30
0.0
  0
ENDBLK
  5
2A3
330
29A
100
AcDbEntity
  8
0
100
AcDbBlockEnd
  0
BLOCK
  5
2B8
330
2AE
100
AcDbEntity
  8
0
100
AcDbBlockBegin
  2
*D3
 70
     1
 10
0.0
 20
0.0
 30
0.0
  3
*D3
  1

  0
LINE
  5
379
330
2AE
100
AcDbEntity
  8
Cotas
 62
     0
370
    -2
100
AcDbLine
 10
96.09012409293308
 20
169.6265
 30
0.0
 11
96.09012409293308
 21
164.0015
 31
0.0
  0
LINE
  5
37A
330
2AE
100
AcDbEntity
  8
Cotas
 62
     0
370
    -2
100
AcDbLine
 10
82.25999999999997
 20
169.6265
 30
0.0
 11
82.25999999999997
 21
164.0015
 31
0.0
  0
LINE
  5
37B
330
2AE
100
AcDbEntity
  8
Cotas
 62
     0
370
    -2
100
AcDbLine
 10
93.59012409293308
 20
165.2515
 30
0.0
 11
84.75999999999997
 21
165.2515
 31
0.0
  0
SOLID
  5
37C
330
2AE
100
AcDbEntity
  8
Cotas
 62
     0
100
AcDbTrace
 10
93.59012409293308
 20
165.6681666666666
 30
0.0
 11
93.59012409293308
 21
164.8348333333333
 31
0.0
 12
96.09012409293308
 22
165.2515
 32
0.0
 13
96.09012409293308
 23
165.2515
 33
0.0
  0
SOLID
  5
37D
330
2AE
100
AcDbEntity
  8
Cotas
 62
     0
100
AcDbTrace
 10
84.75999999999997
 20
165.6681666666666
 30
0.0
 11
84.75999999999997
 21
164.8348333333333
 31
0.0
 12
82.25999999999997
 22
165.2515
 32
0.0
 13
82.25999999999997
 23
165.2515
 33
0.0
  0
MTEXT
  5
37E
330
2AE
100
AcDbEntity
  8
Cotas
 62
   252
100
AcDbMText
 10
89.17506204646654
 20
167.3348333333333
 30
0.0
 40
2.5
 41
0.0
 71
     5
 72
     1
  1
13,83
 73
     1
 44
1.0
  0
POINT
  5
37F
330
2AE
100
AcDbEntity
  8
Defpoints
 62
     0
100
AcDbPoint
 10
96.09012409293308
 20
170.2515
 30
0.0
  0
POINT
  5
380
330
2AE
100
AcDbEntity
  8
Defpoints
 62
     0
100
AcDbPoint
 10
82.25999999999997
 20
170.2515
 30
0.0
  0
POINT
  5
381
330
2AE
100
AcDbEntity
  8
Defpoints
 62
     0
100
AcDbPoint
 10
82.25999999999997
 20
165.2515
 30
0.0
  0
ENDBLK
  5
2B9
330
2AE
100
AcDbEntity
  8
0
100
AcDbBlockEnd
  0
BLOCK
  5
481
330
475
100
AcDbEntity
  8
0
100
AcDbBlockBegin
  2
*D4
 70
     1
 10
0.0
 20
0.0
 30
0.0
  3
*D4
  1

  0
LINE
  5
484
330
475
100
AcDbEntity
  8
Cotas
 62
     0
370
    -2
100
AcDbLine
 10
96.77822001473243
 20
196.0227947009802
 30
0.0
 11
96.77822001473243
 21
200.6477947009802
 31
0.0
  0
LINE
  5
485
330
475
100
AcDbEntity
  8
Cotas
 62
     0
370
    -2
100
AcDbLine
 10
98.27522001473255
 20
196.0227947009802
 30
0.0
 11
98.27522001473255
 21
200.6477947009802
 31
0.0
  0
LINE
  5
486
330
475
100
AcDbEntity
  8
Cotas
 62
     0
370
    -2
100
AcDbLine
 10
94.27822001473243
 20
199.3977947009802
 30
0.0
 11
91.77822001473243
 21
199.3977947009802
 31
0.0
  0
LINE
  5
487
330
475
100
AcDbEntity
  8
Cotas
 62
     0
370
    -2
100
AcDbLine
 10
100.7752200147325
 20
199.3977947009802
 30
0.0
 11
109.1085533480658
 21
199.3977947009802
 31
0.0
  0
LINE
  5
488
330
475
100
AcDbEntity
  8
Cotas
 62
     0
370
    -2
100
AcDbLine
 10
96.77822001473243
 20
199.3977947009802
 30
0.0
 11
98.27522001473255
 21
199.3977947009802
 31
0.0
  0
SOLID
  5
489
330
475
100
AcDbEntity
  8
Cotas
 62
     0
100
AcDbTrace
 10
94.27822001473243
 20
199.8144613676468
 30
0.0
 11
94.27822001473243
 21
198.9811280343135
 31
0.0
 12
96.77822001473243
 22
199.3977947009802
 32
0.0
 13
96.77822001473243
 23
199.3977947009802
 33
0.0
  0
SOLID
  5
48A
330
475
100
AcDbEntity
  8
Cotas
 62
     0
100
AcDbTrace
 10
100.7752200147325
 20
199.8144613676468
 30
0.0
 11
100.7752200147325
 21
198.9811280343135
 31
0.0
 12
98.27522001473255
 22
199.3977947009802
 32
0.0
 13
98.27522001473255
 23
199.3977947009802
 33
0.0
  0
MTEXT
  5
48B
330
475
100
AcDbEntity
  8
Cotas
 62
   252
100
AcDbMText
 10
106.1918866813992
 20
201.4811280343135
 30
0.0
 40
2.5
 41
0.0
 71
     5
 72
     1
  1
1,5
 73
     1
 44
1.0
  0
POINT
  5
48C
330
475
100
AcDbEntity
  8
Defpoints
 62
     0
100
AcDbPoint
 10
96.77822001473243
 20
195.3977947009802
 30
0.0
  0
POINT
  5
48D
330
475
100
AcDbEntity
  8
Defpoints
 62
     0
100
AcDbPoint
 10
98.27522001473255
 20
195.3977947009802
 30
0.0
  0
POINT
  5
48E
330
475
100
AcDbEntity
  8
Defpoints
 62
     0
100
AcDbPoint
 10
98.27522001473255
 20
199.3977947009802
 30
0.0
  0
ENDBLK
  5
482
330
475
100
AcDbEntity
  8
0
100
AcDbBlockEnd
  0
ENDSEC
  0
SECTION
  2
ENTITIES
  0
LWPOLYLINE
  5
88
330
1F
100
AcDbEntity
  8
Apoyo
100
AcDbPolyline
 90
        4
 70
     1
 43
0.0
 10
0.0
 20
0.0
 10
210.0
 20
0.0
 10
210.0
 20
297.0
 10
0.0
 20
297.0
  0
LWPOLYLINE
  5
8A
330
1F
100
AcDbEntity
  8
Marco
100
AcDbPolyline
 90
        4
 70
     1
 43
0.0
 10
20.0
 20
10.0
 10
200.0
 20
10.0
 10
200.0
 20
287.0
 10
20.0
 20
287.0
  0
LINE
  5
8B
330
1F
100
AcDbEntity
  8
Marco
100
AcDbLine
 10
20.0
 20
55.0
 30
0.0
 11
200.0
 21
55.0
 31
0.0
  0
LINE
  5
8C
330
1F
100
AcDbEntity
  8
Apoyo
100
AcDbLine
 10
110.0
 20
287.0
 30
0.0
 11
109.9999999999999
 21
55.0
 31
0.0
  0
CIRCLE
  5
90
330
1F
100
AcDbEntity
  8
Apoyo
100
AcDbCircle
 10
109.9999999999999
 20
171.0
 30
0.0
 40
13.93
  0
CIRCLE
  5
91
330
1F
100
AcDbEntity
  8
Apoyo
100
AcDbCircle
 10
109.9999999999999
 20
171.0
 30
0.0
 40
13.16
  0
LINE
  5
92
330
1F
100
AcDbEntity
  8
Apoyo
100
AcDbLine
 10
109.9999999999999
 20
171.0
 30
0.0
 11
89.99999999999998
 21
171.0
 31
0.0
  0
LINE
  5
93
102
{ACAD_REACTORS
330
100
102
}
330
1F
100
AcDbEntity
  8
Apoyo
100
AcDbLine
 10
109.9999999999999
 20
171.0
 30
0.0
 11
130.0
 21
171.0
 31
0.0
  0
CIRCLE
  5
95
330
1F
100
AcDbEntity
  8
Apoyo
100
AcDbCircle
 10
109.9999999999999
 20
171.0
 30
0.0
 40
13.55
  0
LWPOLYLINE
  5
96
330
1F
100
AcDbEntity
  8
Apoyo
100
AcDbPolyline
 90
        4
 70
     1
 43
0.0
 10
96.44999999999997
 20
170.2515
 10
82.25999999999997
 20
170.2515
 10
82.25999999999997
 20
171.7485
 10
96.44999999999997
 20
171.7485
  0
LINE
  5
97
330
1F
100
AcDbEntity
  8
Apoyo
100
AcDbLine
 10
109.9999999999999
 20
171.0
 30
0.0
 11
96.44999999999997
 21
171.0
 31
0.0
  0
LINE
  5
98
102
{ACAD_REACTORS
330
100
102
}
330
1F
100
AcDbEntity
  8
Apoyo
100
AcDbLine
 10
109.9999999999999
 20
171.0
 30
0.0
 11
119.9999999999999
 21
188.3205080756887
 31
0.0
  0
LWPOLYLINE
  5
99
330
1F
100
AcDbEntity
  8
Apoyo
100
AcDbPolyline
 90
        2
 70
     0
 43
0.0
 10
102.5767799852672
 20
182.3603942212791
 10
96.77822001473241
 20
192.4037947009805
  0
LWPOLYLINE
  5
9B
330
1F
100
AcDbEntity
  8
Apoyo
100
AcDbPolyline
 90
        4
 70
     1
 43
0.0
 10
123.55
 20
170.2515
 10
137.7399999999999
 20
170.2515
 10
137.7399999999999
 20
171.7485
 10
123.55
 20
171.7485
  0
DIMENSION
  5
E5
102
{ACAD_XDICTIONARY
360
F4
102
}
102
{ACAD_REACTORS
330
100
102
}
330
1F
100
AcDbEntity
  8
Cotas
100
AcDbDimension
  2
*D0
 10
122.4732799852679
 20
192.6043546715155
 30
0.0
 11
137.4876463161181
 21
186.8699999999998
 31
0.0
 70
    34
 71
     5
 42
1.047197551196586
  3
ISO-25
100
AcDb2LineAngularDimension
 13
109.9999999999999
 23
171.0
 33
0.0
 14
137.7399999999999
 24
171.0
 34
0.0
 15
109.9999999999999
 25
171.0
 35
0.0
 16
139.8258437837447
 26
181.8557193491566
 36
0.0
  0
DIMENSION
  5
101
102
{ACAD_XDICTIONARY
360
10A
102
}
102
{ACAD_REACTORS
330
110
102
}
330
1F
100
AcDbEntity
  8
Cotas
100
AcDbDimension
  2
*D1
 10
110.0
 20
171.0000000000004
 30
0.0
 11
111.9099999999999
 21
171.0000000000003
 31
0.0
 70
   164
 71
     5
 42
13.15999999999992
  3
ISO-25
100
AcDbRadialDimension
 15
123.16
 25
171.0
 35
0.0
 40
0.0
1001
ACAD
1000
DSTYLE
1002
{
1070
   288
1070
     1
1002
}
  0
LINE
  5
267
330
1F
100
AcDbEntity
  8
Apoyo
100
AcDbLine
 10
109.9999999999999
 20
171.0000000000007
 30
0.0
 11
120.0000000000014
 21
153.6794919243127
 31
0.0
  0
DIMENSION
  5
299
102
{ACAD_XDICTIONARY
360
2A4
102
}
102
{ACAD_REACTORS
330
2AC
102
}
330
1F
100
AcDbEntity
  8
Cotas
100
AcDbDimension
  2
*D2
 10
109.9999999999997
 20
171.0000000000001
 30
0.0
 11
127.5900000000021
 21
154.1635650119905
 31
0.0
 70
    36
 71
     5
 42
13.93000000000018
  3
ISO-25
100
AcDbRadialDimension
 15
116.9650000000012
 25
158.9362661252835
 35
0.0
 40
0.0
1001
ACAD
1000
DSTYLE
1002
{
1070
   288
1070
     1
1002
}
  0
DIMENSION
  5
2AD
102
{ACAD_XDICTIONARY
360
2BA
102
}
102
{ACAD_REACTORS
330
2C4
102
}
330
1F
100
AcDbEntity
  8
Cotas
100
AcDbDimension
  2
*D3
 10
82.25999999999997
 20
165.2515
 30
0.0
 11
89.17506204646654
 21
167.3348333333333
 31
0.0
 70
    32
 71
     5
 42
13.8301240929331
  3
ISO-25
100
AcDbAlignedDimension
 13
96.09012409293308
 23
170.2515
 33
0.0
 14
82.25999999999997
 24
170.2515
 34
0.0
100
AcDbRotatedDimension
  0
LINE
  5
2E9
330
1F
100
AcDbEntity
  8
Marco
100
AcDbLine
 10
20.0
 20
46.0
 30
0.0
 11
200.0
 21
46.0
 31
0.0
  0
MTEXT
  5
2EA
330
1F
100
AcDbEntity
  8
Marco
100
AcDbMText
 10
24.5
 20
51.5
 30
0.0
 40
2.5
 41
125.8568408249596
 71
     1
 72
     5
  1
Híbrido <<Rat-race>>, frecuencia de diseño 3 GHz
 73
     1
 44
1.0
  0
MTEXT
  5
2EC
330
1F
100
AcDbEntity
  8
Marco
100
AcDbMText
 10
24.5
 20
42.5
 30
0.0
 40
2.5
 41
172.0
 71
     1
 72
     5
  1
L. Fernández Rojo, D. Valiente García, J.R. Gisbert Valls
 73
     1
 44
1.0
  0
LINE
  5
2ED
330
1F
100
AcDbEntity
  8
Marco
100
AcDbLine
 10
20.0
 20
37.0
 30
0.0
 11
200.0
 21
37.0
 31
0.0
  0
MTEXT
  5
2EE
330
1F
100
AcDbEntity
  8
Marco
100
AcDbMText
 10
24.5
 20
33.5
 30
0.0
 40
2.5
 41
111.255241595112
 71
     1
 72
     5
  1
Práctica optativa, Transmisión por soporte físico
 73
     1
 44
1.0
  0
LINE
  5
2EF
330
1F
100
AcDbEntity
  8
Marco
100
AcDbLine
 10
20.0
 20
28.0
 30
0.0
 11
139.255241595112
 21
28.0
 31
0.0
  0
MTEXT
  5
2F0
330
1F
100
AcDbEntity
  8
Marco
100
AcDbMText
 10
24.5
 20
24.5
 30
0.0
 40
2.5
 41
111.255241595112
 71
     1
 72
     5
  1
Ingeniero en Telecomunicaciones, 4º Curso
 73
     1
 44
1.0
  0
LINE
  5
2F1
330
1F
100
AcDbEntity
  8
Marco
100
AcDbLine
 10
20.0
 20
19.0
 30
0.0
 11
139.255241595112
 21
19.0
 31
0.0
  0
MTEXT
  5
2F2
330
1F
100
AcDbEntity
  8
Marco
100
AcDbMText
 10
24.5
 20
15.5
 30
0.0
 40
2.5
 41
111.255241595112
 71
     1
 72
     5
  1
Universidad Miguel Hernández de Elche
 73
     1
 44
1.0
  0
LINE
  5
2F7
330
1F
100
AcDbEntity
  8
Marco
100
AcDbLine
 10
139.255241595112
 20
10.0
 30
0.0
 11
139.255241595112
 21
37.0
 31
0.0
  0
LINE
  5
2FA
330
1F
100
AcDbEntity
  8
Marco
100
AcDbLine
 10
153.8568408249596
 20
55.0
 30
0.0
 11
153.8568408249596
 21
46.0
 31
0.0
  0
MTEXT
  5
2FB
330
1F
100
AcDbEntity
  8
Marco
100
AcDbMText
 10
158.3568408249596
 20
51.5
 30
0.0
 40
2.5
 41
38.14315917504041
 71
     1
 72
     5
  1
Escala^I^I1:1
 73
     1
 44
1.0
  0
REGION
  5
391
330
1F
100
AcDbEntity
  8
Esqueleto
100
AcDbModelerGeometry
 70
     1
  1
mogoo nm m o          
  1
ni ^ *+0;:,4 ^ *+0\^ [ nh ^ LR iqoqmqhoml QK mk K*: R>& og noemhemk mooh 
  1
n fqfffffffffffffffj:rooh n:rono 
  1
>,27:>;:- {rn rn _nm mogqoqmqhoml |
  1
=0;& {rn rn {rn {m {rn {rn |
  1
3*2/ {rn rn {rn {rn {l {n |
  1
,7:33 {rn rn {rn {rn {rn {k {rn {m |
  1
9><: {rn rn {rn {rn {j {l {rn {i 90-(>-; ;0*=3: 0*+ |
  1
300/ {rn rn {rn {rn {h {k |
  1
/3>1:r,*-9><: {rn rn {rn nofqfffffffffffffh nhn o o o n n o o 90-(>-;@) V V V V |
  1
<0:;8: {rn rn {rn {h {h {rn {g 90-(>-; {j {rn |
  1
:;8: {rn rn {rn {f o {f iqmglngjlohnhfjgim {h {no 90-(>-; _h *1410(1 |
  1
):-+:' {rn rn {rn {g {nn |
  1
:336/,:r<*-): {rn rn {rn nofqfffffffffffffh nhn o o o n nlqnjffffffffffffh o o n V V |
  1
/061+ {rn rn {rn nmlqnjfffffffffffh nhn o |
  0
REGION
  5
401
102
{ACAD_REACTORS
330
466
102
}
330
1F
100
AcDbEntity
  8
Principal
100
AcDbModelerGeometry
 70
     1
  1
mogoo nm m o          
  1
ni ^ *+0;:,4 ^ *+0\^ [ nh ^ LR iqoqmqhoml QK mk K*: R>& og noemhemk mooh 
  1
n fqfffffffffffffffj:rooh n:rono 
  1
>,27:>;:- {rn rn _nm mogqoqmqhoml |
  1
=0;& {rn rn {rn {m {rn {rn |
  1
3*2/ {rn rn {rn {rn {l {n |
  1
,7:33 {rn rn {rn {rn {rn {k {rn {m |
  1
9><: {rn rn {rn {rn {j {l {rn {i 90-(>-; ;0*=3: 0*+ |
  1
300/ {rn rn {rn {rn {h {k |
  1
/3>1:r,*-9><: {rn rn {rn nofqfffffffffffffh nhn o o o n n o o 90-(>-;@) V V V V |
  1
<0:;8: {rn rn {rn {h {h {rn {g 90-(>-; {j {rn |
  1
:;8: {rn rn {rn {f o {f iqmglngjlohnhfjgim {h {no 90-(>-; _h *1410(1 |
  1
):-+:' {rn rn {rn {g {nn |
  1
:336/,:r<*-): {rn rn {rn nofqfffffffffffffh nhn o o o n nlqnjffffffffffffh o o n V V |
  1
/061+ {rn rn {rn nmlqnjfffffffffffh nhn o |
  0
LINE
  5
432
330
1F
100
AcDbEntity
  8
Apoyo
100
AcDbLine
 10
93.75319327931412
 20
197.6432947009802
 30
0.0
 11
95.04963330877956
 21
198.39179470098
 31
0.0
  0
LINE
  5
43A
330
1F
100
AcDbEntity
  8
Apoyo
100
AcDbLine
 10
96.77822001473243
 20
195.3977947009802
 30
0.0
 11
96.77822001473231
 21
192.4037947009804
 31
0.0
  0
LINE
  5
441
330
1F
100
AcDbEntity
  8
Apoyo
100
AcDbLine
 10
96.77822001473243
 20
195.3977947009802
 30
0.0
 11
98.27522001473255
 21
195.3977947009803
 31
0.0
  0
LINE
  5
442
330
1F
100
AcDbEntity
  8
Apoyo
100
AcDbLine
 10
98.27522001473255
 20
195.3977947009803
 30
0.0
 11
98.27522001473184
 21
192.8049146420508
 31
0.0
  0
LWPOLYLINE
  5
450
330
1F
100
AcDbEntity
  8
Apoyo
100
AcDbPolyline
 90
        3
 70
     0
 43
0.0
 10
98.27522001473184
 20
192.8049146420508
 10
103.8732200147325
 20
183.1088942212791
 10
102.5767799852672
 20
182.3603942212791
  0
LWPOLYLINE
  5
451
330
1F
100
AcDbEntity
  8
Apoyo
100
AcDbPolyline
 90
        3
 70
     0
 43
0.0
 10
121.7247799852681
 20
192.8049146420508
 10
116.1267799852674
 20
183.1088942212791
 10
117.4232200147327
 20
182.3603942212791
  0
LINE
  5
452
330
1F
100
AcDbEntity
  8
Apoyo
100
AcDbLine
 10
121.7247799852674
 20
195.3977947009803
 30
0.0
 11
121.7247799852681
 21
192.8049146420508
 31
0.0
  0
LINE
  5
453
330
1F
100
AcDbEntity
  8
Apoyo
100
AcDbLine
 10
123.2217799852675
 20
195.3977947009802
 30
0.0
 11
121.7247799852674
 21
195.3977947009803
 31
0.0
  0
LINE
  5
454
330
1F
100
AcDbEntity
  8
Apoyo
100
AcDbLine
 10
123.2217799852675
 20
195.3977947009802
 30
0.0
 11
123.2217799852676
 21
192.4037947009804
 31
0.0
  0
LWPOLYLINE
  5
455
330
1F
100
AcDbEntity
  8
Apoyo
100
AcDbPolyline
 90
        2
 70
     0
 43
0.0
 10
117.4232200147327
 20
182.3603942212791
 10
123.2217799852675
 20
192.4037947009805
  0
REGION
  5
461
330
1F
100
AcDbEntity
  8
Esqueleto
100
AcDbModelerGeometry
 70
     1
  1
mogoo noh m o         
  1
ni ^ *+0;:,4 ^ *+0\^ [ nh ^ LR iqoqmqhoml QK mk K*: R>& og noemhemk mooh 
  1
n fqfffffffffffffffj:rooh n:rono 
  1
>,27:>;:- {rn rn _nm mogqoqmqhoml |
  1
=0;& {rn rn {rn {m {rn {rn |
  1
3*2/ {rn rn {rn {rn {l {n |
  1
,7:33 {rn rn {rn {rn {rn {k {rn {m |
  1
9><: {rn rn {rn {rn {j {l {rn {i 90-(>-; ;0*=3: 0*+ |
  1
300/ {rn rn {rn {rn {h {k |
  1
/3>1:r,*-9><: {rn rn {rn nnoqooooooooooooon nhiqlflhggjfhlofjf o o o n n o o 90-(>-;@) V V V V |
  1
<0:;8: {rn rn {rn {g {f {rn {no -:):-,:; {j {rn |
  1
<0:;8: {rn rn {rn {nn {h {rn {nm 90-(>-; {j {rn |
  1
<0:;8: {rn rn {rn {h {nl {rn {nk -:):-,:; {j {rn |
  1
:;8: {rn rn {rn {nj o {ni nnqmlhmkkolkoomhmi {h {nh 90-(>-; _h *1410(1 |
  1
<0:;8: {rn rn {rn {ng {g {rn {nf -:):-,:; {j {rn |
  1
:;8: {rn rn {rn {nj mqnkgnjlfklohiomhl {mo lqoghgllgnmfoifhjl {g {mn 90-(>-; _h *1410(1 |
  1
<0:;8: {rn rn {rn {f {mm {rn {ml -:):-,:; {j {rn |
  1
:;8: {rn rn {rn {ni o {mk mqfflfffffffffhhmk {f {mj 90-(>-; _h *1410(1 |
  1
):-+:' {rn rn {rn {no {mi |
  1
):-+:' {rn rn {rn {no {mh |
  1
,+->687+r<*-): {rn rn {rn nomqlfigkmolnhllhj ngmqihmojjgffoof o roqjooooooooooooogll oqgiiomjkolhgkkllgm o V V |
  1
<0:;8: {rn rn {rn {mg {nn {rn {mf -:):-,:; {j {rn |
  1
:;8: {rn rn {rn {lo o {mo nlqglonmkofmfllof {nn {ln 90-(>-; _h *1410(1 |
  1
):-+:' {rn rn {rn {nf {lm |
  1
:336/,:r<*-): {rn rn {rn nofqfffffffffffffh nhnqoooooooooooool o o o n nlqflooooooooooooh o o n V V |
  1
<0:;8: {rn rn {rn {nl {ll {rn {lk -:):-,:; {j {rn |
  1
:;8: {rn rn {rn {mk o {lj nqkfhooooooooonnli {nl {li 90-(>-; _h *1410(1 |
  1
):-+:' {rn rn {rn {nk {lh |
  1
,+->687+r<*-): {rn rn {rn fiqhhgmmoonkhlmmfg nfmqkolhfkhoofgokl o kqmhngooonkjfonojj:ronk n o V V |
  1
/061+ {rn rn {rn nomqlfigkmolnhllhj ngmqihmojjgffoof o |
  1
/061+ {rn rn {rn fiqhhgmmoonkhlmmfg nfmqkolhfkhoofgokl o |
  1
<0:;8: {rn rn {rn {lg {ng {rn {lf -:):-,:; {j {rn |
  1
:;8: {rn rn {rn {ko o {lo nqkfiffffffffffgjh {ng {kn 90-(>-; _h *1410(1 |
  1
):-+:' {rn rn {rn {mf {km |
  1
,+->687+r<*-): {rn rn {rn gmqmjfffffffffffhh nhnqhkgkfffffffffg o n o o V V |
  1
/061+ {rn rn {rn fiqofonmkofmflloih nhnqhkgkfffffffffg o |
  1
<0:;8: {rn rn {rn {mm {kl {rn {kk -:):-,:; {j {rn |
  1
:;8: {rn rn {rn {lj o {kj mqjfmggoojgfmflmki {mm {ki 90-(>-; _h *1410(1 |
  1
):-+:' {rn rn {rn {ml {kh |
  1
,+->687+r<*-): {rn rn {rn fiqhhgmmoonkhlmkmi nfjqlfhhfkhoofgom o n o o V V |
  1
/061+ {rn rn {rn fiqhhgmmoonkhlmkmi nfjqlfhhfkhoofgom o |
  1
<0:;8: {rn rn {rn {kg {mg {rn {kf 90-(>-; {j {rn |
  1
:;8: {rn rn {rn {jo o {ko nlqglonmkofmfllnok {mg {jn 90-(>-; _h *1410(1 |
  1
):-+:' {rn rn {rn {lf {jm |
  1
,+->687+r<*-): {rn rn {rn gmqmjfffffffffffhh nhoqmjnkffffffffff o o n o V V |
  1
/061+ {rn rn {rn gmqmjfffffffffffhh nhnqhkgkfffffffffg o |
  1
<0:;8: {rn rn {rn {ll {jl {rn {jk 90-(>-; {j {rn |
  1
:;8: {rn rn {rn {kj rnqfifnnlhfogjihiol:ronl {jj noqglinmkofmflkmhl {ll {ji 90-(>-; _h *1410(1 |
  1
):-+:' {rn rn {rn {lk {jh |
  1
,+->687+r<*-): {rn rn {rn fgqmhjmmoonkhlmjk nfjqlfhhfkhoofgom o rmqigjjjlhihlnlmmkm:ronl rn o V V |
  1
/061+ {rn rn {rn fgqmhjmmoonkhlmjk nfjqlfhhfkhoofgom o |
  1
<0:;8: {rn rn {rn {jg {lg {rn {jf 90-(>-; {j {rn |
  1
:;8: {rn rn {rn {jo rlqoghgllgnmfoififn {io roqojlhjggkoigmglikmg {lg {in 90-(>-; _h *1410(1 |
  1
):-+:' {rn rn {rn {kf {im |
  1
,+->687+r<*-): {rn rn {rn fiqofonmkofmfllogn nhoqmjnkffffffffff o rn o o V V |
  1
/061+ {rn rn {rn gmqmjfffffffffffhh nhoqmjnkffffffffff o |
  1
<0:;8: {rn rn {rn {kl {il {rn {ik 90-(>-; {j {rn |
  1
:;8: {rn rn {rn {ij nqnoofjilfnghfkohi {jj mqokoiliminhnolglh {kl {ii 90-(>-; _h *1410(1 |
  1
):-+:' {rn rn {rn {kk {ih |
  1
,+->687+r<*-): {rn rn {rn fgqmhjmmoonkhlngkl nfmqgokfnkikmojoij o oqjoooooooooooooiff roqgiiomjkolhgkklki o V V |
  1
/061+ {rn rn {rn fgqmhjmmoonkhlngkl nfmqgokfnkikmojogh o |
  1
<0:;8: {rn rn {rn {ig {kg {rn {if 90-(>-; {j {rn |
  1
:;8: {rn rn {rn {io o {ho nlqglonmkofmfllnkh {kg {hn 90-(>-; _h *1410(1 |
  1
):-+:' {rn rn {rn {jf {hm |
  1
:336/,:r<*-): {rn rn {rn nofqfffffffffffffh nhnqoooooooooooool o o o n nlqflooooooooooooh o o n V V |
  1
/061+ {rn rn {rn fiqofonmkofmfllogn nhoqmjnkffffffffff o |
  1
<0:;8: {rn rn {rn {jl {hl {rn {hk 90-(>-; {j {rn |
  1
:;8: {rn rn {rn {hj o {ij noqglinmkofmflkmkl {jl {hi 90-(>-; _h *1410(1 |
  1
):-+:' {rn rn {rn {jk {hh |
  1
:336/,:r<*-): {rn rn {rn nofqfffffffffffffh nhnqoooooooooooool o o o n nlqflooooooooooooh o o n V V |
  1
/061+ {rn rn {rn nolqiflmgmoinnffoi nglqkmojjjgffoof o |
  1
<0:;8: {rn rn {rn {hg {jg {rn {hf 90-(>-; {j {rn |
  1
:;8: {rn rn {rn {ho o {go nqkfiffffffffffgjh {jg {gn 90-(>-; _h *1410(1 |
  1
):-+:' {rn rn {rn {if {gm |
  1
,+->687+r<*-): {rn rn {rn nmlqfofghjfohoiigi nhoqmjnkffffffffgm o n rnqmllolkgfgjhhlgon:ronk o V V |
  1
/061+ {rn rn {rn nmlqfofghjfohoiigi nhoqmjnkffffffffgm o |
  1
<0:;8: {rn rn {rn {il {gl {rn {gk 90-(>-; {j {rn |
  1
:;8: {rn rn {rn {gj o {hj mqjfmggoojgfmfjgok {il {gi 90-(>-; _h *1410(1 |
  1
):-+:' {rn rn {rn {ik {gh |
  1
,+->687+r<*-): {rn rn {rn nmnqhmkhhffgjmignn nfmqgokfnkikmojoim o roqjooooooooooooohmm roqgiiomjkolhgkklki o V V |
  1
/061+ {rn rn {rn nniqloihnhflggoofm nglqkmojjjgffoof o |
  1
<0:;8: {rn rn {rn {gg {ig {rn {gf 90-(>-; {j {rn |
  1
:;8: {rn rn {rn {go o {fo nlqglonmkofmfllnnf {ig {fn 90-(>-; _h *1410(1 |
  1
):-+:' {rn rn {rn {hf {fm |
  1
,+->687+r<*-): {rn rn {rn nlhqhkooooooooooon nhoqmjnkffffffffij o o n o V V |
  1
/061+ {rn rn {rn nlhqhkooooooooooon nhoqmjnkffffffffij o |
  1
<0:;8: {rn rn {rn {hl {gg {rn {fl 90-(>-; {j {rn |
  1
:;8: {rn rn {rn {fk o {gj nqkfhooooooooonnli {hl {fj 90-(>-; _h *1410(1 |
  1
):-+:' {rn rn {rn {hk {fi |
  1
,+->687+r<*-): {rn rn {rn nmnqhmkhhffgjmihk nfjqlfhhfkhoofgom o mqigjjjlhihlnlmmkm:ronl rn o V V |
  1
/061+ {rn rn {rn nmnqhmkhhffgjmignn nfmqgokfnkikmojoim o |
  1
<0:;8: {rn rn {rn {gl {hg {rn {fh 90-(>-; {j {rn |
  1
:;8: {rn rn {rn {fo oqojlhjggkoigmgojhij {fg oqfflklghnojnlhijm {hg {ff 90-(>-; _h *1410(1 |
  1
):-+:' {rn rn {rn {gf {noo |
  1
,+->687+r<*-): {rn rn {rn nlhqhkooooooooooon nhnqhkgkffffffffik o rn nqmllolkgfgjhhlgmh:ronk o V V |
  1
/061+ {rn rn {rn nlhqhkooooooooooon nhnqhkgkffffffffik o |
  1
:;8: {rn rn {rn {non o {fk mqfflfffffffffhhmk {gl {nom 90-(>-; _h *1410(1 |
  1
):-+:' {rn rn {rn {gk {nol |
  1
,+->687+r<*-): {rn rn {rn nmlqmmnhhffgjmihjm nfjqlfhhfkhoofgom o rn o o V V |
  1
/061+ {rn rn {rn nmnqhmkhhffgjmihk nfjqlfhhfkhoofgom o |
  1
:;8: {rn rn {rn {fg o {non nnqmlhmkkolkoomhnf {gg {nok 90-(>-; _h *1410(1 |
  1
):-+:' {rn rn {rn {fh {noj |
  1
:336/,:r<*-): {rn rn {rn nofqfffffffffffffh nhnqoooooooooooool o o o n nlqflooooooooooooh o o n V V |
  1
/061+ {rn rn {rn nmlqfofghjfohoiigf nhnqhkgkffffffffgn o |
  1
):-+:' {rn rn {rn {fl {noi |
  1
,+->687+r<*-): {rn rn {rn nmlqmmnhhffgjmihik nfmqkolhfkhoofgokl o rkqmhngooonkjfonojj:ronk n o V V |
  1
/061+ {rn rn {rn nmlqmmnhhffgjmihjm nfjqlfhhfkhoofgom o |
  1
,+->687+r<*-): {rn rn {rn nnhqiolnjhfigmiim ngmqihmojjgffoof o oqjoooooooooooooikk oqgiiomjkolhgkklkfl o V V |
  1
/061+ {rn rn {rn nnhqiolnjhfigmiim ngmqihmojjgffoof o |
  1
/061+ {rn rn {rn nmlqmmnhhffgjmihik nfmqkolhfkhoofgokl o |
  0
REGION
  5
465
102
{ACAD_REACTORS
330
466
330
48F
102
}
330
1F
100
AcDbEntity
  8
Principal
100
AcDbModelerGeometry
 70
     1
  1
mogoo noh m o         
  1
ni ^ *+0;:,4 ^ *+0\^ [ nh ^ LR iqoqmqhoml QK mk K*: R>& og noemhemk mooh 
  1
n fqfffffffffffffffj:rooh n:rono 
  1
>,27:>;:- {rn rn _nm mogqoqmqhoml |
  1
=0;& {rn rn {rn {m {rn {rn |
  1
3*2/ {rn rn {rn {rn {l {n |
  1
,7:33 {rn rn {rn {rn {rn {k {rn {m |
  1
9><: {rn rn {rn {rn {j {l {rn {i 90-(>-; ;0*=3: 0*+ |
  1
300/ {rn rn {rn {rn {h {k |
  1
/3>1:r,*-9><: {rn rn {rn nnoqooooooooooooon nhiqlflhggjfhlofjf o o o n n o o 90-(>-;@) V V V V |
  1
<0:;8: {rn rn {rn {g {f {rn {no -:):-,:; {j {rn |
  1
<0:;8: {rn rn {rn {nn {h {rn {nm 90-(>-; {j {rn |
  1
<0:;8: {rn rn {rn {h {nl {rn {nk -:):-,:; {j {rn |
  1
:;8: {rn rn {rn {nj o {ni nnqmlhmkkolkoomhmi {h {nh 90-(>-; _h *1410(1 |
  1
<0:;8: {rn rn {rn {ng {g {rn {nf -:):-,:; {j {rn |
  1
:;8: {rn rn {rn {nj mqnkgnjlfklohiomhl {mo lqoghgllgnmfoifhjl {g {mn 90-(>-; _h *1410(1 |
  1
<0:;8: {rn rn {rn {f {mm {rn {ml -:):-,:; {j {rn |
  1
:;8: {rn rn {rn {ni o {mk mqfflfffffffffhhmk {f {mj 90-(>-; _h *1410(1 |
  1
):-+:' {rn rn {rn {no {mi |
  1
):-+:' {rn rn {rn {no {mh |
  1
,+->687+r<*-): {rn rn {rn nomqlfigkmolnhllhj ngmqihmojjgffoof o roqjooooooooooooogll oqgiiomjkolhgkkllgm o V V |
  1
<0:;8: {rn rn {rn {mg {nn {rn {mf -:):-,:; {j {rn |
  1
:;8: {rn rn {rn {lo o {mo nlqglonmkofmfllof {nn {ln 90-(>-; _h *1410(1 |
  1
):-+:' {rn rn {rn {nf {lm |
  1
:336/,:r<*-): {rn rn {rn nofqfffffffffffffh nhnqoooooooooooool o o o n nlqflooooooooooooh o o n V V |
  1
<0:;8: {rn rn {rn {nl {ll {rn {lk -:):-,:; {j {rn |
  1
:;8: {rn rn {rn {mk o {lj nqkfhooooooooonnli {nl {li 90-(>-; _h *1410(1 |
  1
):-+:' {rn rn {rn {nk {lh |
  1
,+->687+r<*-): {rn rn {rn fiqhhgmmoonkhlmmfg nfmqkolhfkhoofgokl o kqmhngooonkjfonojj:ronk n o V V |
  1
/061+ {rn rn {rn nomqlfigkmolnhllhj ngmqihmojjgffoof o |
  1
/061+ {rn rn {rn fiqhhgmmoonkhlmmfg nfmqkolhfkhoofgokl o |
  1
<0:;8: {rn rn {rn {lg {ng {rn {lf -:):-,:; {j {rn |
  1
:;8: {rn rn {rn {ko o {lo nqkfiffffffffffgjh {ng {kn 90-(>-; _h *1410(1 |
  1
):-+:' {rn rn {rn {mf {km |
  1
,+->687+r<*-): {rn rn {rn gmqmjfffffffffffhh nhnqhkgkfffffffffg o n o o V V |
  1
/061+ {rn rn {rn fiqofonmkofmflloih nhnqhkgkfffffffffg o |
  1
<0:;8: {rn rn {rn {mm {kl {rn {kk -:):-,:; {j {rn |
  1
:;8: {rn rn {rn {lj o {kj mqjfmggoojgfmflmki {mm {ki 90-(>-; _h *1410(1 |
  1
):-+:' {rn rn {rn {ml {kh |
  1
,+->687+r<*-): {rn rn {rn fiqhhgmmoonkhlmkmi nfjqlfhhfkhoofgom o n o o V V |
  1
/061+ {rn rn {rn fiqhhgmmoonkhlmkmi nfjqlfhhfkhoofgom o |
  1
<0:;8: {rn rn {rn {kg {mg {rn {kf 90-(>-; {j {rn |
  1
:;8: {rn rn {rn {jo o {ko nlqglonmkofmfllnok {mg {jn 90-(>-; _h *1410(1 |
  1
):-+:' {rn rn {rn {lf {jm |
  1
,+->687+r<*-): {rn rn {rn gmqmjfffffffffffhh nhoqmjnkffffffffff o o n o V V |
  1
/061+ {rn rn {rn gmqmjfffffffffffhh nhnqhkgkfffffffffg o |
  1
<0:;8: {rn rn {rn {ll {jl {rn {jk 90-(>-; {j {rn |
  1
:;8: {rn rn {rn {kj rnqfifnnlhfogjihiol:ronl {jj noqglinmkofmflkmhl {ll {ji 90-(>-; _h *1410(1 |
  1
):-+:' {rn rn {rn {lk {jh |
  1
,+->687+r<*-): {rn rn {rn fgqmhjmmoonkhlmjk nfjqlfhhfkhoofgom o rmqigjjjlhihlnlmmkm:ronl rn o V V |
  1
/061+ {rn rn {rn fgqmhjmmoonkhlmjk nfjqlfhhfkhoofgom o |
  1
<0:;8: {rn rn {rn {jg {lg {rn {jf 90-(>-; {j {rn |
  1
:;8: {rn rn {rn {jo rlqoghgllgnmfoififn {io roqojlhjggkoigmglikmg {lg {in 90-(>-; _h *1410(1 |
  1
):-+:' {rn rn {rn {kf {im |
  1
,+->687+r<*-): {rn rn {rn fiqofonmkofmfllogn nhoqmjnkffffffffff o rn o o V V |
  1
/061+ {rn rn {rn gmqmjfffffffffffhh nhoqmjnkffffffffff o |
  1
<0:;8: {rn rn {rn {kl {il {rn {ik 90-(>-; {j {rn |
  1
:;8: {rn rn {rn {ij nqnoofjilfnghfkohi {jj mqokoiliminhnolglh {kl {ii 90-(>-; _h *1410(1 |
  1
):-+:' {rn rn {rn {kk {ih |
  1
,+->687+r<*-): {rn rn {rn fgqmhjmmoonkhlngkl nfmqgokfnkikmojoij o oqjoooooooooooooiff roqgiiomjkolhgkklki o V V |
  1
/061+ {rn rn {rn fgqmhjmmoonkhlngkl nfmqgokfnkikmojogh o |
  1
<0:;8: {rn rn {rn {ig {kg {rn {if 90-(>-; {j {rn |
  1
:;8: {rn rn {rn {io o {ho nlqglonmkofmfllnkh {kg {hn 90-(>-; _h *1410(1 |
  1
):-+:' {rn rn {rn {jf {hm |
  1
:336/,:r<*-): {rn rn {rn nofqfffffffffffffh nhnqoooooooooooool o o o n nlqflooooooooooooh o o n V V |
  1
/061+ {rn rn {rn fiqofonmkofmfllogn nhoqmjnkffffffffff o |
  1
<0:;8: {rn rn {rn {jl {hl {rn {hk 90-(>-; {j {rn |
  1
:;8: {rn rn {rn {hj o {ij noqglinmkofmflkmkl {jl {hi 90-(>-; _h *1410(1 |
  1
):-+:' {rn rn {rn {jk {hh |
  1
:336/,:r<*-): {rn rn {rn nofqfffffffffffffh nhnqoooooooooooool o o o n nlqflooooooooooooh o o n V V |
  1
/061+ {rn rn {rn nolqiflmgmoinnffoi nglqkmojjjgffoof o |
  1
<0:;8: {rn rn {rn {hg {jg {rn {hf 90-(>-; {j {rn |
  1
:;8: {rn rn {rn {ho o {go nqkfiffffffffffgjh {jg {gn 90-(>-; _h *1410(1 |
  1
):-+:' {rn rn {rn {if {gm |
  1
,+->687+r<*-): {rn rn {rn nmlqfofghjfohoiigi nhoqmjnkffffffffgm o n rnqmllolkgfgjhhlgon:ronk o V V |
  1
/061+ {rn rn {rn nmlqfofghjfohoiigi nhoqmjnkffffffffgm o |
  1
<0:;8: {rn rn {rn {il {gl {rn {gk 90-(>-; {j {rn |
  1
:;8: {rn rn {rn {gj o {hj mqjfmggoojgfmfjgok {il {gi 90-(>-; _h *1410(1 |
  1
):-+:' {rn rn {rn {ik {gh |
  1
,+->687+r<*-): {rn rn {rn nmnqhmkhhffgjmignn nfmqgokfnkikmojoim o roqjooooooooooooohmm roqgiiomjkolhgkklki o V V |
  1
/061+ {rn rn {rn nniqloihnhflggoofm nglqkmojjjgffoof o |
  1
<0:;8: {rn rn {rn {gg {ig {rn {gf 90-(>-; {j {rn |
  1
:;8: {rn rn {rn {go o {fo nlqglonmkofmfllnnf {ig {fn 90-(>-; _h *1410(1 |
  1
):-+:' {rn rn {rn {hf {fm |
  1
,+->687+r<*-): {rn rn {rn nlhqhkooooooooooon nhoqmjnkffffffffij o o n o V V |
  1
/061+ {rn rn {rn nlhqhkooooooooooon nhoqmjnkffffffffij o |
  1
<0:;8: {rn rn {rn {hl {gg {rn {fl 90-(>-; {j {rn |
  1
:;8: {rn rn {rn {fk o {gj nqkfhooooooooonnli {hl {fj 90-(>-; _h *1410(1 |
  1
):-+:' {rn rn {rn {hk {fi |
  1
,+->687+r<*-): {rn rn {rn nmnqhmkhhffgjmihk nfjqlfhhfkhoofgom o mqigjjjlhihlnlmmkm:ronl rn o V V |
  1
/061+ {rn rn {rn nmnqhmkhhffgjmignn nfmqgokfnkikmojoim o |
  1
<0:;8: {rn rn {rn {gl {hg {rn {fh 90-(>-; {j {rn |
  1
:;8: {rn rn {rn {fo oqojlhjggkoigmgojhij {fg oqfflklghnojnlhijm {hg {ff 90-(>-; _h *1410(1 |
  1
):-+:' {rn rn {rn {gf {noo |
  1
,+->687+r<*-): {rn rn {rn nlhqhkooooooooooon nhnqhkgkffffffffik o rn nqmllolkgfgjhhlgmh:ronk o V V |
  1
/061+ {rn rn {rn nlhqhkooooooooooon nhnqhkgkffffffffik o |
  1
:;8: {rn rn {rn {non o {fk mqfflfffffffffhhmk {gl {nom 90-(>-; _h *1410(1 |
  1
):-+:' {rn rn {rn {gk {nol |
  1
,+->687+r<*-): {rn rn {rn nmlqmmnhhffgjmihjm nfjqlfhhfkhoofgom o rn o o V V |
  1
/061+ {rn rn {rn nmnqhmkhhffgjmihk nfjqlfhhfkhoofgom o |
  1
:;8: {rn rn {rn {fg o {non nnqmlhmkkolkoomhnf {gg {nok 90-(>-; _h *1410(1 |
  1
):-+:' {rn rn {rn {fh {noj |
  1
:336/,:r<*-): {rn rn {rn nofqfffffffffffffh nhnqoooooooooooool o o o n nlqflooooooooooooh o o n V V |
  1
/061+ {rn rn {rn nmlqfofghjfohoiigf nhnqhkgkffffffffgn o |
  1
):-+:' {rn rn {rn {fl {noi |
  1
,+->687+r<*-): {rn rn {rn nmlqmmnhhffgjmihik nfmqkolhfkhoofgokl o rkqmhngooonkjfonojj:ronk n o V V |
  1
/061+ {rn rn {rn nmlqmmnhhffgjmihjm nfjqlfhhfkhoofgom o |
  1
,+->687+r<*-): {rn rn {rn nnhqiolnjhfigmiim ngmqihmojjgffoof o oqjoooooooooooooikk oqgiiomjkolhgkklkfl o V V |
  1
/061+ {rn rn {rn nnhqiolnjhfigmiim ngmqihmojjgffoof o |
  1
/061+ {rn rn {rn nmlqmmnhhffgjmihik nfmqkolhfkhoofgokl o |
  0
HATCH
  5
466
330
1F
100
AcDbEntity
  8
Principal
100
AcDbHatch
 10
0.0
 20
0.0
 30
0.0
210
0.0
220
0.0
230
1.0
  2
SOLID
 70
     1
 71
     1
 91
        2
 92
        1
 93
       20
 72
     1
 10
96.77822001473231
 20
192.4037947009804
 11
102.3968420317337
 21
182.672055899009
 72
     2
 10
109.9999999999999
 20
171.0
 40
13.93
 50
123.0801546826424
 51
176.9198453173583
 73
     1
 72
     1
 10
96.09012409293306
 20
171.7485
 11
82.25999999999997
 21
171.7485
 72
     1
 10
82.25999999999997
 20
171.7485
 11
82.25999999999997
 21
170.2515
 72
     1
 10
82.25999999999997
 20
170.2515
 11
96.09012409293308
 21
170.2515
 72
     2
 10
109.9999999999999
 20
171.0
 40
13.93
 50
183.080154682642
 51
356.9198453173573
 73
     1
 72
     1
 10
123.9098759070668
 20
170.2514999999998
 11
137.74
 21
170.2514999999996
 72
     1
 10
137.74
 20
170.2514999999996
 11
137.74
 21
171.7484999999996
 72
     1
 10
137.74
 20
171.7484999999996
 11
123.9098759070669
 21
171.7484999999998
 72
     2
 10
109.9999999999999
 20
171.0
 40
13.93
 50
3.080154682640959
 51
56.91984531735751
 73
     1
 72
     1
 10
117.6031579682662
 20
182.672055899009
 11
123.2217799852676
 21
192.4037947009804
 72
     1
 10
123.2217799852676
 20
192.4037947009804
 11
123.2217799852675
 21
195.3977947009802
 72
     1
 10
123.2217799852675
 20
195.3977947009802
 11
121.7247799852674
 21
195.3977947009802
 72
     1
 10
121.7247799852674
 20
195.3977947009802
 11
121.7247799852681
 21
192.8049146420506
 72
     1
 10
121.7247799852681
 20
192.8049146420506
 11
116.3067179388009
 21
183.420555899009
 72
     2
 10
109.9999999999999
 20
171.0
 40
13.93
 50
63.0801546826412
 51
116.9198453173587
 73
     1
 72
     1
 10
103.693282061199
 20
183.420555899009
 11
98.27522001473184
 21
192.8049146420508
 72
     1
 10
98.27522001473184
 20
192.8049146420508
 11
98.27522001473255
 21
195.3977947009802
 72
     1
 10
98.27522001473255
 20
195.3977947009802
 11
96.77822001473243
 21
195.3977947009802
 72
     1
 10
96.77822001473243
 20
195.3977947009802
 11
96.77822001473231
 21
192.4037947009804
 97
        1
330
465
 92
       16
 93
        1
 72
     2
 10
109.9999999999999
 20
171.0
 40
13.16
 50
0.0
 51
360.0
 73
     1
 97
        1
330
401
 75
     0
 76
     1
 98
        1
 10
0.0
 20
0.0
450
        0
451
        0
460
0.0
461
0.0
452
        1
462
1.0
453
        2
463
0.0
 63
     5
421
      255
463
1.0
 63
     7
421
 16777215
470
LINEAR
  0
DIMENSION
  5
474
102
{ACAD_XDICTIONARY
360
483
102
}
102
{ACAD_REACTORS
330
48F
102
}
330
1F
100
AcDbEntity
  8
Cotas
100
AcDbDimension
  2
*D4
 10
98.27522001473255
 20
199.3977947009802
 30
0.0
 11
106.1918866813992
 21
201.4811280343135
 31
0.0
 70
    32
 71
     5
 42
1.497000000000113
  3
ISO-25
100
AcDbAlignedDimension
 13
96.77822001473243
 23
195.3977947009802
 33
0.0
 14
98.27522001473255
 24
195.3977947009802
 34
0.0
100
AcDbRotatedDimension
  0
VIEWPORT
  5
4AC
330
4A5
100
AcDbEntity
 67
     1
  8
0
100
AcDbViewport
 10
102.4203783590245
 20
145.3515045642852
 30
0.0
 40
480.2648207810346
 41
314.2820835571289
 68
     1
 69
     1
 12
102.4203783590245
 22
145.3515045642852
 13
0.0
 23
0.0
 14
10.0
 24
10.0
 15
10.0
 25
10.0
 16
0.0
 26
0.0
 36
1.0
 17
0.0
 27
0.0
 37
0.0
 42
50.0
 43
0.0
 44
0.0
 45
314.2820835571289
 50
0.0
 51
0.0
 72
  1000
 90
    32800
  1

281
     0
 71
     1
 74
     0
110
0.0
120
0.0
130
0.0
111
1.0
121
0.0
131
0.0
112
0.0
122
1.0
132
0.0
 79
     0
146
0.0
170
     0
  0
VIEWPORT
  5
4AE
330
4A5
100
AcDbEntity
 67
     1
  8
Marco
100
AcDbViewport
 10
101.7693268060684
 20
145.351510643959
 30
0.0
 40
162.8309228897095
 41
232.5624170303345
 68
     2
 69
     2
 12
104.9935921642389
 22
148.500000691507
 13
0.0
 23
0.0
 14
10.0
 24
10.0
 15
10.0
 25
10.0
 16
0.0
 26
0.0
 36
1.0
 17
0.0
 27
0.0
 37
0.0
 42
50.0
 43
0.0
 44
0.0
 45
304.3392195790916
 50
0.0
 51
0.0
 72
  1000
 90
    32864
  1

281
     0
 71
     1
 74
     0
110
0.0
120
0.0
130
0.0
111
1.0
121
0.0
131
0.0
112
0.0
122
1.0
132
0.0
 79
     0
146
0.0
170
     0
  0
ENDSEC
  0
SECTION
  2
OBJECTS
  0
DICTIONARY
  5
C
330
0
100
AcDbDictionary
281
     1
  3
ACAD_COLOR
350
6B
  3
ACAD_GROUP
350
D
  3
ACAD_LAYOUT
350
1A
  3
ACAD_MATERIAL
350
6A
  3
ACAD_MLINESTYLE
350
17
  3
ACAD_PLOTSETTINGS
350
19
  3
ACAD_PLOTSTYLENAME
350
E
  3
AcDbVariableDictionary
350
5E
  0
DICTIONARY
  5
F4
330
E5
100
AcDbDictionary
280
     1
281
     1
  3
ACAD_DIMASSOC
360
100
  0
DICTIONARY
  5
10A
330
101
100
AcDbDictionary
280
     1
281
     1
  3
ACAD_DIMASSOC
360
110
  0
DICTIONARY
  5
2A4
330
299
100
AcDbDictionary
280
     1
281
     1
  3
ACAD_DIMASSOC
360
2AC
  0
DICTIONARY
  5
2BA
330
2AD
100
AcDbDictionary
280
     1
281
     1
  3
ACAD_DIMASSOC
360
2C4
  0
DICTIONARY
  5
483
330
474
100
AcDbDictionary
280
     1
281
     1
  3
ACAD_DIMASSOC
360
48F
  0
DICTIONARY
  5
6B
102
{ACAD_REACTORS
330
C
102
}
330
C
100
AcDbDictionary
281
     1
  0
DICTIONARY
  5
D
102
{ACAD_REACTORS
330
C
102
}
330
C
100
AcDbDictionary
281
     1
  0
DICTIONARY
  5
1A
102
{ACAD_REACTORS
330
C
102
}
330
C
100
AcDbDictionary
281
     1
  3
Layout1
350
4A6
  3
Model
350
22
  0
DICTIONARY
  5
6A
102
{ACAD_REACTORS
330
C
102
}
330
C
100
AcDbDictionary
281
     1
  0
DICTIONARY
  5
17
102
{ACAD_REACTORS
330
C
102
}
330
C
100
AcDbDictionary
281
     1
  3
Standard
350
18
  0
DICTIONARY
  5
19
102
{ACAD_REACTORS
330
C
102
}
330
C
100
AcDbDictionary
281
     1
  0
ACDBDICTIONARYWDFLT
  5
E
102
{ACAD_REACTORS
330
C
102
}
330
C
100
AcDbDictionary
281
     1
  3
Normal
350
F
100
AcDbDictionaryWithDefault
340
F
  0
DICTIONARY
  5
5E
102
{ACAD_REACTORS
330
C
102
}
330
C
100
AcDbDictionary
281
     1
  3
DIMASSOC
350
5F
  3
HIDETEXT
350
63
  0
DIMASSOC
  5
100
102
{ACAD_REACTORS
330
F4
102
}
330
F4
100
AcDbDimAssoc
330
E5
 90
        5
 70
     0
 71
     0
  1
AcDbOsnapPointRef
 72
    13
331
93
 73
     2
 91
        0
 40
0.0
 10
0.0
 20
0.0
 30
2.000000000000000E+50
 75
     0
  1
AcDbOsnapPointRef
 72
    13
331
98
 73
     2
 91
        0
 40
0.0
 10
0.0
 20
0.0
 30
2.000000000000000E+50
 75
     0
  0
DIMASSOC
  5
110
102
{ACAD_REACTORS
330
10A
102
}
330
10A
100
AcDbDimAssoc
330
101
 90
        2
 70
     0
 71
     0
  1
AcDbOsnapPointRef
 72
     3
331
0
 73
     2
 91
        0
 40
0.0
 10
0.0
 20
0.0
 30
0.0
 75
     0
  0
DIMASSOC
  5
2AC
102
{ACAD_REACTORS
330
2A4
102
}
330
2A4
100
AcDbDimAssoc
330
299
 90
        2
 70
     0
 71
     0
  1
AcDbOsnapPointRef
 72
     3
331
0
 73
     2
 91
        0
 40
0.0
 10
0.0
 20
0.0
 30
0.0
 75
     0
  0
DIMASSOC
  5
2C4
102
{ACAD_REACTORS
330
2BA
102
}
330
2BA
100
AcDbDimAssoc
330
2AD
 90
        3
 70
     0
 71
     0
  1
AcDbOsnapPointRef
 72
    13
331
0
 73
     2
 91
        1
 40
0.0
 10
0.0
 20
0.0
 30
2.000000000000000E+50
 75
     0
  1
AcDbOsnapPointRef
 72
     1
331
0
 73
     2
 91
        1
 40
1.0
 10
0.0
 20
0.0
 30
2.000000000000000E+50
 75
     0
  0
DIMASSOC
  5
48F
102
{ACAD_REACTORS
330
483
102
}
330
483
100
AcDbDimAssoc
330
474
 90
        3
 70
     0
 71
     0
  1
AcDbOsnapPointRef
 72
    13
331
465
 73
     2
 91
       19
 40
0.0
 10
0.0
 20
0.0
 30
2.000000000000000E+50
 75
     0
  1
AcDbOsnapPointRef
 72
    13
331
465
 73
     2
 91
       18
 40
0.0
 10
0.0
 20
0.0
 30
2.000000000000000E+50
 75
     0
  0
LAYOUT
  5
4A6
102
{ACAD_REACTORS
330
1A
102
}
330
1A
100
AcDbPlotSettings
  1

  2
Default Windows System Printer.pc3
  4
A4
  6

 40
3.174999952316284
 41
3.174999952316284
 42
3.175003051757812
 43
3.17498779296875
 44
209.8886566162109
 45
297.0530090332031
 46
-137.71
 47
-11.79
 48
0.0
 49
0.0
140
0.0
141
0.0
142
1.0
143
1.0
 70
   692
 72
     1
 73
     0
 74
     0
  7

 75
    16
147
1.0
 76
     1
 77
     4
 78
   600
148
137.7120320314928
149
11.78953721427919
100
AcDbLayout
  1
Layout1
 70
     1
 71
     1
 10
-3.177031983809058
 20
-3.174537166595477
 11
206.7116246324019
 21
293.8784718666076
 12
0.0
 22
0.0
 32
0.0
 14
20.35386536121368
 24
29.07030212879181
 34
0.0
 15
183.1847882509231
 25
261.6327191591263
 35
0.0
146
0.0
 13
0.0
 23
0.0
 33
0.0
 16
1.0
 26
0.0
 36
0.0
 17
0.0
 27
1.0
 37
0.0
 76
     0
330
4A5
331
4AC
  0
LAYOUT
  5
22
102
{ACAD_REACTORS
330
1A
102
}
330
1A
100
AcDbPlotSettings
  1

  2
none_device
  4
ANSI_A_(8.50_x_11.00_Inches)
  6

 40
6.349999904632568
 41
19.04999923706055
 42
6.350006103515625
 43
19.04998779296875
 44
215.8999938964844
 45
279.3999938964844
 46
0.0
 47
0.0
 48
0.0
 49
0.0
140
0.0
141
0.0
142
1.0
143
78.436453180766
 70
 11952
 72
     0
 73
     1
 74
     0
  7

 75
     0
147
0.0127491741332998
 76
     0
 77
     2
 78
   300
148
0.0
149
0.0
100
AcDbLayout
  1
Model
 70
     1
 71
     0
 10
0.0
 20
0.0
 11
12.0
 21
9.0
 12
0.0
 22
0.0
 32
0.0
 14
0.0
 24
0.0
 34
0.0
 15
0.0
 25
0.0
 35
0.0
146
0.0
 13
0.0
 23
0.0
 33
0.0
 16
1.0
 26
0.0
 36
0.0
 17
0.0
 27
1.0
 37
0.0
 76
     0
330
1F
  0
MLINESTYLE
  5
18
102
{ACAD_REACTORS
330
17
102
}
330
17
100
AcDbMlineStyle
  2
STANDARD
 70
     0
  3

 62
   256
 51
90.0
 52
90.0
 71
     2
 49
0.5
 62
   256
  6
BYLAYER
 49
-0.5
 62
   256
  6
BYLAYER
  0
ACDBPLACEHOLDER
  5
F
102
{ACAD_REACTORS
330
E
102
}
330
E
  0
DICTIONARYVAR
  5
5F
102
{ACAD_REACTORS
330
5E
102
}
330
5E
100
DictionaryVariables
280
     0
  1
2
  0
DICTIONARYVAR
  5
63
102
{ACAD_REACTORS
330
5E
102
}
330
5E
100
DictionaryVariables
280
     0
  1
1
  0
ENDSEC
  0
EOF
