<?xml version="1.0" encoding="UTF-8" standalone="no"?>
<!-- Created with Inkscape (http://www.inkscape.org/) -->

<svg
   xmlns:dc="http://purl.org/dc/elements/1.1/"
   xmlns:cc="http://creativecommons.org/ns#"
   xmlns:rdf="http://www.w3.org/1999/02/22-rdf-syntax-ns#"
   xmlns:svg="http://www.w3.org/2000/svg"
   xmlns="http://www.w3.org/2000/svg"
   xmlns:sodipodi="http://sodipodi.sourceforge.net/DTD/sodipodi-0.dtd"
   xmlns:inkscape="http://www.inkscape.org/namespaces/inkscape"
   width="1158"
   height="774"
   id="svg2"
   version="1.1"
   inkscape:version="0.47 r22583"
   sodipodi:docname="chapter04-06.svg"
   style="display:inline">
  <defs
     id="defs4">
    <inkscape:perspective
       sodipodi:type="inkscape:persp3d"
       inkscape:vp_x="0 : 526.18109 : 1"
       inkscape:vp_y="0 : 1000 : 0"
       inkscape:vp_z="744.09448 : 526.18109 : 1"
       inkscape:persp3d-origin="372.04724 : 350.78739 : 1"
       id="perspective10" />
    <inkscape:perspective
       id="perspective2824"
       inkscape:persp3d-origin="0.5 : 0.33333333 : 1"
       inkscape:vp_z="1 : 0.5 : 1"
       inkscape:vp_y="0 : 1000 : 0"
       inkscape:vp_x="0 : 0.5 : 1"
       sodipodi:type="inkscape:persp3d" />
    <inkscape:perspective
       id="perspective3656"
       inkscape:persp3d-origin="0.5 : 0.33333333 : 1"
       inkscape:vp_z="1 : 0.5 : 1"
       inkscape:vp_y="0 : 1000 : 0"
       inkscape:vp_x="0 : 0.5 : 1"
       sodipodi:type="inkscape:persp3d" />
    <inkscape:perspective
       id="perspective3656-7"
       inkscape:persp3d-origin="0.5 : 0.33333333 : 1"
       inkscape:vp_z="1 : 0.5 : 1"
       inkscape:vp_y="0 : 1000 : 0"
       inkscape:vp_x="0 : 0.5 : 1"
       sodipodi:type="inkscape:persp3d" />
    <inkscape:perspective
       id="perspective3656-0"
       inkscape:persp3d-origin="0.5 : 0.33333333 : 1"
       inkscape:vp_z="1 : 0.5 : 1"
       inkscape:vp_y="0 : 1000 : 0"
       inkscape:vp_x="0 : 0.5 : 1"
       sodipodi:type="inkscape:persp3d" />
  </defs>
  <sodipodi:namedview
     id="base"
     pagecolor="#ffffff"
     bordercolor="#666666"
     borderopacity="1.0"
     inkscape:pageopacity="0.0"
     inkscape:pageshadow="2"
     inkscape:zoom="0.98578811"
     inkscape:cx="579"
     inkscape:cy="387"
     inkscape:document-units="px"
     inkscape:current-layer="layer1"
     showgrid="false"
     showguides="false"
     inkscape:guide-bbox="true"
     inkscape:snap-grids="false"
     inkscape:snap-to-guides="true"
     inkscape:window-width="1280"
     inkscape:window-height="968"
     inkscape:window-x="-4"
     inkscape:window-y="-4"
     inkscape:window-maximized="1">
    <inkscape:grid
       type="xygrid"
       id="grid2830"
       empspacing="5"
       visible="true"
       enabled="true"
       snapvisiblegridlinesonly="true" />
    <sodipodi:guide
       orientation="1,0"
       position="75,763"
       id="guide2832" />
    <sodipodi:guide
       orientation="0,1"
       position="82,762"
       id="guide2834" />
    <sodipodi:guide
       orientation="1,0"
       position="1150,755"
       id="guide2836" />
    <sodipodi:guide
       orientation="0,1"
       position="1094,152"
       id="guide2838" />
    <sodipodi:guide
       orientation="0,1"
       position="523,245"
       id="guide2840" />
    <sodipodi:guide
       orientation="1,0"
       position="682.34554,636.80063"
       id="guide3638" />
    <sodipodi:guide
       orientation="1,0"
       position="673,620"
       id="guide3642" />
    <sodipodi:guide
       orientation="1,0"
       position="692,620"
       id="guide3644" />
    <sodipodi:guide
       orientation="1,0"
       position="337.69479,225.07466"
       id="guide3670" />
    <sodipodi:guide
       orientation="0,1"
       position="341.00715,238.4897"
       id="guide3674" />
    <sodipodi:guide
       orientation="0,1"
       position="342.00086,158.99314"
       id="guide3676" />
  </sodipodi:namedview>
  <metadata
     id="metadata7">
    <rdf:RDF>
      <cc:Work
         rdf:about="">
        <dc:format>image/svg+xml</dc:format>
        <dc:type
           rdf:resource="http://purl.org/dc/dcmitype/StillImage" />
        <dc:title />
      </cc:Work>
    </rdf:RDF>
  </metadata>
  <g
     inkscape:label="Capa 1"
     inkscape:groupmode="layer"
     id="layer1"
     transform="translate(253.75381,-104.04033)">
    <rect
       style="fill:none;stroke:#000000;stroke-width:1;stroke-linecap:round;stroke-linejoin:round;stroke-miterlimit:4;stroke-opacity:1;stroke-dasharray:none;stroke-dashoffset:0"
       id="rect2842"
       width="1075"
       height="610"
       x="75"
       y="12"
       transform="translate(-253.75381,104.04033)" />
    <path
       style="fill:none;stroke:#000000;stroke-width:1;stroke-linecap:butt;stroke-linejoin:miter;stroke-miterlimit:4;stroke-opacity:1;stroke-dasharray:6, 6;stroke-dashoffset:7"
       d="m 75,529 1075,0"
       id="path2844"
       transform="translate(-253.75381,104.04033)" />
    <path
       style="fill:none;stroke:#000000;stroke-width:1.5;stroke-linecap:butt;stroke-linejoin:miter;stroke-miterlimit:4;stroke-opacity:1;stroke-dasharray:none"
       d="m 75.089837,520.85583 c 3.449293,-2.66113 11.766531,-8.57181 20.193862,-16.30935 8.894101,-8.16611 17.422631,-17.77193 19.250791,-19.8103 5.04738,-5.62773 4.80334,-10.88801 10.22899,-15.93201 7.82817,-7.27755 5.88229,-10.33388 11.23741,-13.09405 1.57739,-0.81303 6.41207,-2.26012 6.72362,-9.83841 0.12776,-3.10794 2.28684,-1.26943 3.7359,-3.2654 15.82845,-21.82633 71.35074,-67.17987 76.03741,-75.1705 0.63076,-1.07543 2.1518,-4.3965 5.20584,-8.08612 8.5742,-10.3586 16.94495,-17.79484 32.52128,-32.30522 5.49376,-5.11781 11.37563,-10.35348 17.37856,-17.89143 0.88807,-1.11516 0.75527,-2.52225 2.70272,-3.35647 10.88964,-4.66471 15.72497,-7.44119 16.67246,-13.50651 0.29513,-1.88926 1.18729,-3.27749 3.29276,-4.42867 4.09441,-2.23864 9.1197,-3.82417 13.13495,-8.153 7.38041,-7.95679 16.82538,-16.80206 25.77269,-26.30179 2.66357,-2.82803 5.17066,-3.84485 10.85554,-7.13495 0.88992,-0.51503 3.69208,-4.56433 3.84517,-5.083 0.41693,-1.41262 2.21704,-4.33324 3.90457,-5.38875 10.24583,-6.40854 13.16117,-8.72535 21.33417,-18.06273 1.49403,-1.70688 4.36197,-3.31313 5.77241,-3.96534 10.78885,-4.98897 11.42928,-6.25047 16.43617,-12.10383 1.13361,-1.32525 1.61321,-3.07458 3.56956,-4.03516 1.84799,-0.90737 2.54215,-1.63239 4.06024,-2.82295 18.3351,-14.37927 34.56876,-33.39194 50.34289,-42.31787 5.29258,-2.99486 6.88257,-5.67177 9.96832,-8.43897 3.10279,-2.78247 8.96265,-4.67046 10.51368,-5.15145 19.3776,-6.0092 42.21297,-1.21323 60.15466,-3.69788 13.47242,-1.86573 35.15613,-10.51949 53.72817,-11.37773 72.404,2.70707 86.65274,0.97853 132.48734,2.14912 3.63413,0.0928 5.57309,0.83138 7.24182,2.45596 0.99947,0.97303 3.47539,3.64246 8.08315,5.28558 11.11803,3.96466 27.67069,18.12105 46.64567,39.65027 1.77798,2.01731 5.48847,1.51063 5.43565,6.06085 -0.0191,1.64248 0.92361,4.01829 2.19149,4.34642 1.50217,0.38875 4.04238,-0.15215 5.09698,2.18253 1.9073,4.22238 5.12587,11.58645 8.07187,13.87079 1.76431,1.36805 3.68545,0.71159 5.04472,2.73009 1.13841,1.69053 1.1749,3.47848 3.51743,4.98416 6.65908,4.28018 15.33114,9.26664 19.70447,14.21143 1.1202,1.26657 1.68775,3.51247 3.48809,4.62284 11.81431,7.28656 19.91351,18.14702 25.84821,25.72264 5.28423,6.7453 3.08567,-0.007 4.57121,1.36371 6.86337,6.33428 11.40697,14.11723 12.32473,15.61928 0.9887,1.61815 2.12732,4.28542 4.97228,7.64186 12.07453,14.24535 24.58445,31.18284 33.83842,42.42015 1.47722,1.79383 2.06344,5.39567 8.86177,9.21347 18.25825,10.25345 33.84944,21.41577 42.8437,32.88413 1.01092,1.28901 1.49188,2.92034 5.39309,5.13404 8.93586,5.07055 22.75058,14.13721 35.94198,24.45798 1.5148,1.18517 5.4948,2.32044 8.6088,3.56591 14.0792,5.63092 23.5502,15.0729 26.6662,15.51347 7.3895,1.0448 12.5155,6.19453 51.1998,5.43602"
       id="path2864"
       transform="translate(-253.75381,104.04033)"
       sodipodi:nodetypes="cssssssssssssssssssssssssssscsssssssssssssssssssssssc" />
    <path
       style="fill:none;stroke:#000000;stroke-width:1px;stroke-linecap:butt;stroke-linejoin:miter;stroke-opacity:1"
       d="m 682.34554,136 0,383"
       id="path3640"
       transform="translate(-253.75381,104.04033)"
       sodipodi:nodetypes="cc" />
    <path
       style="fill:#000000;fill-opacity:1;stroke:#000000;stroke-width:1px;stroke-linecap:butt;stroke-linejoin:round;stroke-opacity:1"
       d="m 673,154 9.34554,-7 L 692,154 682.34554,126 673,154 z"
       id="path3646"
       transform="translate(-253.75381,104.04033)"
       sodipodi:nodetypes="ccccc" />
    <path
       style="fill:#000000;fill-opacity:1;stroke:#000000;stroke-width:1px;stroke-linecap:butt;stroke-linejoin:round;stroke-opacity:1"
       d="m 419.24619,605.04033 9.34554,7 9.65446,-7 -9.65446,28 -9.34554,-28 z"
       id="path3646-1"
       sodipodi:nodetypes="ccccc" />
    <path
       style="fill:none;stroke:#000000;stroke-width:1px;stroke-linecap:butt;stroke-linejoin:miter;stroke-opacity:1"
       d="m 337.69479,535.5103 0,79.49656"
       id="path3672"
       transform="translate(-253.75381,104.04033)"
       sodipodi:nodetypes="cc" />
    <path
       style="fill:#000000;fill-opacity:1;stroke:#000000;stroke-width:1px;stroke-linecap:butt;stroke-linejoin:round;stroke-opacity:1"
       d="m 74.59544,661.04033 9.34554,-7 9.65446,7 -9.65446,-28 -9.34554,28 z"
       id="path3646-4"
       sodipodi:nodetypes="ccccc" />
    <path
       style="fill:#000000;fill-opacity:1;stroke:#000000;stroke-width:1px;stroke-linecap:butt;stroke-linejoin:round;stroke-opacity:1"
       d="m 74.59544,698.04033 9.34554,7 9.654459,-7 -9.654459,28 -9.34554,-28 z"
       id="path3646-9"
       sodipodi:nodetypes="ccccc" />
  </g>
</svg>
