<?xml version="1.0" encoding="UTF-8" standalone="no"?>
<!-- Created with Inkscape (http://www.inkscape.org/) -->

<svg
   xmlns:dc="http://purl.org/dc/elements/1.1/"
   xmlns:cc="http://creativecommons.org/ns#"
   xmlns:rdf="http://www.w3.org/1999/02/22-rdf-syntax-ns#"
   xmlns:svg="http://www.w3.org/2000/svg"
   xmlns="http://www.w3.org/2000/svg"
   xmlns:sodipodi="http://sodipodi.sourceforge.net/DTD/sodipodi-0.dtd"
   xmlns:inkscape="http://www.inkscape.org/namespaces/inkscape"
   width="1242"
   height="622"
   id="svg2"
   version="1.1"
   inkscape:version="0.47 r22583"
   sodipodi:docname="chapter03-01.svg">
  <defs
     id="defs4">
    <inkscape:perspective
       sodipodi:type="inkscape:persp3d"
       inkscape:vp_x="0 : 526.18109 : 1"
       inkscape:vp_y="0 : 1000 : 0"
       inkscape:vp_z="744.09448 : 526.18109 : 1"
       inkscape:persp3d-origin="372.04724 : 350.78739 : 1"
       id="perspective10" />
    <inkscape:perspective
       id="perspective2847"
       inkscape:persp3d-origin="0.5 : 0.33333333 : 1"
       inkscape:vp_z="1 : 0.5 : 1"
       inkscape:vp_y="0 : 1000 : 0"
       inkscape:vp_x="0 : 0.5 : 1"
       sodipodi:type="inkscape:persp3d" />
    <inkscape:perspective
       id="perspective3684"
       inkscape:persp3d-origin="0.5 : 0.33333333 : 1"
       inkscape:vp_z="1 : 0.5 : 1"
       inkscape:vp_y="0 : 1000 : 0"
       inkscape:vp_x="0 : 0.5 : 1"
       sodipodi:type="inkscape:persp3d" />
    <inkscape:perspective
       id="perspective3684-4"
       inkscape:persp3d-origin="0.5 : 0.33333333 : 1"
       inkscape:vp_z="1 : 0.5 : 1"
       inkscape:vp_y="0 : 1000 : 0"
       inkscape:vp_x="0 : 0.5 : 1"
       sodipodi:type="inkscape:persp3d" />
    <inkscape:perspective
       id="perspective3684-9"
       inkscape:persp3d-origin="0.5 : 0.33333333 : 1"
       inkscape:vp_z="1 : 0.5 : 1"
       inkscape:vp_y="0 : 1000 : 0"
       inkscape:vp_x="0 : 0.5 : 1"
       sodipodi:type="inkscape:persp3d" />
    <inkscape:perspective
       id="perspective3724"
       inkscape:persp3d-origin="0.5 : 0.33333333 : 1"
       inkscape:vp_z="1 : 0.5 : 1"
       inkscape:vp_y="0 : 1000 : 0"
       inkscape:vp_x="0 : 0.5 : 1"
       sodipodi:type="inkscape:persp3d" />
    <inkscape:perspective
       id="perspective3746"
       inkscape:persp3d-origin="0.5 : 0.33333333 : 1"
       inkscape:vp_z="1 : 0.5 : 1"
       inkscape:vp_y="0 : 1000 : 0"
       inkscape:vp_x="0 : 0.5 : 1"
       sodipodi:type="inkscape:persp3d" />
    <inkscape:perspective
       id="perspective3746-8"
       inkscape:persp3d-origin="0.5 : 0.33333333 : 1"
       inkscape:vp_z="1 : 0.5 : 1"
       inkscape:vp_y="0 : 1000 : 0"
       inkscape:vp_x="0 : 0.5 : 1"
       sodipodi:type="inkscape:persp3d" />
    <inkscape:perspective
       id="perspective3746-4"
       inkscape:persp3d-origin="0.5 : 0.33333333 : 1"
       inkscape:vp_z="1 : 0.5 : 1"
       inkscape:vp_y="0 : 1000 : 0"
       inkscape:vp_x="0 : 0.5 : 1"
       sodipodi:type="inkscape:persp3d" />
    <inkscape:perspective
       id="perspective3746-5"
       inkscape:persp3d-origin="0.5 : 0.33333333 : 1"
       inkscape:vp_z="1 : 0.5 : 1"
       inkscape:vp_y="0 : 1000 : 0"
       inkscape:vp_x="0 : 0.5 : 1"
       sodipodi:type="inkscape:persp3d" />
    <inkscape:perspective
       id="perspective3797"
       inkscape:persp3d-origin="0.5 : 0.33333333 : 1"
       inkscape:vp_z="1 : 0.5 : 1"
       inkscape:vp_y="0 : 1000 : 0"
       inkscape:vp_x="0 : 0.5 : 1"
       sodipodi:type="inkscape:persp3d" />
    <inkscape:perspective
       id="perspective3823"
       inkscape:persp3d-origin="0.5 : 0.33333333 : 1"
       inkscape:vp_z="1 : 0.5 : 1"
       inkscape:vp_y="0 : 1000 : 0"
       inkscape:vp_x="0 : 0.5 : 1"
       sodipodi:type="inkscape:persp3d" />
    <inkscape:perspective
       id="perspective3888"
       inkscape:persp3d-origin="0.5 : 0.33333333 : 1"
       inkscape:vp_z="1 : 0.5 : 1"
       inkscape:vp_y="0 : 1000 : 0"
       inkscape:vp_x="0 : 0.5 : 1"
       sodipodi:type="inkscape:persp3d" />
    <inkscape:perspective
       id="perspective25"
       inkscape:persp3d-origin="360 : 240 : 1"
       inkscape:vp_z="720 : 360 : 1"
       inkscape:vp_y="0 : 1000 : 0"
       inkscape:vp_x="0 : 360 : 1"
       sodipodi:type="inkscape:persp3d" />
    <clipPath
       clipPathUnits="userSpaceOnUse"
       id="clipPath2888">
      <rect
         style="fill:none;stroke:#000000;stroke-width:0.00194444;stroke-linecap:butt;stroke-linejoin:round;stroke-miterlimit:4;stroke-opacity:1;stroke-dasharray:none;stroke-dashoffset:7.6"
         id="rect2890"
         width="0.1875"
         height="1.1666666"
         x="-0.0042729168"
         y="-0.0059128888" />
    </clipPath>
    <clipPath
       clipPathUnits="userSpaceOnUse"
       id="clipPath2946">
      <rect
         style="fill:none;stroke:#000000;stroke-width:0.00463888;stroke-linecap:butt;stroke-linejoin:round;stroke-miterlimit:4;stroke-opacity:1;stroke-dasharray:none;stroke-dashoffset:7.6"
         id="rect2948"
         width="0.18224157"
         height="0.1557337"
         x="-0.0034479776"
         y="-0.0059055779" />
    </clipPath>
    <clipPath
       clipPathUnits="userSpaceOnUse"
       id="clipPath2950">
      <rect
         style="fill:none;stroke:#000000;stroke-width:0.00463888;stroke-linecap:butt;stroke-linejoin:round;stroke-miterlimit:4;stroke-opacity:1;stroke-dasharray:none;stroke-dashoffset:7.6"
         id="rect2952"
         width="0.1590472"
         height="0.12259888"
         x="0.0064924723"
         y="0.55738658" />
    </clipPath>
    <clipPath
       clipPathUnits="userSpaceOnUse"
       id="clipPath2954">
      <rect
         style="fill:none;stroke:#000000;stroke-width:0.00463888;stroke-linecap:butt;stroke-linejoin:round;stroke-miterlimit:4;stroke-opacity:1;stroke-dasharray:none;stroke-dashoffset:7.6"
         id="rect2956"
         width="0.14247978"
         height="0.12591235"
         x="0.019746406"
         y="1.0345281" />
    </clipPath>
  </defs>
  <sodipodi:namedview
     id="base"
     pagecolor="#ffffff"
     bordercolor="#666666"
     borderopacity="1.0"
     inkscape:pageopacity="0.0"
     inkscape:pageshadow="2"
     inkscape:zoom="0.95008052"
     inkscape:cx="621"
     inkscape:cy="311"
     inkscape:document-units="px"
     inkscape:current-layer="layer1"
     showgrid="false"
     width="1000px"
     showguides="true"
     inkscape:guide-bbox="true"
     inkscape:window-width="1280"
     inkscape:window-height="968"
     inkscape:window-x="-4"
     inkscape:window-y="-4"
     inkscape:window-maximized="1"
     inkscape:snap-grids="false">
    <inkscape:grid
       type="xygrid"
       id="grid2816"
       empspacing="5"
       visible="true"
       enabled="true"
       snapvisiblegridlinesonly="true" />
  </sodipodi:namedview>
  <metadata
     id="metadata7">
    <rdf:RDF>
      <cc:Work
         rdf:about="">
        <dc:format>image/svg+xml</dc:format>
        <dc:type
           rdf:resource="http://purl.org/dc/dcmitype/StillImage" />
        <dc:title />
      </cc:Work>
    </rdf:RDF>
  </metadata>
  <g
     inkscape:groupmode="layer"
     id="layer2"
     inkscape:label="Invisible"
     style="display:none"
     transform="translate(-38,-85)">
    <path
       transform="translate(0,-307.36218)"
       style="fill:#ffffff;fill-opacity:1;stroke:#000000;stroke-width:2;stroke-linecap:butt;stroke-linejoin:miter;stroke-miterlimit:4;stroke-opacity:1;stroke-dashoffset:0;display:inline"
       d="m 140,572.36218 c 11.04569,0 20,44.77153 20,100 0,55.22847 -8.95431,100 -20,100"
       id="path2837" />
  </g>
  <g
     inkscape:label="Visible"
     inkscape:groupmode="layer"
     id="layer1"
     transform="translate(-38,-392.36218)"
     style="display:inline">
    <g
       style="fill:#000000"
       clip-path="url(#clipPath2954)"
       transform="matrix(301.79721,0,0,301.79722,805.62529,338.62813)"
       id="g2908">
      <rect
         id="rect2910"
         x="-3.9025791"
         y="-1.0468012"
         width="1"
         height="1"
         style="fill:#000000;stroke:none" />
      <g
         id="g2912"
         transform="matrix(0.0017361,0,0,-0.0017361,-3.933829,0.14069875)"
         xml:space="preserve"
         stroke-miterlimit="10.433"
         font-style="normal"
         font-variant="normal"
         font-weight="normal"
         font-stretch="normal"
         font-size-adjust="none"
         letter-spacing="normal"
         word-spacing="normal"
         style="font-style:normal;font-variant:normal;font-weight:normal;font-stretch:normal;letter-spacing:normal;word-spacing:normal;text-anchor:start;fill:#000000;stroke:#000000;stroke-linecap:butt;stroke-linejoin:miter;stroke-miterlimit:10.43299961;stroke-opacity:1;stroke-dasharray:none;stroke-dashoffset:0">
<path
   d="m 2299.3,73.273 0,0.329 0.1,0.315 0.1,0.3 0.1,0.287 0.1,0.273 0.1,0.26 0.1,0.247 0.1,0.234 0.1,0.222 0.1,0.209 0.2,0.197 0.1,0.185 0.2,0.174 0.2,0.163 0.2,0.151 0.3,0.141 0.2,0.13 0.3,0.12 0.4,0.11 0.3,0.101 0.2,0.046 0.2,0.044 0.2,0.042 0.2,0.04 0.2,0.037 0.3,0.036 0.2,0.033 0.2,0.03 0.3,0.029 0.3,0.027 0.3,0.024 0.2,0.023 0.3,0.021 0.4,0.018 0.3,0.017 0.3,0.015 0.4,0.013 0.3,0.011 0.4,0.009 0.4,0.008 0.4,0.006 0.4,0.004 0.4,0.002 0.4,10e-4 c 3,0 3.8,0 3.8,1.891 0,1.195 -1.1,1.195 -1.6,1.195 h -28 c -0.7,0 -1.9,0 -1.9,-1.992 0,-1.094 0.9,-1.094 2.8,-1.094 0.2,0 2.1,0 3.8,-0.199 1.8,-0.199 2.7,-0.301 2.7,-1.594 0,-0.398 -0.1,-0.699 -0.4,-1.894 l -13.4,-53.5 c -1,-3.883 -1.2,-4.68 -9,-4.68 -1.7,0 -2.7,0 -2.7,-1.992 0,-1.098 0.9,-1.098 2.7,-1.098 h 46.1 c 2.4,0 2.5,0 3.1,1.695 l 7.9,21.516 c 0.4,1.098 0.4,1.297 0.4,1.398 0,0.399 -0.3,1.094 -1.2,1.094 -0.9,0 -1,-0.496 -1.7,-2.09 -3.4,-9.168 -7.8,-20.523 -25,-20.523 h -9.4 c -1.4,0 -1.6,0 -2.2,0.098 -1,0.101 -1.3,0.199 -1.3,0.996 0,0.3 0,0.5 0.5,2.293 z"
   id="path2914"
   style="fill:#000000;stroke-width:0" />
<path
   d="m 2366,20.246 0,1.414 -0.1,1.365 0,1.318 -0.1,1.275 -0.1,1.233 -0.2,1.194 -0.2,1.157 -0.2,1.121 -0.2,1.089 -0.3,1.059 -0.4,1.03 -0.3,1.004 -0.5,0.981 -0.4,0.959 -0.6,0.94 -0.2,0.464 -0.3,0.46 c -2.2,3.207 -6.5,5.996 -12.1,5.996 v -1.953 c 3.8,0 7.4,-2.301 8.6,-6.344 1.2,-3.766 1.2,-8.789 1.2,-14.856 0,-5.16 0,-10.32 -0.9,-14.7145 -1.4,-6.34375 -6.1,-7.8789 -8.9,-7.8789 h 0 c -3.2,0 -7.5,1.88281 -8.9,7.6016 -0.9,4.1128 -0.9,9.8318 -0.9,14.9918 0,5.09 0,10.391 1,14.227 1.5,5.512 5.9,6.973 8.8,6.973 v 1.953 c -16.2,0 -16.2,-19.035 -16.2,-24.059 0,-5.019 0,-23.6405 16.2,-23.6405 16.2,0 16.2,18.6215 16.2,23.6405 z"
   id="path2916"
   style="fill:#000000;stroke-width:0" />
<path
   d="m 2274.1,-260.7 0.2,0.53 0.2,0.52 0.2,0.49 0.2,0.48 0.2,0.47 0.3,0.45 0.2,0.43 0.2,0.42 0.3,0.41 0.3,0.39 0.2,0.37 0.3,0.37 0.6,0.68 0.5,0.63 0.6,0.59 0.7,0.53 0.6,0.49 0.6,0.45 0.7,0.4 0.6,0.36 0.6,0.33 0.7,0.29 0.6,0.26 0.6,0.22 0.6,0.2 0.6,0.17 0.5,0.14 0.6,0.12 0.5,0.1 0.4,0.08 0.5,0.06 0.4,0.05 0.4,0.03 0.3,0.03 0.3,0.01 0.2,0.01 0.2,0 0.1,0 c 15.1,0 16.2,-17.43 16.2,-25.31 0,-6.07 -0.5,-7.76 -1.2,-9.76 -2.2,-7.27 -5.2,-18.83 -5.2,-21.41 0,-1.1 0.5,-1.8 1.3,-1.8 1.3,0 2.1,2.19 3.2,5.98 2.3,8.37 3.3,14.05 3.7,17.14 0.2,1.29 0.4,2.59 0.8,3.88 3.1,9.86 9.5,24.71 13.5,32.58 0.7,1.19 1.9,3.38 1.9,3.78 0,1 -1,1 -1.2,1 -0.3,0 -0.9,0 -1.2,-0.7 -5.2,-9.46 -9.2,-19.43 -13.1,-29.49 -0.1,3.09 -0.2,10.66 -4.1,20.32 -2.4,6.08 -6.4,10.97 -13.3,10.97 -12.4,0 -19.4,-15.15 -19.4,-18.24 0,-0.99 0.9,-0.99 1.9,-0.99 z"
   id="path2918"
   style="fill:#000000;stroke-width:0" />
<path
   d="m 2358,-278.75 0,1.41 -0.1,1.36 0,1.32 -0.1,1.28 -0.1,1.23 -0.2,1.2 -0.2,1.15 -0.2,1.12 -0.2,1.09 -0.3,1.06 -0.4,1.03 -0.3,1.01 -0.5,0.98 -0.4,0.96 -0.6,0.94 -0.2,0.46 -0.3,0.46 c -2.2,3.21 -6.5,5.99 -12.1,5.99 v -1.95 c 3.8,0 7.4,-2.3 8.6,-6.34 1.2,-3.77 1.2,-8.79 1.2,-14.86 0,-5.16 0,-10.32 -0.9,-14.71 -1.4,-6.35 -6.1,-7.88 -8.9,-7.88 h 0 c -3.2,0 -7.5,1.88 -8.9,7.6 -0.9,4.11 -0.9,9.83 -0.9,14.99 0,5.09 0,10.39 1,14.23 1.5,5.51 5.9,6.97 8.8,6.97 v 1.95 c -16.2,0 -16.2,-19.03 -16.2,-24.05 0,-5.02 0,-23.64 16.2,-23.64 16.2,0 16.2,18.62 16.2,23.64 z"
   id="path2920"
   style="fill:#000000;stroke-width:0" />
<path
   d="m 2291.8,-577.23 -0.1,-0.36 0,-0.33 -0.1,-0.32 -0.1,-0.31 -0.1,-0.28 -0.1,-0.27 -0.1,-0.26 -0.1,-0.24 -0.1,-0.22 -0.1,-0.22 -0.2,-0.19 -0.1,-0.19 -0.2,-0.17 -0.1,-0.16 -0.2,-0.14 -0.2,-0.14 -0.2,-0.12 -0.3,-0.11 -0.3,-0.1 -0.3,-0.09 -0.3,-0.08 -0.2,-0.04 -0.1,-0.04 -0.2,-0.03 -0.2,-0.03 -0.2,-0.03 -0.2,-0.02 -0.3,-0.03 -0.2,-0.02 -0.2,-0.02 -0.3,-0.02 -0.2,-0.02 -0.3,-0.01 -0.2,-0.02 -0.3,-0.01 -0.3,-0.01 -0.3,-0.01 -0.3,0 -0.3,-0.01 -0.4,0 -0.3,-0.01 -0.4,0 -0.3,0 c -1.7,0 -2.8,0 -2.8,-1.89 0,-1.2 0.9,-1.2 2.8,-1.2 h 33 l -1.8,3.09 h -11.3 c -1.4,0 -1.6,0 -2.2,0.1 -1,0.1 -1.3,0.2 -1.3,0.99 0,0.3 0,0.5 0.5,2.3 l 13.7,54.69 c 0.9,3.49 1.1,3.79 5.3,3.79 h 10.7 c 9.8,0 18,-5.28 18,-18.44 0,-4.87 -2,-21.22 -10.4,-32.17 -2.9,-3.69 -10.8,-11.26 -23,-11.26 l 1.8,-3.09 c 20.7,0 40.3,21.02 40.3,42.84 0,14.05 -8.5,25.2 -23.4,25.2 h -33.5 c -1.9,0 -3,0 -3,-1.89 0,-1.19 0.9,-1.19 2.9,-1.19 1.3,0 3.1,-0.11 4.3,-0.2 1.6,-0.2 2.2,-0.5 2.2,-1.6 0,-0.39 -0.1,-0.69 -0.4,-1.89 z"
   id="path2922"
   style="fill:#000000;stroke-width:0" />
</g>    </g>
    <g
       id="g2924"
       transform="matrix(301.79721,0,0,301.79722,375.71833,456.80339)"
       clip-path="url(#clipPath2946)"
       style="fill:#000000">
      <rect
         style="fill:#000000;stroke:none"
         height="1"
         width="1"
         y="-1.0468012"
         x="-3.9025791"
         id="rect2926" />
      <g
         style="font-style:normal;font-variant:normal;font-weight:normal;font-stretch:normal;letter-spacing:normal;word-spacing:normal;text-anchor:start;fill:#000000;stroke:#000000;stroke-linecap:butt;stroke-linejoin:miter;stroke-miterlimit:10.43299961000000000;stroke-opacity:1;stroke-dasharray:none;stroke-dashoffset:0"
         word-spacing="normal"
         letter-spacing="normal"
         font-size-adjust="none"
         font-stretch="normal"
         font-weight="normal"
         font-variant="normal"
         font-style="normal"
         stroke-miterlimit="10.433"
         xml:space="preserve"
         transform="matrix(0.0017361,0,0,-0.0017361,-3.933829,0.14069875)"
         id="g2928">
<path
   style="fill:#000000;stroke-width:0"
   id="path2930"
   d="m 2299.3,73.273 0,0.329 0.1,0.315 0.1,0.3 0.1,0.287 0.1,0.273 0.1,0.26 0.1,0.247 0.1,0.234 0.1,0.222 0.1,0.209 0.2,0.197 0.1,0.185 0.2,0.174 0.2,0.163 0.2,0.151 0.3,0.141 0.2,0.13 0.3,0.12 0.4,0.11 0.3,0.101 0.2,0.046 0.2,0.044 0.2,0.042 0.2,0.04 0.2,0.037 0.3,0.036 0.2,0.033 0.2,0.03 0.3,0.029 0.3,0.027 0.3,0.024 0.2,0.023 0.3,0.021 0.4,0.018 0.3,0.017 0.3,0.015 0.4,0.013 0.3,0.011 0.4,0.009 0.4,0.008 0.4,0.006 0.4,0.004 0.4,0.002 0.4,10e-4 c 3,0 3.8,0 3.8,1.891 0,1.195 -1.1,1.195 -1.6,1.195 h -28 c -0.7,0 -1.9,0 -1.9,-1.992 0,-1.094 0.9,-1.094 2.8,-1.094 0.2,0 2.1,0 3.8,-0.199 1.8,-0.199 2.7,-0.301 2.7,-1.594 0,-0.398 -0.1,-0.699 -0.4,-1.894 l -13.4,-53.5 c -1,-3.883 -1.2,-4.68 -9,-4.68 -1.7,0 -2.7,0 -2.7,-1.992 0,-1.098 0.9,-1.098 2.7,-1.098 h 46.1 c 2.4,0 2.5,0 3.1,1.695 l 7.9,21.516 c 0.4,1.098 0.4,1.297 0.4,1.398 0,0.399 -0.3,1.094 -1.2,1.094 -0.9,0 -1,-0.496 -1.7,-2.09 -3.4,-9.168 -7.8,-20.523 -25,-20.523 h -9.4 c -1.4,0 -1.6,0 -2.2,0.098 -1,0.101 -1.3,0.199 -1.3,0.996 0,0.3 0,0.5 0.5,2.293 z" />
<path
   style="fill:#000000;stroke-width:0"
   id="path2932"
   d="m 2366,20.246 0,1.414 -0.1,1.365 0,1.318 -0.1,1.275 -0.1,1.233 -0.2,1.194 -0.2,1.157 -0.2,1.121 -0.2,1.089 -0.3,1.059 -0.4,1.03 -0.3,1.004 -0.5,0.981 -0.4,0.959 -0.6,0.94 -0.2,0.464 -0.3,0.46 c -2.2,3.207 -6.5,5.996 -12.1,5.996 v -1.953 c 3.8,0 7.4,-2.301 8.6,-6.344 1.2,-3.766 1.2,-8.789 1.2,-14.856 0,-5.16 0,-10.32 -0.9,-14.7145 -1.4,-6.34375 -6.1,-7.8789 -8.9,-7.8789 h 0 c -3.2,0 -7.5,1.88281 -8.9,7.6016 -0.9,4.1128 -0.9,9.8318 -0.9,14.9918 0,5.09 0,10.391 1,14.227 1.5,5.512 5.9,6.973 8.8,6.973 v 1.953 c -16.2,0 -16.2,-19.035 -16.2,-24.059 0,-5.019 0,-23.6405 16.2,-23.6405 16.2,0 16.2,18.6215 16.2,23.6405 z" />
<path
   style="fill:#000000;stroke-width:0"
   id="path2934"
   d="m 2274.1,-260.7 0.2,0.53 0.2,0.52 0.2,0.49 0.2,0.48 0.2,0.47 0.3,0.45 0.2,0.43 0.2,0.42 0.3,0.41 0.3,0.39 0.2,0.37 0.3,0.37 0.6,0.68 0.5,0.63 0.6,0.59 0.7,0.53 0.6,0.49 0.6,0.45 0.7,0.4 0.6,0.36 0.6,0.33 0.7,0.29 0.6,0.26 0.6,0.22 0.6,0.2 0.6,0.17 0.5,0.14 0.6,0.12 0.5,0.1 0.4,0.08 0.5,0.06 0.4,0.05 0.4,0.03 0.3,0.03 0.3,0.01 0.2,0.01 0.2,0 0.1,0 c 15.1,0 16.2,-17.43 16.2,-25.31 0,-6.07 -0.5,-7.76 -1.2,-9.76 -2.2,-7.27 -5.2,-18.83 -5.2,-21.41 0,-1.1 0.5,-1.8 1.3,-1.8 1.3,0 2.1,2.19 3.2,5.98 2.3,8.37 3.3,14.05 3.7,17.14 0.2,1.29 0.4,2.59 0.8,3.88 3.1,9.86 9.5,24.71 13.5,32.58 0.7,1.19 1.9,3.38 1.9,3.78 0,1 -1,1 -1.2,1 -0.3,0 -0.9,0 -1.2,-0.7 -5.2,-9.46 -9.2,-19.43 -13.1,-29.49 -0.1,3.09 -0.2,10.66 -4.1,20.32 -2.4,6.08 -6.4,10.97 -13.3,10.97 -12.4,0 -19.4,-15.15 -19.4,-18.24 0,-0.99 0.9,-0.99 1.9,-0.99 z" />
<path
   style="fill:#000000;stroke-width:0"
   id="path2936"
   d="m 2358,-278.75 0,1.41 -0.1,1.36 0,1.32 -0.1,1.28 -0.1,1.23 -0.2,1.2 -0.2,1.15 -0.2,1.12 -0.2,1.09 -0.3,1.06 -0.4,1.03 -0.3,1.01 -0.5,0.98 -0.4,0.96 -0.6,0.94 -0.2,0.46 -0.3,0.46 c -2.2,3.21 -6.5,5.99 -12.1,5.99 v -1.95 c 3.8,0 7.4,-2.3 8.6,-6.34 1.2,-3.77 1.2,-8.79 1.2,-14.86 0,-5.16 0,-10.32 -0.9,-14.71 -1.4,-6.35 -6.1,-7.88 -8.9,-7.88 h 0 c -3.2,0 -7.5,1.88 -8.9,7.6 -0.9,4.11 -0.9,9.83 -0.9,14.99 0,5.09 0,10.39 1,14.23 1.5,5.51 5.9,6.97 8.8,6.97 v 1.95 c -16.2,0 -16.2,-19.03 -16.2,-24.05 0,-5.02 0,-23.64 16.2,-23.64 16.2,0 16.2,18.62 16.2,23.64 z" />
<path
   style="fill:#000000;stroke-width:0"
   id="path2938"
   d="m 2291.8,-577.23 -0.1,-0.36 0,-0.33 -0.1,-0.32 -0.1,-0.31 -0.1,-0.28 -0.1,-0.27 -0.1,-0.26 -0.1,-0.24 -0.1,-0.22 -0.1,-0.22 -0.2,-0.19 -0.1,-0.19 -0.2,-0.17 -0.1,-0.16 -0.2,-0.14 -0.2,-0.14 -0.2,-0.12 -0.3,-0.11 -0.3,-0.1 -0.3,-0.09 -0.3,-0.08 -0.2,-0.04 -0.1,-0.04 -0.2,-0.03 -0.2,-0.03 -0.2,-0.03 -0.2,-0.02 -0.3,-0.03 -0.2,-0.02 -0.2,-0.02 -0.3,-0.02 -0.2,-0.02 -0.3,-0.01 -0.2,-0.02 -0.3,-0.01 -0.3,-0.01 -0.3,-0.01 -0.3,0 -0.3,-0.01 -0.4,0 -0.3,-0.01 -0.4,0 -0.3,0 c -1.7,0 -2.8,0 -2.8,-1.89 0,-1.2 0.9,-1.2 2.8,-1.2 h 33 l -1.8,3.09 h -11.3 c -1.4,0 -1.6,0 -2.2,0.1 -1,0.1 -1.3,0.2 -1.3,0.99 0,0.3 0,0.5 0.5,2.3 l 13.7,54.69 c 0.9,3.49 1.1,3.79 5.3,3.79 h 10.7 c 9.8,0 18,-5.28 18,-18.44 0,-4.87 -2,-21.22 -10.4,-32.17 -2.9,-3.69 -10.8,-11.26 -23,-11.26 l 1.8,-3.09 c 20.7,0 40.3,21.02 40.3,42.84 0,14.05 -8.5,25.2 -23.4,25.2 h -33.5 c -1.9,0 -3,0 -3,-1.89 0,-1.19 0.9,-1.19 2.9,-1.19 1.3,0 3.1,-0.11 4.3,-0.2 1.6,-0.2 2.2,-0.5 2.2,-1.6 0,-0.39 -0.1,-0.69 -0.4,-1.89 z" />
</g>    </g>
    <path
       style="fill:none;stroke:#000000;stroke-width:2;stroke-linecap:butt;stroke-linejoin:round;stroke-miterlimit:4;stroke-opacity:1;stroke-dasharray:none;stroke-dashoffset:0"
       d="m 140,365 -80,0"
       id="path3656"
       transform="translate(0,307.36218)" />
    <path
       id="path2876"
       transform="translate(0,307.36218)"
       style="fill:#b3b3b3;fill-opacity:1;stroke:#000000;stroke-width:2;stroke-linecap:butt;stroke-linejoin:round;stroke-miterlimit:4;stroke-opacity:1;stroke-dasharray:none;stroke-dashoffset:0"
       d="m 280,465 -140,0 c -11.04569,0 -20,-44.77153 -20,-100 0,-55.22847 8.95431,-100 20,-100 l 140,0 c -11.54569,0 -20,44.77153 -20,100 0,55.22847 8.95431,100 20,100 z"
       sodipodi:nodetypes="ccsccsc" />
    <path
       style="fill:none;stroke:#000000;stroke-width:2;stroke-linecap:butt;stroke-linejoin:round;stroke-miterlimit:4;stroke-opacity:1;stroke-dasharray:none;stroke-dashoffset:0"
       d="M 880,115 280,365 880,615"
       id="path3658"
       transform="translate(0,307.36218)" />
    <path
       style="fill:none;stroke:#000000;stroke-width:2;stroke-linecap:butt;stroke-linejoin:round;stroke-miterlimit:4;stroke-opacity:1;stroke-dasharray:24, 24;stroke-dashoffset:0"
       d="m 300,265 939,0"
       id="path3660"
       transform="translate(0,307.36218)"
       sodipodi:nodetypes="cc" />
    <path
       style="fill:none;stroke:#000000;stroke-width:2;stroke-linecap:butt;stroke-linejoin:round;stroke-miterlimit:4;stroke-opacity:1;stroke-dasharray:24, 24;stroke-dashoffset:0"
       d="m 300,465 939,0"
       id="path3662"
       transform="translate(0,307.36218)"
       sodipodi:nodetypes="cc" />
    <path
       style="fill:none;stroke:#000000;stroke-width:2;stroke-linecap:butt;stroke-linejoin:round;stroke-miterlimit:4;stroke-opacity:1;stroke-dasharray:16, 4, 2, 4;stroke-dashoffset:0"
       d="m 520,145 0,560"
       id="path3664"
       transform="translate(0,307.36218)" />
    <path
       style="fill:none;stroke:#000000;stroke-width:2;stroke-linecap:butt;stroke-linejoin:round;stroke-miterlimit:4;stroke-opacity:1;stroke-dasharray:16, 4, 2, 4;stroke-dashoffset:0"
       d="m 280,562.36218 0,-110"
       id="path3666"
       sodipodi:nodetypes="cc" />
    <path
       style="fill:none;stroke:#000000;stroke-width:2;stroke-linecap:butt;stroke-linejoin:round;stroke-miterlimit:4;stroke-opacity:1;stroke-dasharray:none;stroke-dashoffset:0"
       d="m 300,205 200,0"
       id="path3668"
       transform="translate(0,307.36218)"
       sodipodi:nodetypes="cc" />
    <path
       style="fill:#000000;fill-opacity:1;stroke:#000000;stroke-width:2;stroke-linecap:butt;stroke-linejoin:round;stroke-miterlimit:4;stroke-opacity:1;stroke-dasharray:none;stroke-dashoffset:0;display:inline"
       d="m 515,512.36218 -40,-10 5,10 -5,10 40,-10 z"
       id="path3674-7"
       sodipodi:nodetypes="ccccc" />
    <path
       style="fill:#000000;fill-opacity:1;stroke:#000000;stroke-width:2;stroke-linecap:butt;stroke-linejoin:round;stroke-miterlimit:4;stroke-opacity:1;stroke-dasharray:none;stroke-dashoffset:0;display:inline"
       d="m 285,512.36218 40,-10 -5,10 5,10 -40,-10 z"
       id="path3674-7-2"
       sodipodi:nodetypes="ccccc" />
    <path
       style="fill:none;stroke:#000000;stroke-width:2;stroke-linecap:butt;stroke-linejoin:round;stroke-miterlimit:4;stroke-opacity:1;stroke-dasharray:none;stroke-dashoffset:0"
       d="m 800,592.36218 0,160"
       id="path3670" />
    <path
       style="fill:#000000;fill-opacity:1;stroke:#000000;stroke-width:2;stroke-linecap:butt;stroke-linejoin:round;stroke-miterlimit:4;stroke-opacity:1;stroke-dasharray:none;stroke-dashoffset:0;display:inline"
       d="m 800,577.36218 10,40 -10,-5 -10,5 10,-40 z"
       id="path3674-7-5"
       sodipodi:nodetypes="ccccc" />
    <path
       style="fill:#000000;fill-opacity:1;stroke:#000000;stroke-width:2;stroke-linecap:butt;stroke-linejoin:round;stroke-miterlimit:4;stroke-opacity:1;stroke-dasharray:none;stroke-dashoffset:0;display:inline"
       d="m 800,767.36218 10,-40 -10,5 -10,-5 10,40 z"
       id="path3674-7-1"
       sodipodi:nodetypes="ccccc" />
    <text
       xml:space="preserve"
       style="font-size:48px;font-style:normal;font-variant:normal;font-weight:normal;font-stretch:normal;text-align:center;line-height:125%;writing-mode:lr-tb;text-anchor:middle;fill:#000000;fill-opacity:1;stroke:none;font-family:Calibri;-inkscape-font-specification:Calibri"
       x="198.07813"
       y="832.36218"
       id="text3845"
       sodipodi:linespacing="125%"><tspan
         sodipodi:role="line"
         id="tspan3847"
         x="198.07813"
         y="832.36218">Transductor</tspan></text>
    <text
       xml:space="preserve"
       style="font-size:48px;font-style:normal;font-variant:normal;font-weight:normal;font-stretch:normal;text-align:center;line-height:125%;writing-mode:lr-tb;text-anchor:middle;fill:#000000;fill-opacity:1;stroke:none;font-family:Calibri;-inkscape-font-specification:Calibri"
       x="368.71875"
       y="932.36218"
       id="text3849"
       sodipodi:linespacing="125%"><tspan
         sodipodi:role="line"
         id="tspan3851"
         x="368.71875"
         y="932.36218">Campo</tspan><tspan
         sodipodi:role="line"
         x="368.71875"
         y="992.36218"
         id="tspan3853">próximo</tspan></text>
    <text
       xml:space="preserve"
       style="font-size:48px;font-style:normal;font-variant:normal;font-weight:normal;font-stretch:normal;text-align:center;line-height:125%;writing-mode:lr-tb;text-anchor:middle;fill:#000000;fill-opacity:1;stroke:none;font-family:Calibri;-inkscape-font-specification:Calibri"
       x="668.71875"
       y="932.36218"
       id="text3855"
       sodipodi:linespacing="125%"><tspan
         sodipodi:role="line"
         id="tspan3857"
         x="668.71875"
         y="932.36218">Campo</tspan><tspan
         sodipodi:role="line"
         x="668.71875"
         y="992.36218"
         id="tspan3859">lejano</tspan></text>
    <path
       sodipodi:type="arc"
       style="fill:none;stroke:#000000;stroke-width:2;stroke-linecap:butt;stroke-linejoin:round;stroke-miterlimit:4;stroke-opacity:1;stroke-dasharray:16, 4, 2, 4;stroke-dashoffset:0"
       id="path3866"
       sodipodi:cx="520"
       sodipodi:cy="265"
       sodipodi:rx="150"
       sodipodi:ry="150"
       d="m 658.1954,206.67306 c 7.77812,18.42889 11.7917,38.22736 11.80457,58.23044"
       transform="translate(0,307.36218)"
       sodipodi:start="5.8838063"
       sodipodi:end="6.282542"
       sodipodi:open="true" />
    <path
       sodipodi:type="arc"
       style="fill:none;stroke:#000000;stroke-width:2;stroke-miterlimit:4;stroke-dasharray:none"
       id="path2877"
       sodipodi:cx="242"
       sodipodi:cy="280"
       sodipodi:rx="20"
       sodipodi:ry="100"
       d="m 262,280 c 0,55.22847 -8.95431,100 -20,100 -11.04569,0 -20,-44.77153 -20,-100 0,-55.22847 8.95431,-100 20,-100 11.04569,0 20,44.77153 20,100 z"
       transform="translate(38,392.36218)" />
    <g
       id="g2877"
       transform="matrix(301.79721,0,0,301.79722,680.84678,351.67219)"
       clip-path="url(#clipPath2950)"
       style="fill:#000000">
      <rect
         style="fill:#000000;stroke:none"
         height="1"
         width="1"
         y="-1.0468012"
         x="-3.9025791"
         id="background" />
      <g
         style="font-style:normal;font-variant:normal;font-weight:normal;font-stretch:normal;letter-spacing:normal;word-spacing:normal;text-anchor:start;fill:#000000;stroke:#000000;stroke-linecap:butt;stroke-linejoin:miter;stroke-miterlimit:10.43299961;stroke-opacity:1;stroke-dasharray:none;stroke-dashoffset:0"
         word-spacing="normal"
         letter-spacing="normal"
         font-size-adjust="none"
         font-stretch="normal"
         font-weight="normal"
         font-variant="normal"
         font-style="normal"
         stroke-miterlimit="10.433"
         xml:space="preserve"
         transform="matrix(0.0017361,0,0,-0.0017361,-3.933829,0.14069875)"
         id="content">
<path
   style="fill:#000000;stroke-width:0"
   id="path9"
   d="m 2299.3,73.273 0,0.329 0.1,0.315 0.1,0.3 0.1,0.287 0.1,0.273 0.1,0.26 0.1,0.247 0.1,0.234 0.1,0.222 0.1,0.209 0.2,0.197 0.1,0.185 0.2,0.174 0.2,0.163 0.2,0.151 0.3,0.141 0.2,0.13 0.3,0.12 0.4,0.11 0.3,0.101 0.2,0.046 0.2,0.044 0.2,0.042 0.2,0.04 0.2,0.037 0.3,0.036 0.2,0.033 0.2,0.03 0.3,0.029 0.3,0.027 0.3,0.024 0.2,0.023 0.3,0.021 0.4,0.018 0.3,0.017 0.3,0.015 0.4,0.013 0.3,0.011 0.4,0.009 0.4,0.008 0.4,0.006 0.4,0.004 0.4,0.002 0.4,10e-4 c 3,0 3.8,0 3.8,1.891 0,1.195 -1.1,1.195 -1.6,1.195 h -28 c -0.7,0 -1.9,0 -1.9,-1.992 0,-1.094 0.9,-1.094 2.8,-1.094 0.2,0 2.1,0 3.8,-0.199 1.8,-0.199 2.7,-0.301 2.7,-1.594 0,-0.398 -0.1,-0.699 -0.4,-1.894 l -13.4,-53.5 c -1,-3.883 -1.2,-4.68 -9,-4.68 -1.7,0 -2.7,0 -2.7,-1.992 0,-1.098 0.9,-1.098 2.7,-1.098 h 46.1 c 2.4,0 2.5,0 3.1,1.695 l 7.9,21.516 c 0.4,1.098 0.4,1.297 0.4,1.398 0,0.399 -0.3,1.094 -1.2,1.094 -0.9,0 -1,-0.496 -1.7,-2.09 -3.4,-9.168 -7.8,-20.523 -25,-20.523 h -9.4 c -1.4,0 -1.6,0 -2.2,0.098 -1,0.101 -1.3,0.199 -1.3,0.996 0,0.3 0,0.5 0.5,2.293 z" />
<path
   style="fill:#000000;stroke-width:0"
   id="path11"
   d="m 2366,20.246 0,1.414 -0.1,1.365 0,1.318 -0.1,1.275 -0.1,1.233 -0.2,1.194 -0.2,1.157 -0.2,1.121 -0.2,1.089 -0.3,1.059 -0.4,1.03 -0.3,1.004 -0.5,0.981 -0.4,0.959 -0.6,0.94 -0.2,0.464 -0.3,0.46 c -2.2,3.207 -6.5,5.996 -12.1,5.996 v -1.953 c 3.8,0 7.4,-2.301 8.6,-6.344 1.2,-3.766 1.2,-8.789 1.2,-14.856 0,-5.16 0,-10.32 -0.9,-14.7145 -1.4,-6.34375 -6.1,-7.8789 -8.9,-7.8789 h 0 c -3.2,0 -7.5,1.88281 -8.9,7.6016 -0.9,4.1128 -0.9,9.8318 -0.9,14.9918 0,5.09 0,10.391 1,14.227 1.5,5.512 5.9,6.973 8.8,6.973 v 1.953 c -16.2,0 -16.2,-19.035 -16.2,-24.059 0,-5.019 0,-23.6405 16.2,-23.6405 16.2,0 16.2,18.6215 16.2,23.6405 z" />
<path
   style="fill:#000000;stroke-width:0"
   id="path13"
   d="m 2274.1,-260.7 0.2,0.53 0.2,0.52 0.2,0.49 0.2,0.48 0.2,0.47 0.3,0.45 0.2,0.43 0.2,0.42 0.3,0.41 0.3,0.39 0.2,0.37 0.3,0.37 0.6,0.68 0.5,0.63 0.6,0.59 0.7,0.53 0.6,0.49 0.6,0.45 0.7,0.4 0.6,0.36 0.6,0.33 0.7,0.29 0.6,0.26 0.6,0.22 0.6,0.2 0.6,0.17 0.5,0.14 0.6,0.12 0.5,0.1 0.4,0.08 0.5,0.06 0.4,0.05 0.4,0.03 0.3,0.03 0.3,0.01 0.2,0.01 0.2,0 0.1,0 c 15.1,0 16.2,-17.43 16.2,-25.31 0,-6.07 -0.5,-7.76 -1.2,-9.76 -2.2,-7.27 -5.2,-18.83 -5.2,-21.41 0,-1.1 0.5,-1.8 1.3,-1.8 1.3,0 2.1,2.19 3.2,5.98 2.3,8.37 3.3,14.05 3.7,17.14 0.2,1.29 0.4,2.59 0.8,3.88 3.1,9.86 9.5,24.71 13.5,32.58 0.7,1.19 1.9,3.38 1.9,3.78 0,1 -1,1 -1.2,1 -0.3,0 -0.9,0 -1.2,-0.7 -5.2,-9.46 -9.2,-19.43 -13.1,-29.49 -0.1,3.09 -0.2,10.66 -4.1,20.32 -2.4,6.08 -6.4,10.97 -13.3,10.97 -12.4,0 -19.4,-15.15 -19.4,-18.24 0,-0.99 0.9,-0.99 1.9,-0.99 z" />
<path
   style="fill:#000000;stroke-width:0"
   id="path15"
   d="m 2358,-278.75 0,1.41 -0.1,1.36 0,1.32 -0.1,1.28 -0.1,1.23 -0.2,1.2 -0.2,1.15 -0.2,1.12 -0.2,1.09 -0.3,1.06 -0.4,1.03 -0.3,1.01 -0.5,0.98 -0.4,0.96 -0.6,0.94 -0.2,0.46 -0.3,0.46 c -2.2,3.21 -6.5,5.99 -12.1,5.99 v -1.95 c 3.8,0 7.4,-2.3 8.6,-6.34 1.2,-3.77 1.2,-8.79 1.2,-14.86 0,-5.16 0,-10.32 -0.9,-14.71 -1.4,-6.35 -6.1,-7.88 -8.9,-7.88 h 0 c -3.2,0 -7.5,1.88 -8.9,7.6 -0.9,4.11 -0.9,9.83 -0.9,14.99 0,5.09 0,10.39 1,14.23 1.5,5.51 5.9,6.97 8.8,6.97 v 1.95 c -16.2,0 -16.2,-19.03 -16.2,-24.05 0,-5.02 0,-23.64 16.2,-23.64 16.2,0 16.2,18.62 16.2,23.64 z" />
<path
   style="fill:#000000;stroke-width:0"
   id="path17"
   d="m 2291.8,-577.23 -0.1,-0.36 0,-0.33 -0.1,-0.32 -0.1,-0.31 -0.1,-0.28 -0.1,-0.27 -0.1,-0.26 -0.1,-0.24 -0.1,-0.22 -0.1,-0.22 -0.2,-0.19 -0.1,-0.19 -0.2,-0.17 -0.1,-0.16 -0.2,-0.14 -0.2,-0.14 -0.2,-0.12 -0.3,-0.11 -0.3,-0.1 -0.3,-0.09 -0.3,-0.08 -0.2,-0.04 -0.1,-0.04 -0.2,-0.03 -0.2,-0.03 -0.2,-0.03 -0.2,-0.02 -0.3,-0.03 -0.2,-0.02 -0.2,-0.02 -0.3,-0.02 -0.2,-0.02 -0.3,-0.01 -0.2,-0.02 -0.3,-0.01 -0.3,-0.01 -0.3,-0.01 -0.3,0 -0.3,-0.01 -0.4,0 -0.3,-0.01 -0.4,0 -0.3,0 c -1.7,0 -2.8,0 -2.8,-1.89 0,-1.2 0.9,-1.2 2.8,-1.2 h 33 l -1.8,3.09 h -11.3 c -1.4,0 -1.6,0 -2.2,0.1 -1,0.1 -1.3,0.2 -1.3,0.99 0,0.3 0,0.5 0.5,2.3 l 13.7,54.69 c 0.9,3.49 1.1,3.79 5.3,3.79 h 10.7 c 9.8,0 18,-5.28 18,-18.44 0,-4.87 -2,-21.22 -10.4,-32.17 -2.9,-3.69 -10.8,-11.26 -23,-11.26 l 1.8,-3.09 c 20.7,0 40.3,21.02 40.3,42.84 0,14.05 -8.5,25.2 -23.4,25.2 h -33.5 c -1.9,0 -3,0 -3,-1.89 0,-1.19 0.9,-1.19 2.9,-1.19 1.3,0 3.1,-0.11 4.3,-0.2 1.6,-0.2 2.2,-0.5 2.2,-1.6 0,-0.39 -0.1,-0.69 -0.4,-1.89 z" />
</g>    </g>
  </g>
</svg>
