<?xml version="1.0" encoding="UTF-8" standalone="no"?>
<svg
   xmlns:dc="http://purl.org/dc/elements/1.1/"
   xmlns:cc="http://creativecommons.org/ns#"
   xmlns:rdf="http://www.w3.org/1999/02/22-rdf-syntax-ns#"
   xmlns:svg="http://www.w3.org/2000/svg"
   xmlns="http://www.w3.org/2000/svg"
   xmlns:sodipodi="http://sodipodi.sourceforge.net/DTD/sodipodi-0.dtd"
   xmlns:inkscape="http://www.inkscape.org/namespaces/inkscape"
   version="1.1"
   id="body"
   width="36.324768"
   height="276.12503"
   viewBox="0 0 0.050451067 0.38350699"
   preserveAspectRatio="none"
   inkscape:version="0.47 r22583"
   sodipodi:docname="chapter03-06.svg">
  <metadata
     id="metadata75">
    <rdf:RDF>
      <cc:Work
         rdf:about="">
        <dc:format>image/svg+xml</dc:format>
        <dc:type
           rdf:resource="http://purl.org/dc/dcmitype/StillImage" />
      </cc:Work>
    </rdf:RDF>
  </metadata>
  <defs
     id="defs73">
    <inkscape:perspective
       sodipodi:type="inkscape:persp3d"
       inkscape:vp_x="0 : 360 : 1"
       inkscape:vp_y="0 : 1000 : 0"
       inkscape:vp_z="720 : 360 : 1"
       inkscape:persp3d-origin="360 : 240 : 1"
       id="perspective77" />
    <clipPath
       clipPathUnits="userSpaceOnUse"
       id="clipPath2887">
      <rect
         style="fill:none;stroke:#000000;stroke-width:0.80000573px;stroke-linecap:butt;stroke-linejoin:miter;stroke-opacity:1"
         id="rect2889"
         width="35.825733"
         height="222.10182"
         x="279.14447"
         y="-703.83038"
         transform="scale(1,-1)" />
    </clipPath>
  </defs>
  <sodipodi:namedview
     pagecolor="#ffffff"
     bordercolor="#666666"
     borderopacity="1"
     objecttolerance="10"
     gridtolerance="10"
     guidetolerance="10"
     inkscape:pageopacity="0"
     inkscape:pageshadow="2"
     inkscape:window-width="1280"
     inkscape:window-height="968"
     id="namedview71"
     showgrid="false"
     inkscape:snap-grids="true"
     inkscape:snap-to-guides="true"
     inkscape:zoom="2.6183791"
     inkscape:cx="18.162384"
     inkscape:cy="138.06251"
     inkscape:window-x="-4"
     inkscape:window-y="-4"
     inkscape:window-maximized="1"
     inkscape:current-layer="body">
    <inkscape:grid
       type="xygrid"
       id="grid2885"
       empspacing="5"
       visible="true"
       enabled="true"
       snapvisiblegridlinesonly="true" />
  </sodipodi:namedview>
  <title
     id="title3">SVG drawing</title>
  <desc
     id="desc5">This was produced by version 4.4 of GNU libplot, a free library for exporting 2-D vector graphics.</desc>
  <g
     id="content"
     transform="matrix(0.0017361,0,0,-0.0017361,-0.49027464,1.2198359)"
     xml:space="preserve"
     stroke-miterlimit="10.433"
     font-style="normal"
     font-variant="normal"
     font-weight="normal"
     font-stretch="normal"
     font-size-adjust="none"
     letter-spacing="normal"
     word-spacing="normal"
     style="font-style:normal;font-variant:normal;font-weight:normal;font-stretch:normal;letter-spacing:normal;word-spacing:normal;text-anchor:start;fill:none;stroke:#000000;stroke-linecap:butt;stroke-linejoin:miter;stroke-miterlimit:10.43299961;stroke-opacity:1;stroke-dasharray:none;stroke-dashoffset:0"
     clip-path="url(#clipPath2887)">
<path
   d="m 290.75,696.35 0,0.07 0,0.08 0,0.06 -0.01,0.07 -0.01,0.13 -0.02,0.13 -0.02,0.12 -0.03,0.11 -0.03,0.11 -0.03,0.1 -0.04,0.1 -0.04,0.09 -0.05,0.09 -0.05,0.08 -0.05,0.07 -0.06,0.07 -0.05,0.07 -0.06,0.06 -0.06,0.06 -0.07,0.05 -0.06,0.05 -0.07,0.05 -0.07,0.04 -0.07,0.03 -0.07,0.03 -0.07,0.03 -0.07,0.03 -0.07,0.02 -0.08,0.01 -0.07,0.02 -0.07,0.01 -0.07,0.01 -0.07,0 -0.07,0 -0.01,-0.22 c 0.99,0 0.99,-1.3 0.99,-2.08 0,-0.37 0,-0.94 0.02,-1.12 h 0 c -0.88,-0.76 -1.65,-0.87 -2.05,-0.87 -0.59,0 -0.9,0.45 -0.9,1.09 0,0.48 0.27,1.56 0.58,2.07 0.47,0.73 1.01,0.91 1.36,0.91 l 0.01,0.22 c -1.37,0 -2.68,-1.42 -2.68,-2.83 0,-0.92 0.6,-1.68 1.61,-1.68 0.63,0 1.35,0.23 2.1,0.84 0.13,-0.53 0.46,-0.84 0.91,-0.84 0.53,0 0.84,0.55 0.84,0.71 0,0.07 -0.06,0.1 -0.12,0.1 -0.07,0 -0.1,-0.03 -0.13,-0.1 -0.18,-0.49 -0.54,-0.49 -0.56,-0.49 -0.31,0 -0.31,0.78 -0.31,1.01 0,0.22 0,0.23 0.1,0.35 0.94,1.18 1.15,2.33 1.15,2.35 0,0.02 -0.01,0.09 -0.12,0.09 -0.1,0 -0.1,-0.02 -0.15,-0.2 -0.18,-0.63 -0.51,-1.39 -0.98,-1.98 z"
   id="path9"
   style="fill:#000000;stroke-width:0" />
<path
   d="m 296.38,701.09 0,0.01 0,0.01 0,0 0,0.01 0.01,0 0,0.01 0,0.01 0,0.01 0.01,0.01 0,0.01 0,0 0,0.01 0.01,0.01 0,0.01 0,0 0,0.01 0,0.01 0,0 0.01,0.01 0,0 0,0.01 0,0 0,0.01 0,0 0,0 0,0.01 0,0 0,0 0,0 0,0.01 0,0 0,0 0,0 0,0 0,0 c 0,0.11 -0.09,0.2 -0.2,0.2 -0.06,0 -0.13,-0.03 -0.17,-0.09 l -3.45,-9.49 c -0.05,-0.13 -0.05,-0.17 -0.05,-0.18 0,-0.11 0.09,-0.2 0.2,-0.2 0.13,0 0.16,0.07 0.21,0.24 z"
   id="path11"
   style="fill:#000000;stroke-width:0" />
<path
   d="m 300.66,697.98 h 0.85 c 0.2,0 0.3,0 0.3,0.2 0,0.11 -0.1,0.11 -0.27,0.11 h -0.83 l 0.22,1.14 c 0.03,0.21 0.18,0.92 0.23,1.04 0.09,0.19 0.26,0.33 0.47,0.33 0.04,0 0.3,0 0.49,-0.18 -0.44,-0.03 -0.54,-0.38 -0.54,-0.53 0,-0.23 0.18,-0.35 0.37,-0.35 0.26,0 0.55,0.22 0.55,0.6 0,0.45 -0.46,0.68 -0.87,0.68 -0.34,0 -0.96,-0.18 -1.26,-1.16 -0.06,-0.21 -0.09,-0.31 -0.33,-1.57 h -0.69 c -0.19,0 -0.3,0 -0.3,-0.19 0,-0.12 0.09,-0.12 0.28,-0.12 h 0.66 l -0.75,-3.93 c -0.18,-0.97 -0.35,-1.87 -0.86,-1.87 -0.04,0 -0.29,0 -0.48,0.17 0.46,0.04 0.55,0.4 0.55,0.55 0,0.22 -0.18,0.34 -0.38,0.34 -0.25,0 -0.54,-0.22 -0.54,-0.59 0,-0.45 0.43,-0.69 0.85,-0.69 0.54,0 0.94,0.59 1.12,0.97 0.32,0.62 0.55,1.83 0.56,1.9 z"
   id="path13"
   style="fill:#000000;stroke-width:0" />
<path
   d="m 306.52,699.27 h -0.23 c -0.02,-0.15 -0.09,-0.57 -0.19,-0.64 -0.05,-0.04 -0.59,-0.04 -0.69,-0.04 h -1.28 c 0.73,0.65 0.98,0.85 1.39,1.18 0.52,0.41 1,0.84 1,1.5 0,0.84 -0.74,1.36 -1.63,1.36 -0.87,0 -1.45,-0.61 -1.45,-1.25 0,-0.35 0.3,-0.39 0.37,-0.39 0.17,0 0.37,0.12 0.37,0.37 0,0.13 -0.05,0.37 -0.41,0.37 0.21,0.5 0.69,0.65 1.02,0.65 0.69,0 1.05,-0.54 1.05,-1.11 0,-0.61 -0.43,-1.09 -0.65,-1.34 l -1.68,-1.66 c -0.07,-0.06 -0.07,-0.07 -0.07,-0.27 h 2.87 z"
   id="path15"
   style="fill:#000000;stroke-width:0" />
<path
   d="m 283.59,664.78 -0.01,-0.04 -0.01,-0.03 -0.01,-0.03 -0.01,-0.04 -0.01,-0.02 -0.01,-0.03 -0.01,-0.03 -0.01,-0.02 -0.01,-0.02 -0.01,-0.02 -0.01,-0.02 -0.02,-0.02 -0.01,-0.02 -0.02,-0.02 -0.02,-0.01 -0.02,-0.01 -0.02,-0.02 -0.03,-0.01 -0.03,-0.01 -0.03,-0.01 -0.03,0 -0.02,-0.01 -0.01,0 -0.02,0 -0.02,-0.01 -0.02,0 -0.02,0 -0.03,-0.01 -0.02,0 -0.02,0 -0.03,0 -0.02,0 -0.03,0 -0.02,-0.01 -0.03,0 -0.03,0 -0.03,0 -0.03,0 -0.03,0 -0.04,0 -0.03,0 -0.04,0 -0.03,0 c -0.17,0 -0.28,0 -0.28,-0.19 0,-0.12 0.09,-0.12 0.28,-0.12 h 3.3 l -0.18,0.31 h -1.13 c -0.14,0 -0.16,0 -0.22,0.01 -0.1,0.01 -0.13,0.02 -0.13,0.1 0,0.03 0,0.05 0.05,0.23 l 1.36,5.47 c 0.09,0.35 0.11,0.38 0.54,0.38 h 1.07 c 0.98,0 1.8,-0.53 1.8,-1.85 0,-0.49 -0.19,-2.12 -1.04,-3.22 -0.29,-0.36 -1.08,-1.12 -2.3,-1.12 l 0.18,-0.31 c 2.07,0 4.03,2.1 4.03,4.28 0,1.41 -0.85,2.52 -2.34,2.52 h -3.35 c -0.19,0 -0.3,0 -0.3,-0.19 0,-0.11 0.09,-0.11 0.29,-0.11 0.13,0 0.31,-0.02 0.43,-0.02 0.16,-0.02 0.22,-0.05 0.22,-0.16 0,-0.04 -0.01,-0.07 -0.04,-0.19 z"
   id="path17"
   style="fill:#000000;stroke-width:0" />
<path
   d="m 299.17,669.22 0.01,0.01 0.01,0 0.01,0.01 0.01,0 0.01,0.01 0.01,0.01 0.01,0 0.01,0.01 0.01,0 0.01,0.01 0,0 0.01,0.01 0.01,0.01 0.01,0 0,0.01 0.01,0 0.01,0.01 0,0.01 0.01,0 0,0.01 0.01,0.01 0,0 0.01,0.01 0,0.01 0.01,0.01 0,0 0,0.01 0,0.01 0,0.01 0.01,0.01 0,0.01 0,0.01 c 0,0.14 -0.11,0.2 -0.2,0.2 -0.07,0 -0.14,-0.04 -0.18,-0.06 l -5.25,-2.87 c -0.12,-0.07 -0.19,-0.1 -0.19,-0.22 0,-0.12 0.07,-0.15 0.19,-0.22 l 5.24,-2.86 c 0.12,-0.07 0.15,-0.07 0.19,-0.07 0.13,0 0.2,0.1 0.2,0.2 0,0.11 -0.08,0.15 -0.2,0.22 l -5.01,2.73 z"
   id="path19"
   style="fill:#000000;stroke-width:0" />
<path
   d="m 302.21,669.22 0.01,0.01 0.01,0 0.01,0.01 0.01,0 0.01,0.01 0.01,0.01 0.01,0 0.01,0.01 0.01,0 0.01,0.01 0,0 0.01,0.01 0.01,0.01 0.01,0 0,0.01 0.01,0 0.01,0.01 0,0.01 0.01,0 0,0.01 0.01,0.01 0,0 0.01,0.01 0,0.01 0,0.01 0.01,0 0,0.01 0,0.01 0,0.01 0.01,0.01 0,0.01 0,0.01 c 0,0.14 -0.11,0.2 -0.2,0.2 -0.07,0 -0.14,-0.04 -0.18,-0.06 l -5.25,-2.87 c -0.12,-0.07 -0.19,-0.1 -0.19,-0.22 0,-0.12 0.07,-0.15 0.19,-0.22 l 5.24,-2.86 c 0.12,-0.07 0.14,-0.07 0.19,-0.07 0.13,0 0.2,0.1 0.2,0.2 0,0.11 -0.09,0.15 -0.2,0.22 l -5.01,2.73 z"
   id="path21"
   style="fill:#000000;stroke-width:0" />
<path
   d="m 309.56,666.91 0.04,-0.1 0.04,-0.1 0.07,-0.21 0.08,-0.22 0.08,-0.22 0.08,-0.22 0.07,-0.22 0.08,-0.21 0.04,-0.1 0.03,-0.11 0.04,-0.1 0.03,-0.09 0.04,-0.1 0.03,-0.09 0.03,-0.09 0.03,-0.08 0.03,-0.08 0.03,-0.07 0.03,-0.07 0.02,-0.07 0.02,-0.05 0.03,-0.06 0.02,-0.04 0.02,-0.04 0.02,-0.04 0.01,-0.02 c 0.16,-0.22 0.26,-0.22 0.53,-0.22 h 0.22 c 0.1,0.01 0.11,0.07 0.11,0.1 0,0.03 -0.02,0.05 -0.05,0.09 -0.1,0.11 -0.16,0.26 -0.23,0.46 l -2.03,5.67 c -0.21,0.57 -0.75,0.7 -1.22,0.7 -0.05,0 -0.18,0 -0.18,-0.11 0,-0.07 0.08,-0.1 0.09,-0.1 0.33,-0.05 0.4,-0.11 0.65,-0.79 l 0.97,-2.71 -2.75,-2.73 c -0.12,-0.12 -0.18,-0.18 -0.18,-0.31 0,-0.17 0.14,-0.29 0.3,-0.29 0.15,0 0.24,0.11 0.33,0.21 z"
   id="path23"
   style="fill:#000000;stroke-width:0" />
<path
   d="m 289.89,638.73 -0.02,0 -0.03,-0.01 -0.02,0 -0.03,-0.01 -0.02,0 -0.02,-0.01 -0.02,-0.01 -0.03,-0.01 -0.02,-0.01 -0.02,-0.01 -0.02,-0.01 -0.02,-0.01 -0.02,-0.02 -0.01,-0.01 -0.02,-0.02 -0.02,-0.01 -0.01,-0.02 -0.02,-0.01 -0.01,-0.02 -0.01,-0.02 -0.02,-0.02 -0.01,-0.01 -0.01,-0.02 -0.01,-0.02 0,-0.02 -0.01,-0.02 -0.01,-0.02 0,-0.02 -0.01,-0.02 0,-0.02 0,-0.02 0,-0.02 c 0,-0.14 0.09,-0.29 0.31,-0.29 0.22,0 0.45,0.17 0.45,0.56 0,0.45 -0.42,0.85 -1.18,0.85 -1.32,0 -1.68,-1.01 -1.68,-1.45 0,-0.78 0.73,-0.93 1.02,-0.99 0.52,-0.1 1.04,-0.21 1.04,-0.75 0,-0.26 -0.23,-1.1 -1.43,-1.1 -0.14,0 -0.9,0 -1.13,0.53 0.38,-0.05 0.63,0.25 0.63,0.52 0,0.24 -0.16,0.36 -0.38,0.36 -0.25,0 -0.55,-0.22 -0.55,-0.67 0,-0.56 0.57,-0.96 1.42,-0.96 1.62,0 2.01,1.21 2.01,1.65 0,0.36 -0.19,0.61 -0.31,0.73 -0.27,0.28 -0.56,0.33 -1,0.42 -0.36,0.08 -0.76,0.15 -0.76,0.6 0,0.29 0.24,0.89 1.12,0.89 0.25,0 0.75,-0.07 0.89,-0.45 z"
   id="path25"
   style="fill:#000000;stroke-width:0" />
<path
   d="m 292.34,637.43 0,0.01 0,0.01 0,0.01 0,0.01 0,0.01 0,0 0,0.01 0,0.01 -0.01,0 0,0.01 0,0.01 0,0 0,0.01 0,0 0,0.01 0,0.01 0,0 0,0 0,0.01 0,0 -0.01,0.01 0,0.01 0,0.01 -0.01,0 0,0.01 0,0 -0.01,0.01 -0.01,0 0,0 -0.01,0.01 -0.01,0 -0.01,0 0,0 -0.01,0 0,0 -0.01,0.01 0,0 -0.01,0 0,0 -0.01,0 -0.01,0 0,0 -0.01,0 -0.01,0 0,0 -0.01,0 -0.01,0 -0.01,0 0,0 -0.01,0 -0.01,0 -0.01,0 c -0.45,-0.44 -1.08,-0.45 -1.37,-0.45 v -0.25 c 0.17,0 0.63,0 1.01,0.2 v -3.56 c 0,-0.23 0,-0.32 -0.7,-0.32 h -0.26 V 633 h 2.49 v 0.25 h -0.26 c -0.7,0 -0.7,0.09 -0.7,0.32 z"
   id="path27"
   style="fill:#000000;stroke-width:0" />
<path
   d="m 296.59,635.78 -0.01,-0.04 -0.01,-0.03 -0.01,-0.03 -0.01,-0.04 -0.01,-0.02 -0.01,-0.03 -0.01,-0.03 -0.01,-0.02 -0.01,-0.02 -0.01,-0.02 -0.01,-0.02 -0.02,-0.02 -0.01,-0.02 -0.02,-0.02 -0.02,-0.01 -0.02,-0.01 -0.02,-0.02 -0.03,-0.01 -0.03,-0.01 -0.03,-0.01 -0.03,0 -0.02,-0.01 -0.01,0 -0.02,0 -0.02,-0.01 -0.02,0 -0.02,0 -0.03,-0.01 -0.02,0 -0.02,0 -0.03,0 -0.02,0 -0.03,0 -0.02,-0.01 -0.03,0 -0.03,0 -0.03,0 -0.03,0 -0.03,0 -0.04,0 -0.03,0 -0.04,0 -0.03,0 c -0.17,0 -0.28,0 -0.28,-0.19 0,-0.12 0.09,-0.12 0.28,-0.12 h 3.3 l -0.18,0.31 h -1.13 c -0.14,0 -0.16,0 -0.22,0.01 -0.1,0.01 -0.13,0.02 -0.13,0.1 0,0.03 0,0.05 0.05,0.23 l 1.36,5.47 c 0.09,0.35 0.11,0.38 0.54,0.38 h 1.07 c 0.98,0 1.8,-0.53 1.8,-1.85 0,-0.49 -0.19,-2.12 -1.04,-3.22 -0.29,-0.36 -1.08,-1.12 -2.3,-1.12 l 0.18,-0.31 c 2.07,0 4.03,2.1 4.03,4.28 0,1.41 -0.85,2.52 -2.34,2.52 h -3.35 c -0.19,0 -0.3,0 -0.3,-0.19 0,-0.11 0.09,-0.11 0.29,-0.11 0.13,0 0.31,-0.02 0.43,-0.02 0.16,-0.02 0.22,-0.05 0.22,-0.16 0,-0.04 -0.01,-0.07 -0.04,-0.19 z"
   id="path29"
   style="fill:#000000;stroke-width:0" />
<path
   d="m 304.9,641.33 0.05,0 0.05,-0.01 0.05,0 0.05,-0.01 0.05,-0.01 0.04,-0.01 0.05,-0.02 0.04,-0.01 0.04,-0.02 0.04,-0.02 0.04,-0.02 0.04,-0.03 0.04,-0.03 0.03,-0.03 0.03,-0.03 0.04,-0.03 0.03,-0.04 0.03,-0.04 0.02,-0.04 0.03,-0.04 0.02,-0.05 0.02,-0.04 0.02,-0.05 0.02,-0.05 0.02,-0.06 0.01,-0.05 0.01,-0.06 0.01,-0.06 0.01,-0.06 0.01,-0.07 0,-0.06 0,-0.07 c 0,-0.87 -0.5,-1.13 -0.91,-1.13 -0.28,0 -0.89,0.08 -1.18,0.49 0.32,0.02 0.4,0.25 0.4,0.39 0,0.23 -0.17,0.39 -0.38,0.39 -0.2,0 -0.39,-0.12 -0.39,-0.41 0,-0.66 0.72,-1.08 1.57,-1.08 0.96,0 1.64,0.65 1.64,1.35 0,0.54 -0.45,1.08 -1.22,1.24 0.73,0.27 1,0.79 1,1.22 0,0.55 -0.64,0.96 -1.41,0.96 -0.77,0 -1.37,-0.38 -1.37,-0.93 0,-0.24 0.16,-0.37 0.37,-0.37 0.21,0 0.35,0.16 0.35,0.35 0,0.2 -0.14,0.35 -0.35,0.36 0.24,0.31 0.72,0.39 0.98,0.39 0.31,0 0.75,-0.16 0.75,-0.76 0,-0.29 -0.1,-0.62 -0.28,-0.83 -0.23,-0.27 -0.42,-0.28 -0.77,-0.3 -0.18,-0.02 -0.19,-0.02 -0.23,-0.02 -0.01,0 -0.06,-0.02 -0.06,-0.09 0,-0.1 0.06,-0.1 0.18,-0.1 z"
   id="path31"
   style="fill:#000000;stroke-width:0" />
<path
   d="m 284.59,605.78 -0.01,-0.04 -0.01,-0.03 -0.01,-0.03 -0.01,-0.04 -0.01,-0.02 -0.01,-0.03 -0.01,-0.03 -0.01,-0.02 -0.01,-0.02 -0.01,-0.02 -0.01,-0.02 -0.02,-0.02 -0.01,-0.02 -0.02,-0.02 -0.02,-0.01 -0.02,-0.01 -0.02,-0.02 -0.03,-0.01 -0.03,-0.01 -0.03,-0.01 -0.03,0 -0.02,-0.01 -0.01,0 -0.02,0 -0.02,-0.01 -0.02,0 -0.02,0 -0.03,-0.01 -0.02,0 -0.02,0 -0.03,0 -0.02,0 -0.03,0 -0.02,-0.01 -0.03,0 -0.03,0 -0.03,0 -0.03,0 -0.03,0 -0.04,0 -0.03,0 -0.04,0 -0.03,0 c -0.17,0 -0.28,0 -0.28,-0.19 0,-0.12 0.09,-0.12 0.28,-0.12 h 3.3 l -0.18,0.31 h -1.13 c -0.14,0 -0.16,0 -0.22,0.01 -0.1,0.01 -0.13,0.02 -0.13,0.1 0,0.03 0,0.05 0.05,0.23 l 1.36,5.47 c 0.09,0.35 0.11,0.38 0.54,0.38 h 1.07 c 0.98,0 1.8,-0.53 1.8,-1.85 0,-0.49 -0.19,-2.12 -1.04,-3.22 -0.29,-0.36 -1.08,-1.12 -2.3,-1.12 l 0.18,-0.31 c 2.07,0 4.03,2.1 4.03,4.28 0,1.41 -0.85,2.52 -2.34,2.52 h -3.35 c -0.19,0 -0.3,0 -0.3,-0.19 0,-0.11 0.09,-0.11 0.29,-0.11 0.13,0 0.31,-0.02 0.43,-0.02 0.16,-0.02 0.22,-0.05 0.22,-0.16 0,-0.04 -0.01,-0.07 -0.04,-0.19 z"
   id="path33"
   style="fill:#000000;stroke-width:0" />
<path
   d="m 301.19,609.3 0,0.03 0,0.01 0,0.02 0,0.02 0,0.02 -0.01,0.01 0,0.02 0,0.02 0,0.01 -0.01,0.01 0,0.02 0,0.01 -0.01,0.01 0,0.01 -0.01,0.01 0,0.01 -0.01,0.01 0,0.01 -0.01,0.01 0,0 -0.01,0.01 0,0.01 -0.01,0 0,0.01 -0.01,0 -0.01,0 0,0.01 -0.01,0 -0.01,0 0,0 -0.01,0 -0.01,0 c -0.03,0 -0.12,-0.04 -0.14,-0.27 -0.03,-0.82 -0.73,-1.29 -1.38,-1.29 -0.6,0 -1.08,0.35 -1.6,0.75 -0.52,0.42 -1.05,0.82 -1.72,0.82 -0.98,0 -1.66,-0.87 -1.66,-1.81 0,-0.3 0.13,-0.31 0.14,-0.31 0.11,0 0.14,0.2 0.14,0.23 0.05,0.98 0.84,1.34 1.38,1.34 0.6,0 1.08,-0.35 1.59,-0.75 0.53,-0.42 1.06,-0.83 1.73,-0.83 0.97,0 1.66,0.88 1.66,1.81 z"
   id="path35"
   style="fill:#000000;stroke-width:0" />
<path
   d="m 294.91,605.76 -0.03,0 -0.04,0 -0.03,0 -0.01,0 -0.02,-0.01 -0.01,0 -0.02,0 -0.01,0 -0.02,0 -0.01,-0.01 -0.02,0 -0.01,0 -0.01,-0.01 -0.02,0 -0.01,-0.01 -0.01,0 -0.01,-0.01 -0.01,-0.01 -0.01,-0.01 -0.01,-0.01 -0.01,-0.01 0,0 -0.01,-0.01 0,0 0,-0.01 -0.01,-0.01 0,0 0,-0.01 0,-0.01 -0.01,0 0,-0.01 0,-0.01 0,-0.01 0,0 0,-0.01 0,-0.01 0,-0.01 c 0,-0.2 0.18,-0.2 0.35,-0.2 h 5.94 c 0.18,0 0.35,0 0.35,0.2 0,0.2 -0.19,0.2 -0.35,0.2 z"
   id="path37"
   style="fill:#000000;stroke-width:0" />
<path
   d="m 308.56,607.91 0.04,-0.1 0.04,-0.1 0.07,-0.21 0.08,-0.22 0.08,-0.22 0.08,-0.22 0.07,-0.22 0.08,-0.21 0.04,-0.1 0.03,-0.11 0.04,-0.1 0.03,-0.09 0.04,-0.1 0.03,-0.09 0.03,-0.09 0.03,-0.08 0.03,-0.08 0.03,-0.07 0.03,-0.07 0.02,-0.07 0.02,-0.05 0.03,-0.06 0.02,-0.04 0.02,-0.04 0.02,-0.04 0.01,-0.02 c 0.16,-0.22 0.26,-0.22 0.53,-0.22 h 0.22 c 0.1,0.01 0.11,0.07 0.11,0.1 0,0.03 -0.02,0.05 -0.05,0.09 -0.1,0.11 -0.16,0.26 -0.23,0.46 l -2.03,5.67 c -0.21,0.57 -0.75,0.7 -1.22,0.7 -0.05,0 -0.18,0 -0.18,-0.11 0,-0.07 0.08,-0.1 0.09,-0.1 0.33,-0.05 0.4,-0.11 0.65,-0.79 l 0.97,-2.71 -2.75,-2.73 c -0.12,-0.12 -0.18,-0.18 -0.18,-0.31 0,-0.17 0.14,-0.29 0.3,-0.29 0.15,0 0.24,0.11 0.33,0.21 z"
   id="path39"
   style="fill:#000000;stroke-width:0" />
<path
   d="m 291.89,578.73 -0.02,0 -0.03,-0.01 -0.02,0 -0.03,-0.01 -0.02,0 -0.02,-0.01 -0.02,-0.01 -0.03,-0.01 -0.02,-0.01 -0.02,-0.01 -0.02,-0.01 -0.02,-0.01 -0.02,-0.02 -0.01,-0.01 -0.02,-0.02 -0.02,-0.01 -0.01,-0.02 -0.02,-0.01 -0.01,-0.02 -0.01,-0.02 -0.02,-0.02 -0.01,-0.01 -0.01,-0.02 -0.01,-0.02 0,-0.02 -0.01,-0.02 -0.01,-0.02 0,-0.02 -0.01,-0.02 0,-0.02 0,-0.02 0,-0.02 c 0,-0.14 0.09,-0.29 0.31,-0.29 0.22,0 0.45,0.17 0.45,0.56 0,0.45 -0.42,0.85 -1.18,0.85 -1.32,0 -1.68,-1.01 -1.68,-1.45 0,-0.78 0.73,-0.93 1.02,-0.99 0.52,-0.1 1.04,-0.21 1.04,-0.75 0,-0.26 -0.23,-1.1 -1.43,-1.1 -0.14,0 -0.9,0 -1.13,0.53 0.38,-0.05 0.63,0.25 0.63,0.52 0,0.24 -0.16,0.36 -0.38,0.36 -0.25,0 -0.55,-0.22 -0.55,-0.67 0,-0.56 0.57,-0.96 1.42,-0.96 1.62,0 2.01,1.21 2.01,1.65 0,0.36 -0.19,0.61 -0.31,0.73 -0.27,0.28 -0.56,0.33 -1,0.42 -0.36,0.08 -0.76,0.15 -0.76,0.6 0,0.29 0.24,0.89 1.12,0.89 0.25,0 0.75,-0.07 0.89,-0.45 z"
   id="path41"
   style="fill:#000000;stroke-width:0" />
<path
   d="m 296.52,574.27 h -0.23 c -0.02,-0.15 -0.09,-0.57 -0.19,-0.64 -0.05,-0.04 -0.59,-0.04 -0.69,-0.04 h -1.28 c 0.73,0.65 0.98,0.85 1.39,1.18 0.52,0.41 1,0.84 1,1.5 0,0.84 -0.74,1.36 -1.63,1.36 -0.87,0 -1.45,-0.61 -1.45,-1.25 0,-0.35 0.3,-0.39 0.37,-0.39 0.17,0 0.37,0.12 0.37,0.37 0,0.13 -0.05,0.37 -0.41,0.37 0.21,0.5 0.69,0.65 1.02,0.65 0.69,0 1.05,-0.54 1.05,-1.11 0,-0.61 -0.43,-1.09 -0.65,-1.34 l -1.68,-1.66 c -0.07,-0.06 -0.07,-0.07 -0.07,-0.27 h 2.87 z"
   id="path43"
   style="fill:#000000;stroke-width:0" />
<path
   d="m 298.59,575.78 -0.01,-0.04 -0.01,-0.03 -0.01,-0.03 -0.01,-0.04 -0.01,-0.02 -0.01,-0.03 -0.01,-0.03 -0.01,-0.02 -0.01,-0.02 -0.01,-0.02 -0.01,-0.02 -0.02,-0.02 -0.01,-0.02 -0.02,-0.02 -0.02,-0.01 -0.02,-0.01 -0.02,-0.02 -0.03,-0.01 -0.03,-0.01 -0.03,-0.01 -0.03,0 -0.02,-0.01 -0.01,0 -0.02,0 -0.02,-0.01 -0.02,0 -0.02,0 -0.03,-0.01 -0.02,0 -0.02,0 -0.03,0 -0.02,0 -0.03,0 -0.02,-0.01 -0.03,0 -0.03,0 -0.03,0 -0.03,0 -0.03,0 -0.04,0 -0.03,0 -0.04,0 -0.03,0 c -0.17,0 -0.28,0 -0.28,-0.19 0,-0.12 0.09,-0.12 0.28,-0.12 h 3.3 l -0.18,0.31 h -1.13 c -0.14,0 -0.16,0 -0.22,0.01 -0.1,0.01 -0.13,0.02 -0.13,0.1 0,0.03 0,0.05 0.05,0.23 l 1.36,5.47 c 0.09,0.35 0.11,0.38 0.54,0.38 h 1.07 c 0.98,0 1.8,-0.53 1.8,-1.85 0,-0.49 -0.19,-2.12 -1.04,-3.22 -0.29,-0.36 -1.08,-1.12 -2.3,-1.12 l 0.18,-0.31 c 2.07,0 4.03,2.1 4.03,4.28 0,1.41 -0.85,2.52 -2.34,2.52 h -3.35 c -0.19,0 -0.3,0 -0.3,-0.19 0,-0.11 0.09,-0.11 0.29,-0.11 0.13,0 0.31,-0.02 0.43,-0.02 0.16,-0.02 0.22,-0.05 0.22,-0.16 0,-0.04 -0.01,-0.07 -0.04,-0.19 z"
   id="path45"
   style="fill:#000000;stroke-width:0" />
<path
   d="m 284.59,545.78 -0.01,-0.04 -0.01,-0.03 -0.01,-0.03 -0.01,-0.04 -0.01,-0.02 -0.01,-0.03 -0.01,-0.03 -0.01,-0.02 -0.01,-0.02 -0.01,-0.02 -0.01,-0.02 -0.02,-0.02 -0.01,-0.02 -0.02,-0.02 -0.02,-0.01 -0.02,-0.01 -0.02,-0.02 -0.03,-0.01 -0.03,-0.01 -0.03,-0.01 -0.03,0 -0.02,-0.01 -0.01,0 -0.02,0 -0.02,-0.01 -0.02,0 -0.02,0 -0.03,-0.01 -0.02,0 -0.02,0 -0.03,0 -0.02,0 -0.03,0 -0.02,-0.01 -0.03,0 -0.03,0 -0.03,0 -0.03,0 -0.03,0 -0.04,0 -0.03,0 -0.04,0 -0.03,0 c -0.17,0 -0.28,0 -0.28,-0.19 0,-0.12 0.09,-0.12 0.28,-0.12 h 3.3 l -0.18,0.31 h -1.13 c -0.14,0 -0.16,0 -0.22,0.01 -0.1,0.01 -0.13,0.02 -0.13,0.1 0,0.03 0,0.05 0.05,0.23 l 1.36,5.47 c 0.09,0.35 0.11,0.38 0.54,0.38 h 1.07 c 0.98,0 1.8,-0.53 1.8,-1.85 0,-0.49 -0.19,-2.12 -1.04,-3.22 -0.29,-0.36 -1.08,-1.12 -2.3,-1.12 l 0.18,-0.31 c 2.07,0 4.03,2.1 4.03,4.28 0,1.41 -0.85,2.52 -2.34,2.52 h -3.35 c -0.19,0 -0.3,0 -0.3,-0.19 0,-0.11 0.09,-0.11 0.29,-0.11 0.13,0 0.31,-0.02 0.43,-0.02 0.16,-0.02 0.22,-0.05 0.22,-0.16 0,-0.04 -0.01,-0.07 -0.04,-0.19 z"
   id="path47"
   style="fill:#000000;stroke-width:0" />
<path
   d="m 300.73,547.27 0.02,0.01 0.01,0 0.01,0.01 0.01,0 0,0.01 0.01,0 0.01,0.01 0.01,0 0.01,0.01 0.01,0 0,0.01 0.01,0.01 0.01,0 0.01,0.01 0,0 0.01,0.01 0,0.01 0.01,0 0,0.01 0.01,0.01 0,0.01 0.01,0 0,0.01 0,0.01 0.01,0.01 0,0.01 0,0.01 0,0.01 0,0.01 0,0.01 0,0.01 c 0,0.12 -0.07,0.17 -0.18,0.22 l -5.52,2.6 c -0.14,0.07 -0.16,0.07 -0.18,0.07 -0.11,0 -0.2,-0.09 -0.2,-0.2 0,-0.09 0.05,-0.15 0.19,-0.22 l 5.23,-2.47 -5.23,-2.47 c -0.14,-0.07 -0.19,-0.13 -0.19,-0.22 0,-0.11 0.09,-0.2 0.2,-0.2 0.02,0 0.04,0 0.18,0.07 z"
   id="path49"
   style="fill:#000000;stroke-width:0" />
<path
   d="m 308.56,547.91 0.04,-0.1 0.04,-0.1 0.07,-0.21 0.08,-0.22 0.08,-0.22 0.08,-0.22 0.07,-0.22 0.08,-0.21 0.04,-0.1 0.03,-0.11 0.04,-0.1 0.03,-0.09 0.04,-0.1 0.03,-0.09 0.03,-0.09 0.03,-0.08 0.03,-0.08 0.03,-0.07 0.03,-0.07 0.02,-0.07 0.02,-0.05 0.03,-0.06 0.02,-0.04 0.02,-0.04 0.02,-0.04 0.01,-0.02 c 0.16,-0.22 0.26,-0.22 0.53,-0.22 h 0.22 c 0.1,0.01 0.11,0.07 0.11,0.1 0,0.03 -0.02,0.05 -0.05,0.09 -0.1,0.11 -0.16,0.26 -0.23,0.46 l -2.03,5.67 c -0.21,0.57 -0.75,0.7 -1.22,0.7 -0.05,0 -0.18,0 -0.18,-0.11 0,-0.07 0.08,-0.1 0.09,-0.1 0.33,-0.05 0.4,-0.11 0.65,-0.79 l 0.97,-2.71 -2.75,-2.73 c -0.12,-0.12 -0.18,-0.18 -0.18,-0.31 0,-0.17 0.14,-0.29 0.3,-0.29 0.15,0 0.24,0.11 0.33,0.21 z"
   id="path51"
   style="fill:#000000;stroke-width:0" />
<path
   d="m 295.89,525.73 -0.02,0 -0.03,-0.01 -0.02,0 -0.03,-0.01 -0.02,0 -0.02,-0.01 -0.02,-0.01 -0.03,-0.01 -0.02,-0.01 -0.02,-0.01 -0.02,-0.01 -0.02,-0.01 -0.02,-0.02 -0.01,-0.01 -0.02,-0.02 -0.02,-0.01 -0.01,-0.02 -0.02,-0.01 -0.01,-0.02 -0.01,-0.02 -0.02,-0.02 -0.01,-0.01 -0.01,-0.02 -0.01,-0.02 0,-0.02 -0.01,-0.02 -0.01,-0.02 0,-0.02 -0.01,-0.02 0,-0.02 0,-0.02 0,-0.02 c 0,-0.14 0.09,-0.29 0.31,-0.29 0.22,0 0.45,0.17 0.45,0.56 0,0.45 -0.42,0.85 -1.18,0.85 -1.32,0 -1.68,-1.01 -1.68,-1.45 0,-0.78 0.73,-0.93 1.02,-0.99 0.52,-0.1 1.04,-0.21 1.04,-0.75 0,-0.26 -0.23,-1.1 -1.43,-1.1 -0.14,0 -0.9,0 -1.13,0.53 0.38,-0.05 0.63,0.25 0.63,0.52 0,0.24 -0.16,0.36 -0.38,0.36 -0.25,0 -0.55,-0.22 -0.55,-0.67 0,-0.56 0.57,-0.96 1.42,-0.96 1.62,0 2.01,1.21 2.01,1.65 0,0.36 -0.19,0.61 -0.31,0.73 -0.27,0.28 -0.56,0.33 -1,0.42 -0.36,0.08 -0.76,0.15 -0.76,0.6 0,0.29 0.24,0.89 1.12,0.89 0.25,0 0.75,-0.07 0.89,-0.45 z"
   id="path53"
   style="fill:#000000;stroke-width:0" />
<path
   d="m 298.9,522.33 0.05,0 0.05,-0.01 0.05,0 0.05,-0.01 0.05,-0.01 0.04,-0.01 0.05,-0.02 0.04,-0.01 0.04,-0.02 0.04,-0.02 0.04,-0.02 0.04,-0.03 0.04,-0.03 0.03,-0.03 0.03,-0.03 0.04,-0.03 0.03,-0.04 0.03,-0.04 0.02,-0.04 0.03,-0.04 0.02,-0.05 0.02,-0.04 0.02,-0.05 0.02,-0.05 0.02,-0.06 0.01,-0.05 0.01,-0.06 0.01,-0.06 0.01,-0.06 0.01,-0.07 0,-0.06 0,-0.07 c 0,-0.87 -0.5,-1.13 -0.91,-1.13 -0.28,0 -0.89,0.08 -1.18,0.49 0.32,0.02 0.4,0.25 0.4,0.39 0,0.23 -0.17,0.39 -0.38,0.39 -0.2,0 -0.39,-0.12 -0.39,-0.41 0,-0.66 0.72,-1.08 1.57,-1.08 0.96,0 1.64,0.65 1.64,1.35 0,0.54 -0.45,1.08 -1.22,1.24 0.73,0.27 1,0.79 1,1.22 0,0.55 -0.64,0.96 -1.41,0.96 -0.77,0 -1.37,-0.38 -1.37,-0.93 0,-0.24 0.16,-0.37 0.37,-0.37 0.21,0 0.35,0.16 0.35,0.35 0,0.2 -0.14,0.35 -0.35,0.36 0.24,0.31 0.72,0.39 0.98,0.39 0.31,0 0.75,-0.16 0.75,-0.76 0,-0.29 -0.1,-0.62 -0.28,-0.83 -0.23,-0.27 -0.42,-0.28 -0.77,-0.3 -0.18,-0.02 -0.19,-0.02 -0.23,-0.02 -0.01,0 -0.06,-0.02 -0.06,-0.09 0,-0.1 0.06,-0.1 0.18,-0.1 z"
   id="path55"
   style="fill:#000000;stroke-width:0" />
<polyline
   points="287,517 305.96,517 305.96,517.48 287,517.48 "
   id="polyline57"
   style="fill:#000000;fill-rule:nonzero;stroke-width:0" />
<path
   d="m 288.59,508.78 -0.01,-0.04 -0.01,-0.03 -0.01,-0.03 -0.01,-0.04 -0.01,-0.02 -0.01,-0.03 -0.01,-0.03 -0.01,-0.02 -0.01,-0.02 -0.01,-0.02 -0.01,-0.02 -0.02,-0.02 -0.01,-0.02 -0.02,-0.02 -0.02,-0.01 -0.02,-0.01 -0.02,-0.02 -0.03,-0.01 -0.03,-0.01 -0.03,-0.01 -0.03,0 -0.02,-0.01 -0.01,0 -0.02,0 -0.02,-0.01 -0.02,0 -0.02,0 -0.03,-0.01 -0.02,0 -0.02,0 -0.03,0 -0.02,0 -0.03,0 -0.02,-0.01 -0.03,0 -0.03,0 -0.03,0 -0.03,0 -0.03,0 -0.04,0 -0.03,0 -0.04,0 -0.03,0 c -0.17,0 -0.28,0 -0.28,-0.19 0,-0.12 0.09,-0.12 0.28,-0.12 h 3.3 l -0.18,0.31 h -1.13 c -0.14,0 -0.16,0 -0.22,0.01 -0.1,0.01 -0.13,0.02 -0.13,0.1 0,0.03 0,0.05 0.05,0.23 l 1.36,5.47 c 0.09,0.35 0.11,0.38 0.54,0.38 h 1.07 c 0.98,0 1.8,-0.53 1.8,-1.85 0,-0.49 -0.19,-2.12 -1.04,-3.22 -0.29,-0.36 -1.08,-1.12 -2.3,-1.12 l 0.18,-0.31 c 2.07,0 4.03,2.1 4.03,4.28 0,1.41 -0.85,2.52 -2.34,2.52 h -3.35 c -0.19,0 -0.3,0 -0.3,-0.19 0,-0.11 0.09,-0.11 0.29,-0.11 0.13,0 0.31,-0.02 0.43,-0.02 0.16,-0.02 0.22,-0.05 0.22,-0.16 0,-0.04 -0.01,-0.07 -0.04,-0.19 z"
   id="path59"
   style="fill:#000000;stroke-width:0" />
<path
   d="m 299.66,511.98 h 0.85 c 0.2,0 0.3,0 0.3,0.2 0,0.11 -0.1,0.11 -0.27,0.11 h -0.83 l 0.22,1.14 c 0.03,0.21 0.18,0.92 0.23,1.04 0.09,0.19 0.26,0.33 0.47,0.33 0.04,0 0.3,0 0.49,-0.18 -0.44,-0.03 -0.54,-0.38 -0.54,-0.53 0,-0.23 0.18,-0.35 0.37,-0.35 0.26,0 0.55,0.22 0.55,0.6 0,0.45 -0.46,0.68 -0.87,0.68 -0.34,0 -0.96,-0.18 -1.26,-1.16 -0.06,-0.21 -0.09,-0.31 -0.33,-1.57 h -0.69 c -0.19,0 -0.3,0 -0.3,-0.19 0,-0.12 0.09,-0.12 0.28,-0.12 h 0.66 l -0.75,-3.93 c -0.18,-0.97 -0.35,-1.87 -0.86,-1.87 -0.04,0 -0.29,0 -0.48,0.18 0.46,0.03 0.55,0.39 0.55,0.53 0,0.23 -0.18,0.35 -0.38,0.35 -0.25,0 -0.54,-0.22 -0.54,-0.6 0,-0.44 0.43,-0.68 0.85,-0.68 0.54,0 0.94,0.59 1.12,0.97 0.32,0.62 0.55,1.83 0.56,1.9 z"
   id="path61"
   style="fill:#000000;stroke-width:0" />
<path
   d="m 305.52,512.27 h -0.23 c -0.02,-0.15 -0.09,-0.57 -0.19,-0.64 -0.05,-0.04 -0.59,-0.04 -0.69,-0.04 h -1.28 c 0.73,0.65 0.98,0.85 1.39,1.18 0.52,0.41 1,0.84 1,1.5 0,0.84 -0.74,1.36 -1.63,1.36 -0.87,0 -1.45,-0.61 -1.45,-1.25 0,-0.35 0.3,-0.39 0.37,-0.39 0.17,0 0.37,0.12 0.37,0.37 0,0.13 -0.05,0.37 -0.41,0.37 0.21,0.5 0.69,0.65 1.02,0.65 0.69,0 1.05,-0.54 1.05,-1.11 0,-0.61 -0.43,-1.09 -0.65,-1.34 l -1.68,-1.66 c -0.07,-0.06 -0.07,-0.07 -0.07,-0.27 h 2.87 z"
   id="path63"
   style="fill:#000000;stroke-width:0" />
<path
   d="m 294.66,488.98 h 0.85 c 0.2,0 0.3,0 0.3,0.2 0,0.11 -0.1,0.11 -0.27,0.11 h -0.83 l 0.22,1.14 c 0.03,0.21 0.18,0.92 0.23,1.03 0.09,0.2 0.26,0.34 0.47,0.34 0.04,0 0.3,0 0.49,-0.18 -0.44,-0.03 -0.54,-0.38 -0.54,-0.53 0,-0.23 0.18,-0.35 0.37,-0.35 0.26,0 0.55,0.22 0.55,0.6 0,0.45 -0.46,0.68 -0.87,0.68 -0.34,0 -0.96,-0.18 -1.26,-1.16 -0.06,-0.21 -0.09,-0.31 -0.33,-1.57 h -0.69 c -0.19,0 -0.3,0 -0.3,-0.18 0,-0.13 0.09,-0.13 0.28,-0.13 h 0.66 l -0.75,-3.93 c -0.18,-0.97 -0.35,-1.87 -0.86,-1.87 -0.04,0 -0.29,0 -0.48,0.18 0.46,0.03 0.55,0.39 0.55,0.53 0,0.23 -0.18,0.35 -0.38,0.35 -0.25,0 -0.54,-0.22 -0.54,-0.6 0,-0.44 0.43,-0.68 0.85,-0.68 0.54,0 0.94,0.59 1.12,0.97 0.32,0.62 0.55,1.83 0.56,1.9 z"
   id="path65"
   style="fill:#000000;stroke-width:0" />
<path
   d="m 300.52,490.27 h -0.23 c -0.02,-0.15 -0.09,-0.57 -0.19,-0.64 -0.05,-0.04 -0.59,-0.04 -0.69,-0.04 h -1.28 c 0.73,0.65 0.98,0.85 1.39,1.18 0.52,0.41 1,0.84 1,1.5 0,0.84 -0.74,1.36 -1.63,1.36 -0.87,0 -1.45,-0.61 -1.45,-1.25 0,-0.35 0.3,-0.39 0.37,-0.39 0.17,0 0.37,0.12 0.37,0.37 0,0.13 -0.05,0.37 -0.41,0.37 0.21,0.5 0.69,0.65 1.02,0.65 0.69,0 1.05,-0.54 1.05,-1.11 0,-0.61 -0.43,-1.09 -0.65,-1.34 l -1.68,-1.66 c -0.07,-0.06 -0.07,-0.07 -0.07,-0.27 h 2.87 z"
   id="path67"
   style="fill:#000000;stroke-width:0" />
<path
   d="m 296.93,97.375 0,0.011 0,0.011 0,0.01 0,0.01 0,0.01 0,0.01 0,0.009 0,0.009 0,0.008 0,0.009 0,0.008 0,0.008 0,0.007 0,0.008 0,0.007 0,0.006 -0.01,0.013 0,0.012 0,0.011 0,0.011 -0.01,0.009 0,0.008 0,0.008 -0.01,0.007 0,0.007 -0.01,0.005 -0.01,0.005 -0.01,0.005 -0.01,0.004 0,0.001 -0.01,0.002 0,0.002 -0.01,10e-4 0,0.001 -0.01,0.001 0,10e-4 -0.01,0.001 -0.01,0.001 0,10e-4 -0.01,0.001 -0.01,0 -0.01,0.001 0,0 -0.01,10e-4 -0.01,0 -0.01,0 -0.01,0 -0.01,0.001 -0.01,0 -0.01,0 -0.01,0 c -0.62,-0.641 -1.49,-0.641 -1.81,-0.641 v -0.308 c 0.2,0 0.78,0 1.3,0.261 v -5.164 c 0,-0.355 -0.03,-0.476 -0.92,-0.476 h -0.32 V 91 h 3.23 v 0.309 h -0.32 c -0.9,0 -0.93,0.109 -0.93,0.476 z"
   id="path69"
   style="fill:#000000;stroke-width:0" />
</g></svg>
