<?xml version="1.0" encoding="UTF-8" standalone="no"?>
<!-- Created with Inkscape (http://www.inkscape.org/) -->

<svg
   xmlns:dc="http://purl.org/dc/elements/1.1/"
   xmlns:cc="http://creativecommons.org/ns#"
   xmlns:rdf="http://www.w3.org/1999/02/22-rdf-syntax-ns#"
   xmlns:svg="http://www.w3.org/2000/svg"
   xmlns="http://www.w3.org/2000/svg"
   xmlns:xlink="http://www.w3.org/1999/xlink"
   xmlns:sodipodi="http://sodipodi.sourceforge.net/DTD/sodipodi-0.dtd"
   xmlns:inkscape="http://www.inkscape.org/namespaces/inkscape"
   width="1052.3622"
   height="744.09448"
   id="svg2"
   version="1.1"
   inkscape:version="0.47 r22583"
   sodipodi:docname="Documento nuevo 1">
  <defs
     id="defs4">
    <inkscape:perspective
       sodipodi:type="inkscape:persp3d"
       inkscape:vp_x="0 : 526.18109 : 1"
       inkscape:vp_y="0 : 1000 : 0"
       inkscape:vp_z="744.09448 : 526.18109 : 1"
       inkscape:persp3d-origin="372.04724 : 350.78739 : 1"
       id="perspective10" />
    <inkscape:perspective
       id="perspective3803"
       inkscape:persp3d-origin="0.5 : 0.33333333 : 1"
       inkscape:vp_z="1 : 0.5 : 1"
       inkscape:vp_y="0 : 1000 : 0"
       inkscape:vp_x="0 : 0.5 : 1"
       sodipodi:type="inkscape:persp3d" />
    <inkscape:perspective
       id="perspective3867"
       inkscape:persp3d-origin="0.5 : 0.33333333 : 1"
       inkscape:vp_z="1 : 0.5 : 1"
       inkscape:vp_y="0 : 1000 : 0"
       inkscape:vp_x="0 : 0.5 : 1"
       sodipodi:type="inkscape:persp3d" />
    <inkscape:perspective
       id="perspective3889"
       inkscape:persp3d-origin="0.5 : 0.33333333 : 1"
       inkscape:vp_z="1 : 0.5 : 1"
       inkscape:vp_y="0 : 1000 : 0"
       inkscape:vp_x="0 : 0.5 : 1"
       sodipodi:type="inkscape:persp3d" />
    <inkscape:perspective
       id="perspective3889-0"
       inkscape:persp3d-origin="0.5 : 0.33333333 : 1"
       inkscape:vp_z="1 : 0.5 : 1"
       inkscape:vp_y="0 : 1000 : 0"
       inkscape:vp_x="0 : 0.5 : 1"
       sodipodi:type="inkscape:persp3d" />
    <inkscape:perspective
       id="perspective3889-4"
       inkscape:persp3d-origin="0.5 : 0.33333333 : 1"
       inkscape:vp_z="1 : 0.5 : 1"
       inkscape:vp_y="0 : 1000 : 0"
       inkscape:vp_x="0 : 0.5 : 1"
       sodipodi:type="inkscape:persp3d" />
    <inkscape:perspective
       id="perspective35"
       inkscape:persp3d-origin="360 : 240 : 1"
       inkscape:vp_z="720 : 360 : 1"
       inkscape:vp_y="0 : 1000 : 0"
       inkscape:vp_x="0 : 360 : 1"
       sodipodi:type="inkscape:persp3d" />
    <clipPath
       clipPathUnits="userSpaceOnUse"
       id="clipPath3968">
      <rect
         style="fill:none;stroke:#000000;stroke-width:0.00388889;stroke-linecap:butt;stroke-linejoin:round;stroke-miterlimit:4;stroke-opacity:1;stroke-dasharray:none;stroke-dashoffset:0"
         id="rect3970"
         width="0.29166666"
         height="1.9861112"
         x="-0.010891944"
         y="-0.0095388442" />
    </clipPath>
    <clipPath
       clipPathUnits="userSpaceOnUse"
       id="clipPath4114">
      <rect
         style="fill:none;stroke:#000000;stroke-width:0.0076074;stroke-linecap:butt;stroke-linejoin:round;stroke-miterlimit:4;stroke-opacity:1;stroke-dasharray:none;stroke-dashoffset:0"
         id="rect4116"
         width="0.15975526"
         height="0.15214804"
         x="0.052552685"
         y="1.8168168" />
    </clipPath>
    <clipPath
       clipPathUnits="userSpaceOnUse"
       id="clipPath4118">
      <rect
         style="fill:none;stroke:#000000;stroke-width:0.0076074;stroke-linecap:butt;stroke-linejoin:round;stroke-miterlimit:4;stroke-opacity:1;stroke-dasharray:none;stroke-dashoffset:0"
         id="rect4120"
         width="0.1901843"
         height="0.20539986"
         x="0.037337884"
         y="1.4440541" />
    </clipPath>
    <clipPath
       clipPathUnits="userSpaceOnUse"
       id="clipPath4122">
      <rect
         style="fill:none;stroke:#000000;stroke-width:0.0076074;stroke-linecap:butt;stroke-linejoin:round;stroke-miterlimit:4;stroke-opacity:1;stroke-dasharray:none;stroke-dashoffset:0"
         id="rect4124"
         width="0.17497022"
         height="0.20539986"
         x="0.044945285"
         y="1.0865062" />
    </clipPath>
    <clipPath
       clipPathUnits="userSpaceOnUse"
       id="clipPath4126">
      <rect
         style="fill:none;stroke:#000000;stroke-width:0.0076074;stroke-linecap:butt;stroke-linejoin:round;stroke-miterlimit:4;stroke-opacity:1;stroke-dasharray:none;stroke-dashoffset:0"
         id="rect4128"
         width="0.16736282"
         height="0.20539986"
         x="0.044945285"
         y="0.72135091" />
    </clipPath>
    <clipPath
       clipPathUnits="userSpaceOnUse"
       id="clipPath4130">
      <rect
         style="fill:none;stroke:#000000;stroke-width:0.0076074;stroke-linecap:butt;stroke-linejoin:round;stroke-miterlimit:4;stroke-opacity:1;stroke-dasharray:none;stroke-dashoffset:0"
         id="rect4132"
         width="0.091288693"
         height="0.16736284"
         x="0.090589687"
         y="0.35619563" />
    </clipPath>
    <clipPath
       clipPathUnits="userSpaceOnUse"
       id="clipPath4134">
      <rect
         style="fill:none;stroke:#000000;stroke-width:0.0076074;stroke-linecap:butt;stroke-linejoin:round;stroke-miterlimit:4;stroke-opacity:1;stroke-dasharray:none;stroke-dashoffset:0"
         id="rect4136"
         width="0.28908125"
         height="0.20539986"
         x="-0.008306521"
         y="-0.0089596752" />
    </clipPath>
    <inkscape:perspective
       id="perspective43"
       inkscape:persp3d-origin="360 : 240 : 1"
       inkscape:vp_z="720 : 360 : 1"
       inkscape:vp_y="0 : 1000 : 0"
       inkscape:vp_x="0 : 360 : 1"
       sodipodi:type="inkscape:persp3d" />
    <clipPath
       clipPathUnits="userSpaceOnUse"
       id="clipPath4200">
      <rect
         style="fill:none;stroke:#000000;stroke-width:0.00458984;stroke-linecap:butt;stroke-linejoin:round;stroke-miterlimit:4;stroke-opacity:1;stroke-dasharray:none;stroke-dashoffset:0"
         id="rect4202"
         width="0.70224482"
         height="2.3362262"
         x="-0.0034102479"
         y="-0.0036754834" />
    </clipPath>
    <clipPath
       clipPathUnits="userSpaceOnUse"
       id="clipPath4232">
      <rect
         style="fill:none;stroke:#000000;stroke-width:0.00762476;stroke-linecap:butt;stroke-linejoin:round;stroke-miterlimit:4;stroke-opacity:1;stroke-dasharray:none;stroke-dashoffset:0"
         id="rect4234"
         width="0.70910245"
         height="0.20586842"
         x="-0.01026788"
         y="-0.0061654369" />
    </clipPath>
    <inkscape:perspective
       id="perspective47"
       inkscape:persp3d-origin="360 : 240 : 1"
       inkscape:vp_z="720 : 360 : 1"
       inkscape:vp_y="0 : 1000 : 0"
       inkscape:vp_x="0 : 360 : 1"
       sodipodi:type="inkscape:persp3d" />
    <clipPath
       clipPathUnits="userSpaceOnUse"
       id="clipPath4288">
      <rect
         style="fill:none;stroke:#000000;stroke-width:0.00138889;stroke-linecap:butt;stroke-linejoin:round;stroke-miterlimit:4;stroke-opacity:1;stroke-dasharray:none;stroke-dashoffset:0"
         id="rect4290"
         width="0.69444442"
         height="2.3291667"
         x="-0.00073222222"
         y="-0.0012407189" />
    </clipPath>
    <clipPath
       clipPathUnits="userSpaceOnUse"
       id="clipPath4328">
      <rect
         style="fill:none;stroke:#000000;stroke-width:0.00762681;stroke-linecap:butt;stroke-linejoin:round;stroke-miterlimit:4;stroke-opacity:1;stroke-dasharray:none;stroke-dashoffset:0"
         id="rect4330"
         width="0.28981891"
         height="0.22117759"
         x="0.19796935"
         y="0.71108598" />
    </clipPath>
  </defs>
  <sodipodi:namedview
     id="base"
     pagecolor="#ffffff"
     bordercolor="#666666"
     borderopacity="1.0"
     inkscape:pageopacity="0.0"
     inkscape:pageshadow="2"
     inkscape:zoom="0.9716508"
     inkscape:cx="526.18109"
     inkscape:cy="372.04724"
     inkscape:document-units="px"
     inkscape:current-layer="layer1"
     showgrid="false"
     showguides="false"
     inkscape:guide-bbox="true"
     inkscape:snap-grids="true"
     inkscape:window-width="1280"
     inkscape:window-height="968"
     inkscape:window-x="-4"
     inkscape:window-y="-4"
     inkscape:window-maximized="1">
    <inkscape:grid
       type="xygrid"
       id="grid2816"
       empspacing="5"
       visible="true"
       enabled="true"
       snapvisiblegridlinesonly="true" />
    <sodipodi:guide
       orientation="1,0"
       position="120,450"
       id="guide2818" />
    <sodipodi:guide
       orientation="0,1"
       position="270,100"
       id="guide2820" />
    <sodipodi:guide
       orientation="0,1"
       position="300,630"
       id="guide2822" />
    <sodipodi:guide
       orientation="1,0"
       position="305,100"
       id="guide3831" />
    <sodipodi:guide
       orientation="1,0"
       position="785,100"
       id="guide3833" />
    <sodipodi:guide
       orientation="1,0"
       position="425,100"
       id="guide3837" />
    <sodipodi:guide
       orientation="1,0"
       position="545,100"
       id="guide3839" />
    <sodipodi:guide
       orientation="1,0"
       position="665,100"
       id="guide3841" />
    <sodipodi:guide
       orientation="0,1"
       position="305,555"
       id="guide3851" />
    <sodipodi:guide
       orientation="0,1"
       position="311,526"
       id="guide3855" />
    <sodipodi:guide
       orientation="0,1"
       position="288,383"
       id="guide4154" />
    <sodipodi:guide
       orientation="1,0"
       position="605,540"
       id="guide4238" />
    <sodipodi:guide
       orientation="1,0"
       position="193,496"
       id="guide4348" />
    <sodipodi:guide
       orientation="1,0"
       position="250,470"
       id="guide4352" />
  </sodipodi:namedview>
  <metadata
     id="metadata7">
    <rdf:RDF>
      <cc:Work
         rdf:about="">
        <dc:format>image/svg+xml</dc:format>
        <dc:type
           rdf:resource="http://purl.org/dc/dcmitype/StillImage" />
        <dc:title></dc:title>
      </cc:Work>
    </rdf:RDF>
  </metadata>
  <g
     inkscape:label="Capa 1"
     inkscape:groupmode="layer"
     id="layer1"
     transform="translate(0,-308.2677)">
    <path
       style="fill:none;stroke:#000000;stroke-width:2.8;stroke-linecap:butt;stroke-linejoin:miter;stroke-opacity:1;marker-start:none;stroke-miterlimit:4;stroke-dasharray:none"
       d="m 120,114.09448 0,530 830,0"
       id="path2824"
       transform="translate(0,308.2677)" />
    <path
       style="fill:#000000;stroke:#000000;stroke-width:1px;stroke-linecap:butt;stroke-linejoin:miter;stroke-opacity:1;fill-opacity:1"
       d="m 120,407.36218 -10,30 10,-3 10,3 -10,-30 z"
       id="path3780"
       sodipodi:nodetypes="ccccc" />
    <path
       style="fill:#000000;fill-opacity:1;stroke:#000000;stroke-width:1px;stroke-linecap:butt;stroke-linejoin:miter;stroke-opacity:1"
       d="m 962,952.36218 -30,-10 3,10 -3,10 30,-10 z"
       id="path3780-1"
       sodipodi:nodetypes="ccccc" />
    <path
       style="fill:none;stroke:#000000;stroke-width:1.4;stroke-linecap:butt;stroke-linejoin:miter;stroke-miterlimit:4;stroke-opacity:1;stroke-dasharray:none"
       d="m 230,952.36218 c -0.67337,-529.14072 150,-530 150,0"
       id="path3817"
       sodipodi:nodetypes="cc" />
    <use
       x="0"
       y="0"
       xlink:href="#path3817"
       id="use3819"
       transform="translate(120,2.4218748e-6)"
       width="1052.3622"
       height="744.09448" />
    <path
       style="fill:none;stroke:#000000;stroke-width:1.5;stroke-linecap:butt;stroke-linejoin:miter;stroke-miterlimit:4;stroke-opacity:1;stroke-dasharray:none"
       d="m 710,952.36218 c -0.67337,-529.14072 150,-530 150,0"
       id="use3825"
       sodipodi:nodetypes="cc" />
    <path
       style="fill:none;stroke:#0000ff;stroke-width:1.4;stroke-linecap:butt;stroke-linejoin:miter;stroke-opacity:1;stroke-miterlimit:4;stroke-dasharray:none"
       d="m 190,644.09448 c 80,-540 630,-540 710,0"
       id="path3827"
       transform="translate(0,308.2677)"
       sodipodi:nodetypes="cc" />
    <path
       style="fill:none;stroke:#000000;stroke-width:1;stroke-linecap:butt;stroke-linejoin:miter;stroke-opacity:1;stroke-miterlimit:4;stroke-dasharray:24,24;stroke-dashoffset:0"
       d="M 305.15078,643.74979 305,189.09448"
       id="path3849"
       transform="translate(0,308.2677)" />
    <path
       style="fill:none;stroke:#000000;stroke-width:1;stroke-linecap:butt;stroke-linejoin:miter;stroke-opacity:1;stroke-miterlimit:4;stroke-dasharray:24,24;stroke-dashoffset:0"
       d="m 785,189.09448 0,455"
       id="path3853"
       transform="translate(0,308.2677)" />
    <path
       style="fill:none;stroke:#000000;stroke-width:1px;stroke-linecap:butt;stroke-linejoin:miter;stroke-opacity:1"
       d="m 315,218.09448 100,0"
       id="path3857"
       transform="translate(0,308.2677)"
       sodipodi:nodetypes="cc" />
    <path
       style="fill:#000000;fill-opacity:1;stroke:#000000;stroke-width:1px;stroke-linecap:butt;stroke-linejoin:round;stroke-opacity:1"
       d="m 306,526.36218 19,6 -3,-6 3,-6 -19,6 z"
       id="path3780-7"
       sodipodi:nodetypes="ccccc" />
    <path
       style="fill:#000000;fill-opacity:1;stroke:#000000;stroke-width:1px;stroke-linecap:butt;stroke-linejoin:round;stroke-opacity:1"
       d="m 424,526.36218 -19,6 3,-6 -3,-6 19,6 z"
       id="path3780-7-4"
       sodipodi:nodetypes="ccccc" />
    <path
       style="fill:#000000;fill-opacity:1;stroke:#000000;stroke-width:1px;stroke-linecap:butt;stroke-linejoin:round;stroke-opacity:1"
       d="m 426,526.36218 19,6 -3,-6 3,-6 -19,6 z"
       id="path3780-7-9"
       sodipodi:nodetypes="ccccc" />
    <path
       style="fill:#000000;fill-opacity:1;stroke:#000000;stroke-width:1px;stroke-linecap:butt;stroke-linejoin:round;stroke-opacity:1"
       d="m 784,526.36218 -19,6 3,-6 -3,-6 19,6 z"
       id="path3780-7-8"
       sodipodi:nodetypes="ccccc" />
    <path
       style="fill:none;stroke:#000000;stroke-width:1px;stroke-linecap:butt;stroke-linejoin:miter;stroke-opacity:1"
       d="m 434.98781,218.08889 340.01219,0"
       id="path3924"
       transform="translate(0,308.2677)" />
    <text
       xml:space="preserve"
       style="font-size:28px;font-style:normal;font-weight:normal;text-align:center;text-anchor:middle;fill:#0000ff;fill-opacity:1;stroke:none;font-family:Calibri;-inkscape-font-specification:Calibri"
       x="920.27344"
       y="497.36218"
       id="text3926"><tspan
         sodipodi:role="line"
         id="tspan3928"
         x="920.27344"
         y="497.36218">Espectro del</tspan><tspan
         sodipodi:role="line"
         x="920.27344"
         y="532.36218"
         id="tspan3930">transductor</tspan></text>
    <g
       id="g3952"
       transform="matrix(131.45094,0,0,131.45092,347.0919,495.53994)"
       clip-path="url(#clipPath4134)">
      <rect
         style="fill:#ffffff;stroke:none"
         height="1"
         width="1"
         y="-1.2337514"
         x="-3.8671625"
         id="background" />
      <g
         style="font-style:normal;font-variant:normal;font-weight:normal;font-stretch:normal;letter-spacing:normal;word-spacing:normal;text-anchor:start;fill:none;stroke:#000000;stroke-linecap:butt;stroke-linejoin:miter;stroke-miterlimit:10.43299961;stroke-opacity:1;stroke-dasharray:none;stroke-dashoffset:0"
         word-spacing="normal"
         letter-spacing="normal"
         font-size-adjust="none"
         font-stretch="normal"
         font-weight="normal"
         font-variant="normal"
         font-style="normal"
         stroke-miterlimit="10.433"
         xml:space="preserve"
         transform="matrix(0.0017361,0,0,-0.0017361,-3.8984126,-0.04625144)"
         id="content">
<path
   style="fill:#000000;stroke-width:0"
   id="path9"
   d="m 2291.5,-28.793 0,0.154 -0.1,0.146 -0.1,0.14 -0.1,0.134 0,0.126 -0.1,0.121 -0.1,0.114 0,0.108 -0.1,0.102 0,0.097 -0.1,0.09 -0.1,0.085 0,0.08 -0.1,0.074 -0.1,0.07 0,0.064 -0.1,0.059 -0.1,0.054 -0.1,0.05 0,0.045 -0.1,0.041 -0.1,0.037 -0.1,0.032 -0.1,0.029 -0.1,0.024 -0.1,0.021 -0.1,0.018 -0.2,0.014 -0.1,0.01 -0.1,0.008 -0.2,0.004 -0.1,0.001 c -1.8,0 -2,-0.476 -2.9,-2.152 l -39.9,-80.817 6.6,5.86 32.5,66.109 32.6,-66.109 h -65.1 l -6.6,-5.86 c -0.3,-0.36 -0.5,-1.07 -0.5,-1.55 0,-0.72 0.1,-0.84 2.5,-0.84 h 81.4 c 2.4,0 2.5,0.12 2.5,0.84 0,0.48 -0.2,1.19 -0.4,1.55 z" />
<path
   style="fill:#000000;stroke-width:0"
   id="path11"
   d="m 2390.3,-63.941 0.2,0 0.3,0 0.2,0.001 0.2,0.003 0.1,0.004 0.2,0.007 0.2,0.008 0.2,0.012 0.1,0.015 0.2,0.019 0.1,0.023 0.1,0.027 0.2,0.033 0.1,0.038 0.1,0.044 0.1,0.05 0.1,0.056 0.1,0.064 0.1,0.071 0,0.08 0.1,0.087 0.1,0.096 0,0.106 0.1,0.115 0,0.125 0,0.066 0.1,0.069 0,0.072 0,0.074 0,0.077 0,0.081 0,0.083 0,0.086 0.1,0.089 0,0.092 0,0.095 0,0.098 0,0.102 0,0.105 c 0,1.195 -1,1.195 -3.1,1.195 h -9.7 c 2.2,12.313 3.9,20.801 4.9,24.625 0.7,2.871 3.2,5.621 6.3,5.621 2.5,0 5,-1.078 6.2,-2.152 -4.6,-0.476 -6.1,-3.945 -6.1,-5.976 0,-2.391 1.8,-3.829 4.1,-3.829 2.4,0 6,2.036 6,6.579 0,5.019 -5.1,7.769 -10.3,7.769 -5.1,0 -10.2,-3.824 -12.6,-8.488 -2.1,-4.184 -3.3,-8.488 -6.1,-24.149 h -8 c -2.2,0 -3.4,0 -3.4,-2.152 0,-1.316 0.7,-1.316 3.1,-1.316 h 7.6 c -2.1,-11.118 -7,-38.139 -9.8,-50.929 -2,-10.4 -3.8,-19.13 -9.8,-19.13 -0.3,0 -3.8,0 -6,2.27 6.1,0.48 6.1,5.74 6.1,5.86 0,2.39 -1.7,3.83 -4,3.83 -2.4,0 -6,-2.03 -6,-6.58 0,-5.14 5.3,-7.77 9.9,-7.77 12.2,0 17.2,21.88 18.6,27.86 2.1,9.202 8,41.003 8.6,44.589 z" />
<path
   style="fill:#000000;stroke-width:0"
   id="path13"
   d="m 2326.6,-241.02 0,0.05 0,0.04 0.1,0.05 0,0.05 0,0.1 0,0.11 0.1,0.11 0,0.11 0,0.11 0,0.12 0.1,0.12 0,0.12 0,0.12 0,0.12 0.1,0.12 0,0.11 0,0.06 0,0.06 0,0.06 0,0.05 c 0,1.2 -1.2,1.2 -1.5,1.2 -0.1,0 -4.4,-0.36 -6.5,-0.6 -2.1,-0.12 -3.9,-0.36 -6,-0.47 -2.9,-0.25 -3.7,-0.36 -3.7,-2.52 0,-1.19 1.2,-1.19 2.4,-1.19 6.1,0 6.1,-1.08 6.1,-2.28 0,-0.83 -1,-4.3 -1.5,-6.45 l -2.8,-11.48 c -1.2,-4.78 -8,-31.92 -8.5,-34.07 -0.6,-2.99 -0.6,-5.02 -0.6,-6.57 0,-12.2 6.8,-18.54 14.6,-18.54 l 0.1,2.4 c -3.8,0 -8,2.87 -8,12.19 0,3.95 0.3,6.22 2.5,14.59 0.3,1.55 2.3,9.2 2.7,10.75 0.3,0.96 7.3,11.6 15.5,11.6 5.2,0 7.6,-5.26 7.6,-11.47 0,-5.74 -3.3,-19.25 -6.3,-25.47 -3,-6.46 -8.5,-12.19 -14,-12.19 h 0 l -0.1,-2.4 c 13.8,0 28.2,17.82 28.2,35.15 0,11 -6.2,18.77 -15.2,18.77 -6.2,0 -11.8,-5.14 -14.1,-7.53 z" />
<path
   style="fill:#000000;stroke-width:0"
   id="path15"
   d="m 2324.3,-481.94 0.2,0 0.3,0 0.2,0 0.2,0 0.1,0.01 0.2,0 0.2,0.01 0.2,0.01 0.1,0.02 0.2,0.02 0.1,0.02 0.1,0.03 0.2,0.03 0.1,0.04 0.1,0.04 0.1,0.05 0.1,0.06 0.1,0.06 0.1,0.07 0,0.08 0.1,0.09 0.1,0.1 0,0.1 0.1,0.12 0,0.12 0,0.07 0.1,0.07 0,0.07 0,0.07 0,0.08 0,0.08 0,0.08 0,0.09 0.1,0.09 0,0.09 0,0.1 0,0.1 0,0.1 0,0.1 c 0,1.2 -1,1.2 -3.1,1.2 h -9.7 c 2.2,12.31 3.9,20.8 4.9,24.62 0.7,2.87 3.2,5.62 6.3,5.62 2.5,0 5,-1.07 6.2,-2.15 -4.6,-0.48 -6.1,-3.94 -6.1,-5.98 0,-2.39 1.8,-3.82 4.1,-3.82 2.4,0 6,2.03 6,6.57 0,5.02 -5.1,7.77 -10.3,7.77 -5.1,0 -10.2,-3.82 -12.6,-8.48 -2.1,-4.19 -3.3,-8.49 -6.1,-24.15 h -8 c -2.2,0 -3.4,0 -3.4,-2.15 0,-1.32 0.7,-1.32 3.1,-1.32 h 7.6 c -2.1,-11.12 -7,-38.14 -9.8,-50.93 -2,-10.4 -3.8,-19.13 -9.8,-19.13 -0.3,0 -3.8,0 -6,2.27 6.1,0.48 6.1,5.74 6.1,5.86 0,2.39 -1.7,3.83 -4,3.83 -2.4,0 -6,-2.03 -6,-6.58 0,-5.14 5.3,-7.77 9.9,-7.77 12.2,0 17.2,21.88 18.6,27.86 2.1,9.2 8,41 8.6,44.59 z" />
<path
   style="fill:#000000;stroke-width:0"
   id="path17"
   d="m 2354,-497.23 0,0.1 0,0.1 0,0.09 0,0.09 0,0.09 0,0.08 0,0.08 0,0.08 0,0.08 0,0.07 0,0.08 0,0.06 0,0.07 0,0.07 0,0.06 0,0.06 0,0.05 0,0.06 -0.1,0.05 0,0.05 0,0.1 0,0.08 -0.1,0.08 0,0.07 -0.1,0.06 0,0.06 -0.1,0.05 0,0.05 -0.1,0.04 -0.1,0.03 -0.1,0.03 -0.1,0.03 -0.1,0.02 -0.1,0.01 -0.1,0.01 0,0.01 -0.1,0 -0.1,0.01 0,0 -0.1,0.01 -0.1,0 -0.1,0 -0.1,0 0,0.01 -0.1,0 -0.1,0 -0.1,0 -0.1,0 -0.1,0 -0.1,0 c -3.3,-3.19 -7.5,-5.1 -15.1,-5.1 v -2.63 c 2.2,0 6.5,0 11.1,2.15 v -40.89 c 0,-2.94 -0.2,-3.9 -7.8,-3.9 h -2.8 V -548 h 27.5 v 2.63 h -2.8 c -7.5,0 -7.8,0.96 -7.8,3.9 z" />
<path
   style="fill:#000000;stroke-width:0"
   id="path19"
   d="m 2324.3,-691.94 0.2,0 0.3,0 0.2,0 0.2,0 0.1,0.01 0.2,0 0.2,0.01 0.2,0.01 0.1,0.02 0.2,0.02 0.1,0.02 0.1,0.03 0.2,0.03 0.1,0.04 0.1,0.04 0.1,0.05 0.1,0.06 0.1,0.06 0.1,0.07 0,0.08 0.1,0.09 0.1,0.1 0,0.1 0.1,0.12 0,0.12 0,0.07 0.1,0.07 0,0.07 0,0.07 0,0.08 0,0.08 0,0.08 0,0.09 0.1,0.09 0,0.09 0,0.1 0,0.1 0,0.1 0,0.1 c 0,1.2 -1,1.2 -3.1,1.2 h -9.7 c 2.2,12.31 3.9,20.8 4.9,24.62 0.7,2.87 3.2,5.62 6.3,5.62 2.5,0 5,-1.07 6.2,-2.15 -4.6,-0.47 -6.1,-3.94 -6.1,-5.97 0,-2.4 1.8,-3.83 4.1,-3.83 2.4,0 6,2.03 6,6.58 0,5.01 -5.1,7.76 -10.3,7.76 -5.1,0 -10.2,-3.82 -12.6,-8.48 -2.1,-4.19 -3.3,-8.49 -6.1,-24.15 h -8 c -2.2,0 -3.4,0 -3.4,-2.15 0,-1.32 0.7,-1.32 3.1,-1.32 h 7.6 c -2.1,-11.12 -7,-38.14 -9.8,-50.93 -2,-10.4 -3.8,-19.13 -9.8,-19.13 -0.3,0 -3.8,0 -6,2.27 6.1,0.48 6.1,5.74 6.1,5.86 0,2.39 -1.7,3.83 -4,3.83 -2.4,0 -6,-2.03 -6,-6.58 0,-5.14 5.3,-7.77 9.9,-7.77 12.2,0 17.2,21.88 18.6,27.86 2.1,9.2 8,41 8.6,44.59 z" />
<path
   style="fill:#000000;stroke-width:0"
   id="path21"
   d="m 2351.5,-740.74 0.1,0.11 0.1,0.13 0.2,0.13 0.1,0.14 0.2,0.14 0.2,0.15 0.2,0.16 0.2,0.16 0.2,0.16 0.2,0.17 0.4,0.34 0.4,0.35 0.4,0.36 0.5,0.35 0.4,0.35 0.4,0.34 0.2,0.17 0.2,0.16 0.2,0.15 0.2,0.15 0.1,0.15 0.2,0.14 0.2,0.13 0.1,0.12 0.2,0.12 0.1,0.11 c 4.9,4.54 9.6,8.93 9.6,16.18 0,9.48 -7.9,15.62 -17.9,15.62 -9.6,0 -15.9,-7.25 -15.9,-14.34 0,-3.91 3.1,-4.47 4.2,-4.47 1.7,0 4.2,1.2 4.2,4.22 0,4.15 -4,4.15 -5,4.15 2.4,5.82 7.7,7.81 11.6,7.81 7.4,0 11.2,-6.3 11.2,-12.99 0,-8.29 -5.8,-14.35 -15.2,-23.99 l -10,-10.36 c -1,-0.88 -1,-1.04 -1,-3.03 h 31.5 l 2.3,14.27 h -2.4 c -0.3,-1.6 -0.9,-5.58 -1.9,-7.1 -0.5,-0.64 -6.5,-0.64 -7.8,-0.64 h -14.2 z" />
<path
   style="fill:#000000;stroke-width:0"
   id="path23"
   d="m 2320.3,-900.94 0.2,0 0.3,0 0.2,0 0.2,0 0.1,0.01 0.2,0 0.2,0.01 0.2,0.01 0.1,0.02 0.2,0.02 0.1,0.02 0.1,0.03 0.2,0.03 0.1,0.04 0.1,0.04 0.1,0.05 0.1,0.06 0.1,0.06 0.1,0.07 0,0.08 0.1,0.09 0.1,0.1 0,0.1 0.1,0.12 0,0.12 0,0.07 0.1,0.07 0,0.07 0,0.07 0,0.08 0,0.08 0,0.08 0,0.09 0.1,0.09 0,0.09 0,0.1 0,0.1 0,0.1 0,0.1 c 0,1.2 -1,1.2 -3.1,1.2 h -9.7 c 2.2,12.31 3.9,20.8 4.9,24.62 0.7,2.87 3.2,5.62 6.3,5.62 2.5,0 5,-1.07 6.2,-2.15 -4.6,-0.47 -6.1,-3.94 -6.1,-5.97 0,-2.4 1.8,-3.83 4.1,-3.83 2.4,0 6,2.03 6,6.58 0,5.01 -5.1,7.76 -10.3,7.76 -5.1,0 -10.2,-3.82 -12.6,-8.48 -2.1,-4.19 -3.3,-8.49 -6.1,-24.15 h -8 c -2.2,0 -3.4,0 -3.4,-2.15 0,-1.32 0.7,-1.32 3.1,-1.32 h 7.6 c -2.1,-11.12 -7,-38.14 -9.8,-50.93 -2,-10.4 -3.8,-19.13 -9.8,-19.13 -0.3,0 -3.8,0 -6,2.27 6.1,0.48 6.1,5.74 6.1,5.86 0,2.39 -1.7,3.83 -4,3.83 -2.4,0 -6,-2.03 -6,-6.58 0,-5.14 5.3,-7.77 9.9,-7.77 12.2,0 17.2,21.88 18.6,27.86 2.1,9.2 8,41 8.6,44.59 z" />
<path
   style="fill:#000000;stroke-width:0"
   id="path25"
   d="m 2339.9,-953.93 0.1,0.12 0,0.12 0,0.14 0.1,0.15 0,0.15 0,0.16 0.1,0.17 0,0.17 0.1,0.18 0,0.19 0,0.18 0.1,0.2 0.1,0.39 0.1,0.39 0.1,0.4 0.1,0.39 0,0.19 0.1,0.19 0,0.18 0,0.18 0.1,0.17 0,0.17 0.1,0.16 0,0.15 0,0.15 0.1,0.14 0,0.12 0,0.12 c 1.1,4.3 1.1,4.39 3,7.01 2.6,3.91 6.3,7.42 11.7,7.42 2.9,0 4.5,-1.68 4.5,-5.42 0,-4.39 -3.3,-13.47 -4.8,-17.38 -1.1,-2.63 -1.1,-3.1 -1.1,-4.14 0,-4.55 3.8,-6.78 7.2,-6.78 7.8,0 11.1,11.16 11.1,12.2 0,0.8 -0.7,1.03 -1.2,1.03 -1,0 -1.1,-0.55 -1.4,-1.35 -1.9,-6.54 -5.2,-9.65 -8.3,-9.65 -1.2,0 -1.9,0.8 -1.9,2.64 0,1.83 0.7,3.58 1.5,5.58 1.2,3.02 4.7,12.19 4.7,16.65 0,5.98 -4.2,8.85 -9.9,8.85 -6.5,0 -10.6,-3.91 -12.9,-6.93 -0.6,4.38 -4.1,6.93 -8.2,6.93 -2.8,0 -4.8,-1.83 -6.1,-4.31 -1.9,-3.74 -2.7,-7.73 -2.7,-7.89 0,-0.71 0.5,-1.03 1.2,-1.03 1,0 1.1,0.32 1.7,2.39 0.9,3.91 2.3,8.61 5.7,8.61 2.1,0 2.6,-1.99 2.6,-3.75 0,-1.44 -0.5,-2.95 -1.1,-5.58 -0.1,-0.64 -1.3,-5.34 -1.7,-6.45 l -2.9,-11.96 c -0.3,-1.2 -0.8,-3.19 -0.8,-3.51 0,-1.83 1.5,-2.47 2.5,-2.47 1.5,0 2.7,0.96 3.2,1.92 0.3,0.47 0.9,3.18 1.3,4.86 z" />
<path
   style="fill:#000000;stroke-width:0"
   id="path27"
   d="m 2340,-1115.3 1.2,0.2 1.2,0.3 1.2,0.3 1.2,0.4 1.1,0.4 1.2,0.4 1.1,0.5 1.1,0.5 1.1,0.5 1.1,0.5 1,0.6 1.1,0.6 0.9,0.7 1,0.7 0.9,0.7 0.9,0.7 0.8,0.7 0.8,0.8 0.8,0.8 0.7,0.8 0.7,0.9 0.6,0.9 0.6,0.8 0.5,0.9 0.4,1 0.5,0.9 0.3,1 0.3,0.9 0.2,1 0.2,1 0.1,1 0,1.1 c 0,9.3 -8.2,16.5 -21.7,16.5 l -1.6,-3.5 c 13.5,0 13.5,-11.5 13.5,-12.6 0,-9.7 -9.7,-22 -25.4,-22 h -17.3 l -0.7,-2.4 h 22.5 c 14.1,0 14.1,-13.1 14.1,-14.1 0,-11.4 -10.4,-23.6 -25.2,-23.6 h 0 -16.2 c -1.6,0 -1.9,0 -2.6,0.1 -1.3,0.1 -1.4,0.3 -1.4,1.3 0,0.8 0.2,1.6 0.5,2.6 l 8.3,33.7 0.7,2.4 7.5,29.9 c 1,4.4 1.5,4.7 6.2,4.7 h 15.5 l 1.6,3.5 h -38.4 c -2.3,0 -3.4,0 -3.4,-2.3 0,-1.2 1.1,-1.2 2.9,-1.2 7.3,0 7.3,-1 7.3,-2.3 0,-0.2 0,-0.9 -0.5,-2.7 l -16.1,-64.4 c -1.1,-4.1 -1.3,-5.3 -9.7,-5.3 -2.3,0 -3.5,0 -3.5,-2.2 0,-1.3 0.8,-1.3 3.2,-1.3 h 41 c 18.2,0 32.3,13.9 32.3,25.9 0,9.9 -8.6,15.8 -18.2,16.8 z" />
</g>    </g>
    <g
       id="g3998"
       transform="matrix(131.45094,0,0,131.45092,285.12922,863.97129)"
       clip-path="url(#clipPath4126)">
      <rect
         style="fill:#ffffff;stroke:none"
         height="1"
         width="1"
         y="-1.2337514"
         x="-3.8671625"
         id="rect4000" />
      <g
         style="font-style:normal;font-variant:normal;font-weight:normal;font-stretch:normal;letter-spacing:normal;word-spacing:normal;text-anchor:start;fill:none;stroke:#000000;stroke-linecap:butt;stroke-linejoin:miter;stroke-miterlimit:10.43299961;stroke-opacity:1;stroke-dasharray:none;stroke-dashoffset:0"
         word-spacing="normal"
         letter-spacing="normal"
         font-size-adjust="none"
         font-stretch="normal"
         font-weight="normal"
         font-variant="normal"
         font-style="normal"
         stroke-miterlimit="10.433"
         xml:space="preserve"
         transform="matrix(0.0017361,0,0,-0.0017361,-3.8984126,-0.04625144)"
         id="g4002">
<path
   style="fill:#000000;stroke-width:0"
   id="path4004"
   d="m 2291.5,-28.793 0,0.154 -0.1,0.146 -0.1,0.14 -0.1,0.134 0,0.126 -0.1,0.121 -0.1,0.114 0,0.108 -0.1,0.102 0,0.097 -0.1,0.09 -0.1,0.085 0,0.08 -0.1,0.074 -0.1,0.07 0,0.064 -0.1,0.059 -0.1,0.054 -0.1,0.05 0,0.045 -0.1,0.041 -0.1,0.037 -0.1,0.032 -0.1,0.029 -0.1,0.024 -0.1,0.021 -0.1,0.018 -0.2,0.014 -0.1,0.01 -0.1,0.008 -0.2,0.004 -0.1,0.001 c -1.8,0 -2,-0.476 -2.9,-2.152 l -39.9,-80.817 6.6,5.86 32.5,66.109 32.6,-66.109 h -65.1 l -6.6,-5.86 c -0.3,-0.36 -0.5,-1.07 -0.5,-1.55 0,-0.72 0.1,-0.84 2.5,-0.84 h 81.4 c 2.4,0 2.5,0.12 2.5,0.84 0,0.48 -0.2,1.19 -0.4,1.55 z" />
<path
   style="fill:#000000;stroke-width:0"
   id="path4006"
   d="m 2390.3,-63.941 0.2,0 0.3,0 0.2,0.001 0.2,0.003 0.1,0.004 0.2,0.007 0.2,0.008 0.2,0.012 0.1,0.015 0.2,0.019 0.1,0.023 0.1,0.027 0.2,0.033 0.1,0.038 0.1,0.044 0.1,0.05 0.1,0.056 0.1,0.064 0.1,0.071 0,0.08 0.1,0.087 0.1,0.096 0,0.106 0.1,0.115 0,0.125 0,0.066 0.1,0.069 0,0.072 0,0.074 0,0.077 0,0.081 0,0.083 0,0.086 0.1,0.089 0,0.092 0,0.095 0,0.098 0,0.102 0,0.105 c 0,1.195 -1,1.195 -3.1,1.195 h -9.7 c 2.2,12.313 3.9,20.801 4.9,24.625 0.7,2.871 3.2,5.621 6.3,5.621 2.5,0 5,-1.078 6.2,-2.152 -4.6,-0.476 -6.1,-3.945 -6.1,-5.976 0,-2.391 1.8,-3.829 4.1,-3.829 2.4,0 6,2.036 6,6.579 0,5.019 -5.1,7.769 -10.3,7.769 -5.1,0 -10.2,-3.824 -12.6,-8.488 -2.1,-4.184 -3.3,-8.488 -6.1,-24.149 h -8 c -2.2,0 -3.4,0 -3.4,-2.152 0,-1.316 0.7,-1.316 3.1,-1.316 h 7.6 c -2.1,-11.118 -7,-38.139 -9.8,-50.929 -2,-10.4 -3.8,-19.13 -9.8,-19.13 -0.3,0 -3.8,0 -6,2.27 6.1,0.48 6.1,5.74 6.1,5.86 0,2.39 -1.7,3.83 -4,3.83 -2.4,0 -6,-2.03 -6,-6.58 0,-5.14 5.3,-7.77 9.9,-7.77 12.2,0 17.2,21.88 18.6,27.86 2.1,9.202 8,41.003 8.6,44.589 z" />
<path
   style="fill:#000000;stroke-width:0"
   id="path4008"
   d="m 2326.6,-241.02 0,0.05 0,0.04 0.1,0.05 0,0.05 0,0.1 0,0.11 0.1,0.11 0,0.11 0,0.11 0,0.12 0.1,0.12 0,0.12 0,0.12 0,0.12 0.1,0.12 0,0.11 0,0.06 0,0.06 0,0.06 0,0.05 c 0,1.2 -1.2,1.2 -1.5,1.2 -0.1,0 -4.4,-0.36 -6.5,-0.6 -2.1,-0.12 -3.9,-0.36 -6,-0.47 -2.9,-0.25 -3.7,-0.36 -3.7,-2.52 0,-1.19 1.2,-1.19 2.4,-1.19 6.1,0 6.1,-1.08 6.1,-2.28 0,-0.83 -1,-4.3 -1.5,-6.45 l -2.8,-11.48 c -1.2,-4.78 -8,-31.92 -8.5,-34.07 -0.6,-2.99 -0.6,-5.02 -0.6,-6.57 0,-12.2 6.8,-18.54 14.6,-18.54 l 0.1,2.4 c -3.8,0 -8,2.87 -8,12.19 0,3.95 0.3,6.22 2.5,14.59 0.3,1.55 2.3,9.2 2.7,10.75 0.3,0.96 7.3,11.6 15.5,11.6 5.2,0 7.6,-5.26 7.6,-11.47 0,-5.74 -3.3,-19.25 -6.3,-25.47 -3,-6.46 -8.5,-12.19 -14,-12.19 h 0 l -0.1,-2.4 c 13.8,0 28.2,17.82 28.2,35.15 0,11 -6.2,18.77 -15.2,18.77 -6.2,0 -11.8,-5.14 -14.1,-7.53 z" />
<path
   style="fill:#000000;stroke-width:0"
   id="path4010"
   d="m 2324.3,-481.94 0.2,0 0.3,0 0.2,0 0.2,0 0.1,0.01 0.2,0 0.2,0.01 0.2,0.01 0.1,0.02 0.2,0.02 0.1,0.02 0.1,0.03 0.2,0.03 0.1,0.04 0.1,0.04 0.1,0.05 0.1,0.06 0.1,0.06 0.1,0.07 0,0.08 0.1,0.09 0.1,0.1 0,0.1 0.1,0.12 0,0.12 0,0.07 0.1,0.07 0,0.07 0,0.07 0,0.08 0,0.08 0,0.08 0,0.09 0.1,0.09 0,0.09 0,0.1 0,0.1 0,0.1 0,0.1 c 0,1.2 -1,1.2 -3.1,1.2 h -9.7 c 2.2,12.31 3.9,20.8 4.9,24.62 0.7,2.87 3.2,5.62 6.3,5.62 2.5,0 5,-1.07 6.2,-2.15 -4.6,-0.48 -6.1,-3.94 -6.1,-5.98 0,-2.39 1.8,-3.82 4.1,-3.82 2.4,0 6,2.03 6,6.57 0,5.02 -5.1,7.77 -10.3,7.77 -5.1,0 -10.2,-3.82 -12.6,-8.48 -2.1,-4.19 -3.3,-8.49 -6.1,-24.15 h -8 c -2.2,0 -3.4,0 -3.4,-2.15 0,-1.32 0.7,-1.32 3.1,-1.32 h 7.6 c -2.1,-11.12 -7,-38.14 -9.8,-50.93 -2,-10.4 -3.8,-19.13 -9.8,-19.13 -0.3,0 -3.8,0 -6,2.27 6.1,0.48 6.1,5.74 6.1,5.86 0,2.39 -1.7,3.83 -4,3.83 -2.4,0 -6,-2.03 -6,-6.58 0,-5.14 5.3,-7.77 9.9,-7.77 12.2,0 17.2,21.88 18.6,27.86 2.1,9.2 8,41 8.6,44.59 z" />
<path
   style="fill:#000000;stroke-width:0"
   id="path4012"
   d="m 2354,-497.23 0,0.1 0,0.1 0,0.09 0,0.09 0,0.09 0,0.08 0,0.08 0,0.08 0,0.08 0,0.07 0,0.08 0,0.06 0,0.07 0,0.07 0,0.06 0,0.06 0,0.05 0,0.06 -0.1,0.05 0,0.05 0,0.1 0,0.08 -0.1,0.08 0,0.07 -0.1,0.06 0,0.06 -0.1,0.05 0,0.05 -0.1,0.04 -0.1,0.03 -0.1,0.03 -0.1,0.03 -0.1,0.02 -0.1,0.01 -0.1,0.01 0,0.01 -0.1,0 -0.1,0.01 0,0 -0.1,0.01 -0.1,0 -0.1,0 -0.1,0 0,0.01 -0.1,0 -0.1,0 -0.1,0 -0.1,0 -0.1,0 -0.1,0 c -3.3,-3.19 -7.5,-5.1 -15.1,-5.1 v -2.63 c 2.2,0 6.5,0 11.1,2.15 v -40.89 c 0,-2.94 -0.2,-3.9 -7.8,-3.9 h -2.8 V -548 h 27.5 v 2.63 h -2.8 c -7.5,0 -7.8,0.96 -7.8,3.9 z" />
<path
   style="fill:#000000;stroke-width:0"
   id="path4014"
   d="m 2324.3,-691.94 0.2,0 0.3,0 0.2,0 0.2,0 0.1,0.01 0.2,0 0.2,0.01 0.2,0.01 0.1,0.02 0.2,0.02 0.1,0.02 0.1,0.03 0.2,0.03 0.1,0.04 0.1,0.04 0.1,0.05 0.1,0.06 0.1,0.06 0.1,0.07 0,0.08 0.1,0.09 0.1,0.1 0,0.1 0.1,0.12 0,0.12 0,0.07 0.1,0.07 0,0.07 0,0.07 0,0.08 0,0.08 0,0.08 0,0.09 0.1,0.09 0,0.09 0,0.1 0,0.1 0,0.1 0,0.1 c 0,1.2 -1,1.2 -3.1,1.2 h -9.7 c 2.2,12.31 3.9,20.8 4.9,24.62 0.7,2.87 3.2,5.62 6.3,5.62 2.5,0 5,-1.07 6.2,-2.15 -4.6,-0.47 -6.1,-3.94 -6.1,-5.97 0,-2.4 1.8,-3.83 4.1,-3.83 2.4,0 6,2.03 6,6.58 0,5.01 -5.1,7.76 -10.3,7.76 -5.1,0 -10.2,-3.82 -12.6,-8.48 -2.1,-4.19 -3.3,-8.49 -6.1,-24.15 h -8 c -2.2,0 -3.4,0 -3.4,-2.15 0,-1.32 0.7,-1.32 3.1,-1.32 h 7.6 c -2.1,-11.12 -7,-38.14 -9.8,-50.93 -2,-10.4 -3.8,-19.13 -9.8,-19.13 -0.3,0 -3.8,0 -6,2.27 6.1,0.48 6.1,5.74 6.1,5.86 0,2.39 -1.7,3.83 -4,3.83 -2.4,0 -6,-2.03 -6,-6.58 0,-5.14 5.3,-7.77 9.9,-7.77 12.2,0 17.2,21.88 18.6,27.86 2.1,9.2 8,41 8.6,44.59 z" />
<path
   style="fill:#000000;stroke-width:0"
   id="path4016"
   d="m 2351.5,-740.74 0.1,0.11 0.1,0.13 0.2,0.13 0.1,0.14 0.2,0.14 0.2,0.15 0.2,0.16 0.2,0.16 0.2,0.16 0.2,0.17 0.4,0.34 0.4,0.35 0.4,0.36 0.5,0.35 0.4,0.35 0.4,0.34 0.2,0.17 0.2,0.16 0.2,0.15 0.2,0.15 0.1,0.15 0.2,0.14 0.2,0.13 0.1,0.12 0.2,0.12 0.1,0.11 c 4.9,4.54 9.6,8.93 9.6,16.18 0,9.48 -7.9,15.62 -17.9,15.62 -9.6,0 -15.9,-7.25 -15.9,-14.34 0,-3.91 3.1,-4.47 4.2,-4.47 1.7,0 4.2,1.2 4.2,4.22 0,4.15 -4,4.15 -5,4.15 2.4,5.82 7.7,7.81 11.6,7.81 7.4,0 11.2,-6.3 11.2,-12.99 0,-8.29 -5.8,-14.35 -15.2,-23.99 l -10,-10.36 c -1,-0.88 -1,-1.04 -1,-3.03 h 31.5 l 2.3,14.27 h -2.4 c -0.3,-1.6 -0.9,-5.58 -1.9,-7.1 -0.5,-0.64 -6.5,-0.64 -7.8,-0.64 h -14.2 z" />
<path
   style="fill:#000000;stroke-width:0"
   id="path4018"
   d="m 2320.3,-900.94 0.2,0 0.3,0 0.2,0 0.2,0 0.1,0.01 0.2,0 0.2,0.01 0.2,0.01 0.1,0.02 0.2,0.02 0.1,0.02 0.1,0.03 0.2,0.03 0.1,0.04 0.1,0.04 0.1,0.05 0.1,0.06 0.1,0.06 0.1,0.07 0,0.08 0.1,0.09 0.1,0.1 0,0.1 0.1,0.12 0,0.12 0,0.07 0.1,0.07 0,0.07 0,0.07 0,0.08 0,0.08 0,0.08 0,0.09 0.1,0.09 0,0.09 0,0.1 0,0.1 0,0.1 0,0.1 c 0,1.2 -1,1.2 -3.1,1.2 h -9.7 c 2.2,12.31 3.9,20.8 4.9,24.62 0.7,2.87 3.2,5.62 6.3,5.62 2.5,0 5,-1.07 6.2,-2.15 -4.6,-0.47 -6.1,-3.94 -6.1,-5.97 0,-2.4 1.8,-3.83 4.1,-3.83 2.4,0 6,2.03 6,6.58 0,5.01 -5.1,7.76 -10.3,7.76 -5.1,0 -10.2,-3.82 -12.6,-8.48 -2.1,-4.19 -3.3,-8.49 -6.1,-24.15 h -8 c -2.2,0 -3.4,0 -3.4,-2.15 0,-1.32 0.7,-1.32 3.1,-1.32 h 7.6 c -2.1,-11.12 -7,-38.14 -9.8,-50.93 -2,-10.4 -3.8,-19.13 -9.8,-19.13 -0.3,0 -3.8,0 -6,2.27 6.1,0.48 6.1,5.74 6.1,5.86 0,2.39 -1.7,3.83 -4,3.83 -2.4,0 -6,-2.03 -6,-6.58 0,-5.14 5.3,-7.77 9.9,-7.77 12.2,0 17.2,21.88 18.6,27.86 2.1,9.2 8,41 8.6,44.59 z" />
<path
   style="fill:#000000;stroke-width:0"
   id="path4020"
   d="m 2339.9,-953.93 0.1,0.12 0,0.12 0,0.14 0.1,0.15 0,0.15 0,0.16 0.1,0.17 0,0.17 0.1,0.18 0,0.19 0,0.18 0.1,0.2 0.1,0.39 0.1,0.39 0.1,0.4 0.1,0.39 0,0.19 0.1,0.19 0,0.18 0,0.18 0.1,0.17 0,0.17 0.1,0.16 0,0.15 0,0.15 0.1,0.14 0,0.12 0,0.12 c 1.1,4.3 1.1,4.39 3,7.01 2.6,3.91 6.3,7.42 11.7,7.42 2.9,0 4.5,-1.68 4.5,-5.42 0,-4.39 -3.3,-13.47 -4.8,-17.38 -1.1,-2.63 -1.1,-3.1 -1.1,-4.14 0,-4.55 3.8,-6.78 7.2,-6.78 7.8,0 11.1,11.16 11.1,12.2 0,0.8 -0.7,1.03 -1.2,1.03 -1,0 -1.1,-0.55 -1.4,-1.35 -1.9,-6.54 -5.2,-9.65 -8.3,-9.65 -1.2,0 -1.9,0.8 -1.9,2.64 0,1.83 0.7,3.58 1.5,5.58 1.2,3.02 4.7,12.19 4.7,16.65 0,5.98 -4.2,8.85 -9.9,8.85 -6.5,0 -10.6,-3.91 -12.9,-6.93 -0.6,4.38 -4.1,6.93 -8.2,6.93 -2.8,0 -4.8,-1.83 -6.1,-4.31 -1.9,-3.74 -2.7,-7.73 -2.7,-7.89 0,-0.71 0.5,-1.03 1.2,-1.03 1,0 1.1,0.32 1.7,2.39 0.9,3.91 2.3,8.61 5.7,8.61 2.1,0 2.6,-1.99 2.6,-3.75 0,-1.44 -0.5,-2.95 -1.1,-5.58 -0.1,-0.64 -1.3,-5.34 -1.7,-6.45 l -2.9,-11.96 c -0.3,-1.2 -0.8,-3.19 -0.8,-3.51 0,-1.83 1.5,-2.47 2.5,-2.47 1.5,0 2.7,0.96 3.2,1.92 0.3,0.47 0.9,3.18 1.3,4.86 z" />
<path
   style="fill:#000000;stroke-width:0"
   id="path4022"
   d="m 2340,-1115.3 1.2,0.2 1.2,0.3 1.2,0.3 1.2,0.4 1.1,0.4 1.2,0.4 1.1,0.5 1.1,0.5 1.1,0.5 1.1,0.5 1,0.6 1.1,0.6 0.9,0.7 1,0.7 0.9,0.7 0.9,0.7 0.8,0.7 0.8,0.8 0.8,0.8 0.7,0.8 0.7,0.9 0.6,0.9 0.6,0.8 0.5,0.9 0.4,1 0.5,0.9 0.3,1 0.3,0.9 0.2,1 0.2,1 0.1,1 0,1.1 c 0,9.3 -8.2,16.5 -21.7,16.5 l -1.6,-3.5 c 13.5,0 13.5,-11.5 13.5,-12.6 0,-9.7 -9.7,-22 -25.4,-22 h -17.3 l -0.7,-2.4 h 22.5 c 14.1,0 14.1,-13.1 14.1,-14.1 0,-11.4 -10.4,-23.6 -25.2,-23.6 h 0 -16.2 c -1.6,0 -1.9,0 -2.6,0.1 -1.3,0.1 -1.4,0.3 -1.4,1.3 0,0.8 0.2,1.6 0.5,2.6 l 8.3,33.7 0.7,2.4 7.5,29.9 c 1,4.4 1.5,4.7 6.2,4.7 h 15.5 l 1.6,3.5 h -38.4 c -2.3,0 -3.4,0 -3.4,-2.3 0,-1.2 1.1,-1.2 2.9,-1.2 7.3,0 7.3,-1 7.3,-2.3 0,-0.2 0,-0.9 -0.5,-2.7 l -16.1,-64.4 c -1.1,-4.1 -1.3,-5.3 -9.7,-5.3 -2.3,0 -3.5,0 -3.5,-2.2 0,-1.3 0.8,-1.3 3.2,-1.3 h 41 c 18.2,0 32.3,13.9 32.3,25.9 0,9.9 -8.6,15.8 -18.2,16.8 z" />
</g>    </g>
    <g
       clip-path="url(#clipPath4122)"
       transform="matrix(131.45094,0,0,131.45092,406.12922,815.97129)"
       id="g4024">
      <rect
         id="rect4026"
         x="-3.8671625"
         y="-1.2337514"
         width="1"
         height="1"
         style="fill:#ffffff;stroke:none" />
      <g
         id="g4028"
         transform="matrix(0.0017361,0,0,-0.0017361,-3.8984126,-0.04625144)"
         xml:space="preserve"
         stroke-miterlimit="10.433"
         font-style="normal"
         font-variant="normal"
         font-weight="normal"
         font-stretch="normal"
         font-size-adjust="none"
         letter-spacing="normal"
         word-spacing="normal"
         style="font-style:normal;font-variant:normal;font-weight:normal;font-stretch:normal;letter-spacing:normal;word-spacing:normal;text-anchor:start;fill:none;stroke:#000000;stroke-linecap:butt;stroke-linejoin:miter;stroke-miterlimit:10.43299961;stroke-opacity:1;stroke-dasharray:none;stroke-dashoffset:0">
<path
   d="m 2291.5,-28.793 0,0.154 -0.1,0.146 -0.1,0.14 -0.1,0.134 0,0.126 -0.1,0.121 -0.1,0.114 0,0.108 -0.1,0.102 0,0.097 -0.1,0.09 -0.1,0.085 0,0.08 -0.1,0.074 -0.1,0.07 0,0.064 -0.1,0.059 -0.1,0.054 -0.1,0.05 0,0.045 -0.1,0.041 -0.1,0.037 -0.1,0.032 -0.1,0.029 -0.1,0.024 -0.1,0.021 -0.1,0.018 -0.2,0.014 -0.1,0.01 -0.1,0.008 -0.2,0.004 -0.1,0.001 c -1.8,0 -2,-0.476 -2.9,-2.152 l -39.9,-80.817 6.6,5.86 32.5,66.109 32.6,-66.109 h -65.1 l -6.6,-5.86 c -0.3,-0.36 -0.5,-1.07 -0.5,-1.55 0,-0.72 0.1,-0.84 2.5,-0.84 h 81.4 c 2.4,0 2.5,0.12 2.5,0.84 0,0.48 -0.2,1.19 -0.4,1.55 z"
   id="path4030"
   style="fill:#000000;stroke-width:0" />
<path
   d="m 2390.3,-63.941 0.2,0 0.3,0 0.2,0.001 0.2,0.003 0.1,0.004 0.2,0.007 0.2,0.008 0.2,0.012 0.1,0.015 0.2,0.019 0.1,0.023 0.1,0.027 0.2,0.033 0.1,0.038 0.1,0.044 0.1,0.05 0.1,0.056 0.1,0.064 0.1,0.071 0,0.08 0.1,0.087 0.1,0.096 0,0.106 0.1,0.115 0,0.125 0,0.066 0.1,0.069 0,0.072 0,0.074 0,0.077 0,0.081 0,0.083 0,0.086 0.1,0.089 0,0.092 0,0.095 0,0.098 0,0.102 0,0.105 c 0,1.195 -1,1.195 -3.1,1.195 h -9.7 c 2.2,12.313 3.9,20.801 4.9,24.625 0.7,2.871 3.2,5.621 6.3,5.621 2.5,0 5,-1.078 6.2,-2.152 -4.6,-0.476 -6.1,-3.945 -6.1,-5.976 0,-2.391 1.8,-3.829 4.1,-3.829 2.4,0 6,2.036 6,6.579 0,5.019 -5.1,7.769 -10.3,7.769 -5.1,0 -10.2,-3.824 -12.6,-8.488 -2.1,-4.184 -3.3,-8.488 -6.1,-24.149 h -8 c -2.2,0 -3.4,0 -3.4,-2.152 0,-1.316 0.7,-1.316 3.1,-1.316 h 7.6 c -2.1,-11.118 -7,-38.139 -9.8,-50.929 -2,-10.4 -3.8,-19.13 -9.8,-19.13 -0.3,0 -3.8,0 -6,2.27 6.1,0.48 6.1,5.74 6.1,5.86 0,2.39 -1.7,3.83 -4,3.83 -2.4,0 -6,-2.03 -6,-6.58 0,-5.14 5.3,-7.77 9.9,-7.77 12.2,0 17.2,21.88 18.6,27.86 2.1,9.202 8,41.003 8.6,44.589 z"
   id="path4032"
   style="fill:#000000;stroke-width:0" />
<path
   d="m 2326.6,-241.02 0,0.05 0,0.04 0.1,0.05 0,0.05 0,0.1 0,0.11 0.1,0.11 0,0.11 0,0.11 0,0.12 0.1,0.12 0,0.12 0,0.12 0,0.12 0.1,0.12 0,0.11 0,0.06 0,0.06 0,0.06 0,0.05 c 0,1.2 -1.2,1.2 -1.5,1.2 -0.1,0 -4.4,-0.36 -6.5,-0.6 -2.1,-0.12 -3.9,-0.36 -6,-0.47 -2.9,-0.25 -3.7,-0.36 -3.7,-2.52 0,-1.19 1.2,-1.19 2.4,-1.19 6.1,0 6.1,-1.08 6.1,-2.28 0,-0.83 -1,-4.3 -1.5,-6.45 l -2.8,-11.48 c -1.2,-4.78 -8,-31.92 -8.5,-34.07 -0.6,-2.99 -0.6,-5.02 -0.6,-6.57 0,-12.2 6.8,-18.54 14.6,-18.54 l 0.1,2.4 c -3.8,0 -8,2.87 -8,12.19 0,3.95 0.3,6.22 2.5,14.59 0.3,1.55 2.3,9.2 2.7,10.75 0.3,0.96 7.3,11.6 15.5,11.6 5.2,0 7.6,-5.26 7.6,-11.47 0,-5.74 -3.3,-19.25 -6.3,-25.47 -3,-6.46 -8.5,-12.19 -14,-12.19 h 0 l -0.1,-2.4 c 13.8,0 28.2,17.82 28.2,35.15 0,11 -6.2,18.77 -15.2,18.77 -6.2,0 -11.8,-5.14 -14.1,-7.53 z"
   id="path4034"
   style="fill:#000000;stroke-width:0" />
<path
   d="m 2324.3,-481.94 0.2,0 0.3,0 0.2,0 0.2,0 0.1,0.01 0.2,0 0.2,0.01 0.2,0.01 0.1,0.02 0.2,0.02 0.1,0.02 0.1,0.03 0.2,0.03 0.1,0.04 0.1,0.04 0.1,0.05 0.1,0.06 0.1,0.06 0.1,0.07 0,0.08 0.1,0.09 0.1,0.1 0,0.1 0.1,0.12 0,0.12 0,0.07 0.1,0.07 0,0.07 0,0.07 0,0.08 0,0.08 0,0.08 0,0.09 0.1,0.09 0,0.09 0,0.1 0,0.1 0,0.1 0,0.1 c 0,1.2 -1,1.2 -3.1,1.2 h -9.7 c 2.2,12.31 3.9,20.8 4.9,24.62 0.7,2.87 3.2,5.62 6.3,5.62 2.5,0 5,-1.07 6.2,-2.15 -4.6,-0.48 -6.1,-3.94 -6.1,-5.98 0,-2.39 1.8,-3.82 4.1,-3.82 2.4,0 6,2.03 6,6.57 0,5.02 -5.1,7.77 -10.3,7.77 -5.1,0 -10.2,-3.82 -12.6,-8.48 -2.1,-4.19 -3.3,-8.49 -6.1,-24.15 h -8 c -2.2,0 -3.4,0 -3.4,-2.15 0,-1.32 0.7,-1.32 3.1,-1.32 h 7.6 c -2.1,-11.12 -7,-38.14 -9.8,-50.93 -2,-10.4 -3.8,-19.13 -9.8,-19.13 -0.3,0 -3.8,0 -6,2.27 6.1,0.48 6.1,5.74 6.1,5.86 0,2.39 -1.7,3.83 -4,3.83 -2.4,0 -6,-2.03 -6,-6.58 0,-5.14 5.3,-7.77 9.9,-7.77 12.2,0 17.2,21.88 18.6,27.86 2.1,9.2 8,41 8.6,44.59 z"
   id="path4036"
   style="fill:#000000;stroke-width:0" />
<path
   d="m 2354,-497.23 0,0.1 0,0.1 0,0.09 0,0.09 0,0.09 0,0.08 0,0.08 0,0.08 0,0.08 0,0.07 0,0.08 0,0.06 0,0.07 0,0.07 0,0.06 0,0.06 0,0.05 0,0.06 -0.1,0.05 0,0.05 0,0.1 0,0.08 -0.1,0.08 0,0.07 -0.1,0.06 0,0.06 -0.1,0.05 0,0.05 -0.1,0.04 -0.1,0.03 -0.1,0.03 -0.1,0.03 -0.1,0.02 -0.1,0.01 -0.1,0.01 0,0.01 -0.1,0 -0.1,0.01 0,0 -0.1,0.01 -0.1,0 -0.1,0 -0.1,0 0,0.01 -0.1,0 -0.1,0 -0.1,0 -0.1,0 -0.1,0 -0.1,0 c -3.3,-3.19 -7.5,-5.1 -15.1,-5.1 v -2.63 c 2.2,0 6.5,0 11.1,2.15 v -40.89 c 0,-2.94 -0.2,-3.9 -7.8,-3.9 h -2.8 V -548 h 27.5 v 2.63 h -2.8 c -7.5,0 -7.8,0.96 -7.8,3.9 z"
   id="path4038"
   style="fill:#000000;stroke-width:0" />
<path
   d="m 2324.3,-691.94 0.2,0 0.3,0 0.2,0 0.2,0 0.1,0.01 0.2,0 0.2,0.01 0.2,0.01 0.1,0.02 0.2,0.02 0.1,0.02 0.1,0.03 0.2,0.03 0.1,0.04 0.1,0.04 0.1,0.05 0.1,0.06 0.1,0.06 0.1,0.07 0,0.08 0.1,0.09 0.1,0.1 0,0.1 0.1,0.12 0,0.12 0,0.07 0.1,0.07 0,0.07 0,0.07 0,0.08 0,0.08 0,0.08 0,0.09 0.1,0.09 0,0.09 0,0.1 0,0.1 0,0.1 0,0.1 c 0,1.2 -1,1.2 -3.1,1.2 h -9.7 c 2.2,12.31 3.9,20.8 4.9,24.62 0.7,2.87 3.2,5.62 6.3,5.62 2.5,0 5,-1.07 6.2,-2.15 -4.6,-0.47 -6.1,-3.94 -6.1,-5.97 0,-2.4 1.8,-3.83 4.1,-3.83 2.4,0 6,2.03 6,6.58 0,5.01 -5.1,7.76 -10.3,7.76 -5.1,0 -10.2,-3.82 -12.6,-8.48 -2.1,-4.19 -3.3,-8.49 -6.1,-24.15 h -8 c -2.2,0 -3.4,0 -3.4,-2.15 0,-1.32 0.7,-1.32 3.1,-1.32 h 7.6 c -2.1,-11.12 -7,-38.14 -9.8,-50.93 -2,-10.4 -3.8,-19.13 -9.8,-19.13 -0.3,0 -3.8,0 -6,2.27 6.1,0.48 6.1,5.74 6.1,5.86 0,2.39 -1.7,3.83 -4,3.83 -2.4,0 -6,-2.03 -6,-6.58 0,-5.14 5.3,-7.77 9.9,-7.77 12.2,0 17.2,21.88 18.6,27.86 2.1,9.2 8,41 8.6,44.59 z"
   id="path4040"
   style="fill:#000000;stroke-width:0" />
<path
   d="m 2351.5,-740.74 0.1,0.11 0.1,0.13 0.2,0.13 0.1,0.14 0.2,0.14 0.2,0.15 0.2,0.16 0.2,0.16 0.2,0.16 0.2,0.17 0.4,0.34 0.4,0.35 0.4,0.36 0.5,0.35 0.4,0.35 0.4,0.34 0.2,0.17 0.2,0.16 0.2,0.15 0.2,0.15 0.1,0.15 0.2,0.14 0.2,0.13 0.1,0.12 0.2,0.12 0.1,0.11 c 4.9,4.54 9.6,8.93 9.6,16.18 0,9.48 -7.9,15.62 -17.9,15.62 -9.6,0 -15.9,-7.25 -15.9,-14.34 0,-3.91 3.1,-4.47 4.2,-4.47 1.7,0 4.2,1.2 4.2,4.22 0,4.15 -4,4.15 -5,4.15 2.4,5.82 7.7,7.81 11.6,7.81 7.4,0 11.2,-6.3 11.2,-12.99 0,-8.29 -5.8,-14.35 -15.2,-23.99 l -10,-10.36 c -1,-0.88 -1,-1.04 -1,-3.03 h 31.5 l 2.3,14.27 h -2.4 c -0.3,-1.6 -0.9,-5.58 -1.9,-7.1 -0.5,-0.64 -6.5,-0.64 -7.8,-0.64 h -14.2 z"
   id="path4042"
   style="fill:#000000;stroke-width:0" />
<path
   d="m 2320.3,-900.94 0.2,0 0.3,0 0.2,0 0.2,0 0.1,0.01 0.2,0 0.2,0.01 0.2,0.01 0.1,0.02 0.2,0.02 0.1,0.02 0.1,0.03 0.2,0.03 0.1,0.04 0.1,0.04 0.1,0.05 0.1,0.06 0.1,0.06 0.1,0.07 0,0.08 0.1,0.09 0.1,0.1 0,0.1 0.1,0.12 0,0.12 0,0.07 0.1,0.07 0,0.07 0,0.07 0,0.08 0,0.08 0,0.08 0,0.09 0.1,0.09 0,0.09 0,0.1 0,0.1 0,0.1 0,0.1 c 0,1.2 -1,1.2 -3.1,1.2 h -9.7 c 2.2,12.31 3.9,20.8 4.9,24.62 0.7,2.87 3.2,5.62 6.3,5.62 2.5,0 5,-1.07 6.2,-2.15 -4.6,-0.47 -6.1,-3.94 -6.1,-5.97 0,-2.4 1.8,-3.83 4.1,-3.83 2.4,0 6,2.03 6,6.58 0,5.01 -5.1,7.76 -10.3,7.76 -5.1,0 -10.2,-3.82 -12.6,-8.48 -2.1,-4.19 -3.3,-8.49 -6.1,-24.15 h -8 c -2.2,0 -3.4,0 -3.4,-2.15 0,-1.32 0.7,-1.32 3.1,-1.32 h 7.6 c -2.1,-11.12 -7,-38.14 -9.8,-50.93 -2,-10.4 -3.8,-19.13 -9.8,-19.13 -0.3,0 -3.8,0 -6,2.27 6.1,0.48 6.1,5.74 6.1,5.86 0,2.39 -1.7,3.83 -4,3.83 -2.4,0 -6,-2.03 -6,-6.58 0,-5.14 5.3,-7.77 9.9,-7.77 12.2,0 17.2,21.88 18.6,27.86 2.1,9.2 8,41 8.6,44.59 z"
   id="path4044"
   style="fill:#000000;stroke-width:0" />
<path
   d="m 2339.9,-953.93 0.1,0.12 0,0.12 0,0.14 0.1,0.15 0,0.15 0,0.16 0.1,0.17 0,0.17 0.1,0.18 0,0.19 0,0.18 0.1,0.2 0.1,0.39 0.1,0.39 0.1,0.4 0.1,0.39 0,0.19 0.1,0.19 0,0.18 0,0.18 0.1,0.17 0,0.17 0.1,0.16 0,0.15 0,0.15 0.1,0.14 0,0.12 0,0.12 c 1.1,4.3 1.1,4.39 3,7.01 2.6,3.91 6.3,7.42 11.7,7.42 2.9,0 4.5,-1.68 4.5,-5.42 0,-4.39 -3.3,-13.47 -4.8,-17.38 -1.1,-2.63 -1.1,-3.1 -1.1,-4.14 0,-4.55 3.8,-6.78 7.2,-6.78 7.8,0 11.1,11.16 11.1,12.2 0,0.8 -0.7,1.03 -1.2,1.03 -1,0 -1.1,-0.55 -1.4,-1.35 -1.9,-6.54 -5.2,-9.65 -8.3,-9.65 -1.2,0 -1.9,0.8 -1.9,2.64 0,1.83 0.7,3.58 1.5,5.58 1.2,3.02 4.7,12.19 4.7,16.65 0,5.98 -4.2,8.85 -9.9,8.85 -6.5,0 -10.6,-3.91 -12.9,-6.93 -0.6,4.38 -4.1,6.93 -8.2,6.93 -2.8,0 -4.8,-1.83 -6.1,-4.31 -1.9,-3.74 -2.7,-7.73 -2.7,-7.89 0,-0.71 0.5,-1.03 1.2,-1.03 1,0 1.1,0.32 1.7,2.39 0.9,3.91 2.3,8.61 5.7,8.61 2.1,0 2.6,-1.99 2.6,-3.75 0,-1.44 -0.5,-2.95 -1.1,-5.58 -0.1,-0.64 -1.3,-5.34 -1.7,-6.45 l -2.9,-11.96 c -0.3,-1.2 -0.8,-3.19 -0.8,-3.51 0,-1.83 1.5,-2.47 2.5,-2.47 1.5,0 2.7,0.96 3.2,1.92 0.3,0.47 0.9,3.18 1.3,4.86 z"
   id="path4046"
   style="fill:#000000;stroke-width:0" />
<path
   d="m 2340,-1115.3 1.2,0.2 1.2,0.3 1.2,0.3 1.2,0.4 1.1,0.4 1.2,0.4 1.1,0.5 1.1,0.5 1.1,0.5 1.1,0.5 1,0.6 1.1,0.6 0.9,0.7 1,0.7 0.9,0.7 0.9,0.7 0.8,0.7 0.8,0.8 0.8,0.8 0.7,0.8 0.7,0.9 0.6,0.9 0.6,0.8 0.5,0.9 0.4,1 0.5,0.9 0.3,1 0.3,0.9 0.2,1 0.2,1 0.1,1 0,1.1 c 0,9.3 -8.2,16.5 -21.7,16.5 l -1.6,-3.5 c 13.5,0 13.5,-11.5 13.5,-12.6 0,-9.7 -9.7,-22 -25.4,-22 h -17.3 l -0.7,-2.4 h 22.5 c 14.1,0 14.1,-13.1 14.1,-14.1 0,-11.4 -10.4,-23.6 -25.2,-23.6 h 0 -16.2 c -1.6,0 -1.9,0 -2.6,0.1 -1.3,0.1 -1.4,0.3 -1.4,1.3 0,0.8 0.2,1.6 0.5,2.6 l 8.3,33.7 0.7,2.4 7.5,29.9 c 1,4.4 1.5,4.7 6.2,4.7 h 15.5 l 1.6,3.5 h -38.4 c -2.3,0 -3.4,0 -3.4,-2.3 0,-1.2 1.1,-1.2 2.9,-1.2 7.3,0 7.3,-1 7.3,-2.3 0,-0.2 0,-0.9 -0.5,-2.7 l -16.1,-64.4 c -1.1,-4.1 -1.3,-5.3 -9.7,-5.3 -2.3,0 -3.5,0 -3.5,-2.2 0,-1.3 0.8,-1.3 3.2,-1.3 h 41 c 18.2,0 32.3,13.9 32.3,25.9 0,9.9 -8.6,15.8 -18.2,16.8 z"
   id="path4048"
   style="fill:#000000;stroke-width:0" />
</g>    </g>
    <g
       id="g4050"
       transform="matrix(131.45094,0,0,131.45092,767.12922,767.97129)"
       clip-path="url(#clipPath4118)">
      <rect
         style="fill:#ffffff;stroke:none"
         height="1"
         width="1"
         y="-1.2337514"
         x="-3.8671625"
         id="rect4052" />
      <g
         style="font-style:normal;font-variant:normal;font-weight:normal;font-stretch:normal;letter-spacing:normal;word-spacing:normal;text-anchor:start;fill:none;stroke:#000000;stroke-linecap:butt;stroke-linejoin:miter;stroke-miterlimit:10.43299961;stroke-opacity:1;stroke-dasharray:none;stroke-dashoffset:0"
         word-spacing="normal"
         letter-spacing="normal"
         font-size-adjust="none"
         font-stretch="normal"
         font-weight="normal"
         font-variant="normal"
         font-style="normal"
         stroke-miterlimit="10.433"
         xml:space="preserve"
         transform="matrix(0.0017361,0,0,-0.0017361,-3.8984126,-0.04625144)"
         id="g4054">
<path
   style="fill:#000000;stroke-width:0"
   id="path4056"
   d="m 2291.5,-28.793 0,0.154 -0.1,0.146 -0.1,0.14 -0.1,0.134 0,0.126 -0.1,0.121 -0.1,0.114 0,0.108 -0.1,0.102 0,0.097 -0.1,0.09 -0.1,0.085 0,0.08 -0.1,0.074 -0.1,0.07 0,0.064 -0.1,0.059 -0.1,0.054 -0.1,0.05 0,0.045 -0.1,0.041 -0.1,0.037 -0.1,0.032 -0.1,0.029 -0.1,0.024 -0.1,0.021 -0.1,0.018 -0.2,0.014 -0.1,0.01 -0.1,0.008 -0.2,0.004 -0.1,0.001 c -1.8,0 -2,-0.476 -2.9,-2.152 l -39.9,-80.817 6.6,5.86 32.5,66.109 32.6,-66.109 h -65.1 l -6.6,-5.86 c -0.3,-0.36 -0.5,-1.07 -0.5,-1.55 0,-0.72 0.1,-0.84 2.5,-0.84 h 81.4 c 2.4,0 2.5,0.12 2.5,0.84 0,0.48 -0.2,1.19 -0.4,1.55 z" />
<path
   style="fill:#000000;stroke-width:0"
   id="path4058"
   d="m 2390.3,-63.941 0.2,0 0.3,0 0.2,0.001 0.2,0.003 0.1,0.004 0.2,0.007 0.2,0.008 0.2,0.012 0.1,0.015 0.2,0.019 0.1,0.023 0.1,0.027 0.2,0.033 0.1,0.038 0.1,0.044 0.1,0.05 0.1,0.056 0.1,0.064 0.1,0.071 0,0.08 0.1,0.087 0.1,0.096 0,0.106 0.1,0.115 0,0.125 0,0.066 0.1,0.069 0,0.072 0,0.074 0,0.077 0,0.081 0,0.083 0,0.086 0.1,0.089 0,0.092 0,0.095 0,0.098 0,0.102 0,0.105 c 0,1.195 -1,1.195 -3.1,1.195 h -9.7 c 2.2,12.313 3.9,20.801 4.9,24.625 0.7,2.871 3.2,5.621 6.3,5.621 2.5,0 5,-1.078 6.2,-2.152 -4.6,-0.476 -6.1,-3.945 -6.1,-5.976 0,-2.391 1.8,-3.829 4.1,-3.829 2.4,0 6,2.036 6,6.579 0,5.019 -5.1,7.769 -10.3,7.769 -5.1,0 -10.2,-3.824 -12.6,-8.488 -2.1,-4.184 -3.3,-8.488 -6.1,-24.149 h -8 c -2.2,0 -3.4,0 -3.4,-2.152 0,-1.316 0.7,-1.316 3.1,-1.316 h 7.6 c -2.1,-11.118 -7,-38.139 -9.8,-50.929 -2,-10.4 -3.8,-19.13 -9.8,-19.13 -0.3,0 -3.8,0 -6,2.27 6.1,0.48 6.1,5.74 6.1,5.86 0,2.39 -1.7,3.83 -4,3.83 -2.4,0 -6,-2.03 -6,-6.58 0,-5.14 5.3,-7.77 9.9,-7.77 12.2,0 17.2,21.88 18.6,27.86 2.1,9.202 8,41.003 8.6,44.589 z" />
<path
   style="fill:#000000;stroke-width:0"
   id="path4060"
   d="m 2326.6,-241.02 0,0.05 0,0.04 0.1,0.05 0,0.05 0,0.1 0,0.11 0.1,0.11 0,0.11 0,0.11 0,0.12 0.1,0.12 0,0.12 0,0.12 0,0.12 0.1,0.12 0,0.11 0,0.06 0,0.06 0,0.06 0,0.05 c 0,1.2 -1.2,1.2 -1.5,1.2 -0.1,0 -4.4,-0.36 -6.5,-0.6 -2.1,-0.12 -3.9,-0.36 -6,-0.47 -2.9,-0.25 -3.7,-0.36 -3.7,-2.52 0,-1.19 1.2,-1.19 2.4,-1.19 6.1,0 6.1,-1.08 6.1,-2.28 0,-0.83 -1,-4.3 -1.5,-6.45 l -2.8,-11.48 c -1.2,-4.78 -8,-31.92 -8.5,-34.07 -0.6,-2.99 -0.6,-5.02 -0.6,-6.57 0,-12.2 6.8,-18.54 14.6,-18.54 l 0.1,2.4 c -3.8,0 -8,2.87 -8,12.19 0,3.95 0.3,6.22 2.5,14.59 0.3,1.55 2.3,9.2 2.7,10.75 0.3,0.96 7.3,11.6 15.5,11.6 5.2,0 7.6,-5.26 7.6,-11.47 0,-5.74 -3.3,-19.25 -6.3,-25.47 -3,-6.46 -8.5,-12.19 -14,-12.19 h 0 l -0.1,-2.4 c 13.8,0 28.2,17.82 28.2,35.15 0,11 -6.2,18.77 -15.2,18.77 -6.2,0 -11.8,-5.14 -14.1,-7.53 z" />
<path
   style="fill:#000000;stroke-width:0"
   id="path4062"
   d="m 2324.3,-481.94 0.2,0 0.3,0 0.2,0 0.2,0 0.1,0.01 0.2,0 0.2,0.01 0.2,0.01 0.1,0.02 0.2,0.02 0.1,0.02 0.1,0.03 0.2,0.03 0.1,0.04 0.1,0.04 0.1,0.05 0.1,0.06 0.1,0.06 0.1,0.07 0,0.08 0.1,0.09 0.1,0.1 0,0.1 0.1,0.12 0,0.12 0,0.07 0.1,0.07 0,0.07 0,0.07 0,0.08 0,0.08 0,0.08 0,0.09 0.1,0.09 0,0.09 0,0.1 0,0.1 0,0.1 0,0.1 c 0,1.2 -1,1.2 -3.1,1.2 h -9.7 c 2.2,12.31 3.9,20.8 4.9,24.62 0.7,2.87 3.2,5.62 6.3,5.62 2.5,0 5,-1.07 6.2,-2.15 -4.6,-0.48 -6.1,-3.94 -6.1,-5.98 0,-2.39 1.8,-3.82 4.1,-3.82 2.4,0 6,2.03 6,6.57 0,5.02 -5.1,7.77 -10.3,7.77 -5.1,0 -10.2,-3.82 -12.6,-8.48 -2.1,-4.19 -3.3,-8.49 -6.1,-24.15 h -8 c -2.2,0 -3.4,0 -3.4,-2.15 0,-1.32 0.7,-1.32 3.1,-1.32 h 7.6 c -2.1,-11.12 -7,-38.14 -9.8,-50.93 -2,-10.4 -3.8,-19.13 -9.8,-19.13 -0.3,0 -3.8,0 -6,2.27 6.1,0.48 6.1,5.74 6.1,5.86 0,2.39 -1.7,3.83 -4,3.83 -2.4,0 -6,-2.03 -6,-6.58 0,-5.14 5.3,-7.77 9.9,-7.77 12.2,0 17.2,21.88 18.6,27.86 2.1,9.2 8,41 8.6,44.59 z" />
<path
   style="fill:#000000;stroke-width:0"
   id="path4064"
   d="m 2354,-497.23 0,0.1 0,0.1 0,0.09 0,0.09 0,0.09 0,0.08 0,0.08 0,0.08 0,0.08 0,0.07 0,0.08 0,0.06 0,0.07 0,0.07 0,0.06 0,0.06 0,0.05 0,0.06 -0.1,0.05 0,0.05 0,0.1 0,0.08 -0.1,0.08 0,0.07 -0.1,0.06 0,0.06 -0.1,0.05 0,0.05 -0.1,0.04 -0.1,0.03 -0.1,0.03 -0.1,0.03 -0.1,0.02 -0.1,0.01 -0.1,0.01 0,0.01 -0.1,0 -0.1,0.01 0,0 -0.1,0.01 -0.1,0 -0.1,0 -0.1,0 0,0.01 -0.1,0 -0.1,0 -0.1,0 -0.1,0 -0.1,0 -0.1,0 c -3.3,-3.19 -7.5,-5.1 -15.1,-5.1 v -2.63 c 2.2,0 6.5,0 11.1,2.15 v -40.89 c 0,-2.94 -0.2,-3.9 -7.8,-3.9 h -2.8 V -548 h 27.5 v 2.63 h -2.8 c -7.5,0 -7.8,0.96 -7.8,3.9 z" />
<path
   style="fill:#000000;stroke-width:0"
   id="path4066"
   d="m 2324.3,-691.94 0.2,0 0.3,0 0.2,0 0.2,0 0.1,0.01 0.2,0 0.2,0.01 0.2,0.01 0.1,0.02 0.2,0.02 0.1,0.02 0.1,0.03 0.2,0.03 0.1,0.04 0.1,0.04 0.1,0.05 0.1,0.06 0.1,0.06 0.1,0.07 0,0.08 0.1,0.09 0.1,0.1 0,0.1 0.1,0.12 0,0.12 0,0.07 0.1,0.07 0,0.07 0,0.07 0,0.08 0,0.08 0,0.08 0,0.09 0.1,0.09 0,0.09 0,0.1 0,0.1 0,0.1 0,0.1 c 0,1.2 -1,1.2 -3.1,1.2 h -9.7 c 2.2,12.31 3.9,20.8 4.9,24.62 0.7,2.87 3.2,5.62 6.3,5.62 2.5,0 5,-1.07 6.2,-2.15 -4.6,-0.47 -6.1,-3.94 -6.1,-5.97 0,-2.4 1.8,-3.83 4.1,-3.83 2.4,0 6,2.03 6,6.58 0,5.01 -5.1,7.76 -10.3,7.76 -5.1,0 -10.2,-3.82 -12.6,-8.48 -2.1,-4.19 -3.3,-8.49 -6.1,-24.15 h -8 c -2.2,0 -3.4,0 -3.4,-2.15 0,-1.32 0.7,-1.32 3.1,-1.32 h 7.6 c -2.1,-11.12 -7,-38.14 -9.8,-50.93 -2,-10.4 -3.8,-19.13 -9.8,-19.13 -0.3,0 -3.8,0 -6,2.27 6.1,0.48 6.1,5.74 6.1,5.86 0,2.39 -1.7,3.83 -4,3.83 -2.4,0 -6,-2.03 -6,-6.58 0,-5.14 5.3,-7.77 9.9,-7.77 12.2,0 17.2,21.88 18.6,27.86 2.1,9.2 8,41 8.6,44.59 z" />
<path
   style="fill:#000000;stroke-width:0"
   id="path4068"
   d="m 2351.5,-740.74 0.1,0.11 0.1,0.13 0.2,0.13 0.1,0.14 0.2,0.14 0.2,0.15 0.2,0.16 0.2,0.16 0.2,0.16 0.2,0.17 0.4,0.34 0.4,0.35 0.4,0.36 0.5,0.35 0.4,0.35 0.4,0.34 0.2,0.17 0.2,0.16 0.2,0.15 0.2,0.15 0.1,0.15 0.2,0.14 0.2,0.13 0.1,0.12 0.2,0.12 0.1,0.11 c 4.9,4.54 9.6,8.93 9.6,16.18 0,9.48 -7.9,15.62 -17.9,15.62 -9.6,0 -15.9,-7.25 -15.9,-14.34 0,-3.91 3.1,-4.47 4.2,-4.47 1.7,0 4.2,1.2 4.2,4.22 0,4.15 -4,4.15 -5,4.15 2.4,5.82 7.7,7.81 11.6,7.81 7.4,0 11.2,-6.3 11.2,-12.99 0,-8.29 -5.8,-14.35 -15.2,-23.99 l -10,-10.36 c -1,-0.88 -1,-1.04 -1,-3.03 h 31.5 l 2.3,14.27 h -2.4 c -0.3,-1.6 -0.9,-5.58 -1.9,-7.1 -0.5,-0.64 -6.5,-0.64 -7.8,-0.64 h -14.2 z" />
<path
   style="fill:#000000;stroke-width:0"
   id="path4070"
   d="m 2320.3,-900.94 0.2,0 0.3,0 0.2,0 0.2,0 0.1,0.01 0.2,0 0.2,0.01 0.2,0.01 0.1,0.02 0.2,0.02 0.1,0.02 0.1,0.03 0.2,0.03 0.1,0.04 0.1,0.04 0.1,0.05 0.1,0.06 0.1,0.06 0.1,0.07 0,0.08 0.1,0.09 0.1,0.1 0,0.1 0.1,0.12 0,0.12 0,0.07 0.1,0.07 0,0.07 0,0.07 0,0.08 0,0.08 0,0.08 0,0.09 0.1,0.09 0,0.09 0,0.1 0,0.1 0,0.1 0,0.1 c 0,1.2 -1,1.2 -3.1,1.2 h -9.7 c 2.2,12.31 3.9,20.8 4.9,24.62 0.7,2.87 3.2,5.62 6.3,5.62 2.5,0 5,-1.07 6.2,-2.15 -4.6,-0.47 -6.1,-3.94 -6.1,-5.97 0,-2.4 1.8,-3.83 4.1,-3.83 2.4,0 6,2.03 6,6.58 0,5.01 -5.1,7.76 -10.3,7.76 -5.1,0 -10.2,-3.82 -12.6,-8.48 -2.1,-4.19 -3.3,-8.49 -6.1,-24.15 h -8 c -2.2,0 -3.4,0 -3.4,-2.15 0,-1.32 0.7,-1.32 3.1,-1.32 h 7.6 c -2.1,-11.12 -7,-38.14 -9.8,-50.93 -2,-10.4 -3.8,-19.13 -9.8,-19.13 -0.3,0 -3.8,0 -6,2.27 6.1,0.48 6.1,5.74 6.1,5.86 0,2.39 -1.7,3.83 -4,3.83 -2.4,0 -6,-2.03 -6,-6.58 0,-5.14 5.3,-7.77 9.9,-7.77 12.2,0 17.2,21.88 18.6,27.86 2.1,9.2 8,41 8.6,44.59 z" />
<path
   style="fill:#000000;stroke-width:0"
   id="path4072"
   d="m 2339.9,-953.93 0.1,0.12 0,0.12 0,0.14 0.1,0.15 0,0.15 0,0.16 0.1,0.17 0,0.17 0.1,0.18 0,0.19 0,0.18 0.1,0.2 0.1,0.39 0.1,0.39 0.1,0.4 0.1,0.39 0,0.19 0.1,0.19 0,0.18 0,0.18 0.1,0.17 0,0.17 0.1,0.16 0,0.15 0,0.15 0.1,0.14 0,0.12 0,0.12 c 1.1,4.3 1.1,4.39 3,7.01 2.6,3.91 6.3,7.42 11.7,7.42 2.9,0 4.5,-1.68 4.5,-5.42 0,-4.39 -3.3,-13.47 -4.8,-17.38 -1.1,-2.63 -1.1,-3.1 -1.1,-4.14 0,-4.55 3.8,-6.78 7.2,-6.78 7.8,0 11.1,11.16 11.1,12.2 0,0.8 -0.7,1.03 -1.2,1.03 -1,0 -1.1,-0.55 -1.4,-1.35 -1.9,-6.54 -5.2,-9.65 -8.3,-9.65 -1.2,0 -1.9,0.8 -1.9,2.64 0,1.83 0.7,3.58 1.5,5.58 1.2,3.02 4.7,12.19 4.7,16.65 0,5.98 -4.2,8.85 -9.9,8.85 -6.5,0 -10.6,-3.91 -12.9,-6.93 -0.6,4.38 -4.1,6.93 -8.2,6.93 -2.8,0 -4.8,-1.83 -6.1,-4.31 -1.9,-3.74 -2.7,-7.73 -2.7,-7.89 0,-0.71 0.5,-1.03 1.2,-1.03 1,0 1.1,0.32 1.7,2.39 0.9,3.91 2.3,8.61 5.7,8.61 2.1,0 2.6,-1.99 2.6,-3.75 0,-1.44 -0.5,-2.95 -1.1,-5.58 -0.1,-0.64 -1.3,-5.34 -1.7,-6.45 l -2.9,-11.96 c -0.3,-1.2 -0.8,-3.19 -0.8,-3.51 0,-1.83 1.5,-2.47 2.5,-2.47 1.5,0 2.7,0.96 3.2,1.92 0.3,0.47 0.9,3.18 1.3,4.86 z" />
<path
   style="fill:#000000;stroke-width:0"
   id="path4074"
   d="m 2340,-1115.3 1.2,0.2 1.2,0.3 1.2,0.3 1.2,0.4 1.1,0.4 1.2,0.4 1.1,0.5 1.1,0.5 1.1,0.5 1.1,0.5 1,0.6 1.1,0.6 0.9,0.7 1,0.7 0.9,0.7 0.9,0.7 0.8,0.7 0.8,0.8 0.8,0.8 0.7,0.8 0.7,0.9 0.6,0.9 0.6,0.8 0.5,0.9 0.4,1 0.5,0.9 0.3,1 0.3,0.9 0.2,1 0.2,1 0.1,1 0,1.1 c 0,9.3 -8.2,16.5 -21.7,16.5 l -1.6,-3.5 c 13.5,0 13.5,-11.5 13.5,-12.6 0,-9.7 -9.7,-22 -25.4,-22 h -17.3 l -0.7,-2.4 h 22.5 c 14.1,0 14.1,-13.1 14.1,-14.1 0,-11.4 -10.4,-23.6 -25.2,-23.6 h 0 -16.2 c -1.6,0 -1.9,0 -2.6,0.1 -1.3,0.1 -1.4,0.3 -1.4,1.3 0,0.8 0.2,1.6 0.5,2.6 l 8.3,33.7 0.7,2.4 7.5,29.9 c 1,4.4 1.5,4.7 6.2,4.7 h 15.5 l 1.6,3.5 h -38.4 c -2.3,0 -3.4,0 -3.4,-2.3 0,-1.2 1.1,-1.2 2.9,-1.2 7.3,0 7.3,-1 7.3,-2.3 0,-0.2 0,-0.9 -0.5,-2.7 l -16.1,-64.4 c -1.1,-4.1 -1.3,-5.3 -9.7,-5.3 -2.3,0 -3.5,0 -3.5,-2.2 0,-1.3 0.8,-1.3 3.2,-1.3 h 41 c 18.2,0 32.3,13.9 32.3,25.9 0,9.9 -8.6,15.8 -18.2,16.8 z" />
</g>    </g>
    <g
       id="g4180"
       transform="matrix(131.15171,0,0,131.15171,567.99405,495.48421)"
       clip-path="url(#clipPath4232)">
      <rect
         style="fill:#ffffff;stroke:none"
         height="1"
         width="1"
         y="-1.2337514"
         x="-3.6574416"
         id="background-8" />
      <g
         style="font-style:normal;font-variant:normal;font-weight:normal;font-stretch:normal;letter-spacing:normal;word-spacing:normal;text-anchor:start;fill:none;stroke:#000000;stroke-linecap:butt;stroke-linejoin:miter;stroke-miterlimit:10.43299961;stroke-opacity:1;stroke-dasharray:none;stroke-dashoffset:0"
         word-spacing="normal"
         letter-spacing="normal"
         font-size-adjust="none"
         font-stretch="normal"
         font-weight="normal"
         font-variant="normal"
         font-style="normal"
         stroke-miterlimit="10.433"
         xml:space="preserve"
         transform="matrix(0.0017361,0,0,-0.0017361,-3.6886917,-0.04625144)"
         id="content-2">
<path
   style="fill:#000000;stroke-width:0"
   id="path9-4"
   d="m 2183,-69.32 1.2,0.243 1.2,0.282 1.2,0.32 1.2,0.356 1.1,0.391 1.2,0.427 1.1,0.461 1.1,0.493 1.1,0.526 1.1,0.557 1,0.588 1.1,0.618 0.9,0.646 1,0.674 0.9,0.7 0.9,0.727 0.8,0.753 0.8,0.776 0.8,0.8 0.7,0.823 0.7,0.844 0.6,0.865 0.6,0.886 0.5,0.904 0.4,0.922 0.5,0.94 0.3,0.956 0.3,0.972 0.2,0.987 0.2,1 0.1,1.014 0,1.025 c 0,9.324 -8.2,16.496 -21.7,16.496 l -1.6,-3.464 c 13.5,0 13.5,-11.477 13.5,-12.555 0,-9.684 -9.7,-21.996 -25.4,-21.996 h -17.3 l -0.7,-2.391 h 22.5 c 14.1,0 14.1,-13.152 14.1,-14.109 0,-11.477 -10.4,-23.667 -25.2,-23.667 h 0 -16.2 c -1.6,0 -1.9,0 -2.6,0.12 -1.3,0.12 -1.4,0.35 -1.4,1.31 0,0.84 0.2,1.56 0.5,2.63 l 8.3,33.716 0.7,2.391 7.5,29.886 c 1,4.426 1.5,4.665 6.2,4.665 h 15.5 l 1.6,3.464 h -38.4 c -2.3,0 -3.4,0 -3.4,-2.269 0,-1.195 1.1,-1.195 2.9,-1.195 7.3,0 7.3,-0.958 7.3,-2.274 0,-0.238 0,-0.957 -0.5,-2.75 l -16.1,-64.314 c -1.1,-4.19 -1.3,-5.38 -9.7,-5.38 -2.3,0 -3.5,0 -3.5,-2.15 0,-1.32 0.8,-1.32 3.2,-1.32 h 41 c 18.2,0 32.3,13.867 32.3,25.941 0,9.805 -8.6,15.782 -18.2,16.739 z" />
<path
   style="fill:#000000;stroke-width:0"
   id="path11-5"
   d="m 2319.8,-84.504 0.4,0.001 0.4,0.004 0.3,0.011 0.2,0.009 0.2,0.012 0.2,0.016 0.2,0.02 0.1,0.024 0.2,0.029 0.2,0.034 0.1,0.04 0.2,0.046 0.1,0.053 0.2,0.06 0.1,0.067 0.2,0.075 0.1,0.083 0.1,0.092 0.1,0.101 0.1,0.111 0.1,0.121 0,0.064 0.1,0.067 0,0.07 0.1,0.072 0,0.076 0,0.078 0,0.081 0.1,0.085 0,0.087 0,0.09 0,0.094 0,0.097 0.1,0.1 0,0.104 0,0.106 0,0.111 c 0,2.39 -2.2,2.39 -4.2,2.39 h -64.7 c -2,0 -4.2,0 -4.2,-2.39 0,-2.391 2.2,-2.391 4.2,-2.391 z" />
<path
   style="fill:#000000;stroke-width:0"
   id="path13-5"
   d="m 2411.5,-28.793 0,0.154 -0.1,0.146 -0.1,0.14 -0.1,0.134 0,0.126 -0.1,0.121 -0.1,0.114 0,0.108 -0.1,0.102 0,0.097 -0.1,0.09 -0.1,0.085 0,0.08 -0.1,0.074 -0.1,0.07 0,0.064 -0.1,0.059 -0.1,0.054 -0.1,0.05 0,0.045 -0.1,0.041 -0.1,0.037 -0.1,0.032 -0.1,0.029 -0.1,0.024 -0.1,0.021 -0.1,0.018 -0.2,0.014 -0.1,0.01 -0.1,0.008 -0.2,0.004 -0.1,0.001 c -1.8,0 -2,-0.476 -2.9,-2.152 l -39.9,-80.817 6.6,5.86 32.5,66.109 32.6,-66.109 h -65.1 l -6.6,-5.86 c -0.3,-0.36 -0.5,-1.07 -0.5,-1.55 0,-0.72 0.1,-0.84 2.5,-0.84 h 81.4 c 2.4,0 2.5,0.12 2.5,0.84 0,0.48 -0.2,1.19 -0.4,1.55 z" />
<path
   style="fill:#000000;stroke-width:0"
   id="path15-1"
   d="m 2511.3,-63.941 0.2,0 0.3,0 0.2,0.001 0.2,0.003 0.1,0.004 0.2,0.007 0.2,0.008 0.2,0.012 0.1,0.015 0.2,0.019 0.1,0.023 0.1,0.027 0.2,0.033 0.1,0.038 0.1,0.044 0.1,0.05 0.1,0.056 0.1,0.064 0.1,0.071 0,0.08 0.1,0.087 0.1,0.096 0,0.106 0.1,0.115 0,0.125 0,0.066 0.1,0.069 0,0.072 0,0.074 0,0.077 0,0.081 0,0.083 0,0.086 0.1,0.089 0,0.092 0,0.095 0,0.098 0,0.102 0,0.105 c 0,1.195 -1,1.195 -3.1,1.195 h -9.7 c 2.2,12.313 3.9,20.801 4.9,24.625 0.7,2.871 3.2,5.621 6.3,5.621 2.5,0 5,-1.078 6.2,-2.152 -4.6,-0.476 -6.1,-3.945 -6.1,-5.976 0,-2.391 1.8,-3.829 4.1,-3.829 2.4,0 6,2.036 6,6.579 0,5.019 -5.1,7.769 -10.3,7.769 -5.1,0 -10.2,-3.824 -12.6,-8.488 -2.1,-4.184 -3.3,-8.488 -6.1,-24.149 h -8 c -2.2,0 -3.4,0 -3.4,-2.152 0,-1.316 0.7,-1.316 3.1,-1.316 h 7.6 c -2.1,-11.118 -7,-38.139 -9.8,-50.929 -2,-10.4 -3.8,-19.13 -9.8,-19.13 -0.3,0 -3.8,0 -6,2.27 6.1,0.48 6.1,5.74 6.1,5.86 0,2.39 -1.7,3.83 -4,3.83 -2.4,0 -6,-2.03 -6,-6.58 0,-5.14 5.3,-7.77 9.9,-7.77 12.2,0 17.2,21.88 18.6,27.86 2.1,9.202 8,41.003 8.6,44.589 z" />
<path
   style="fill:#000000;stroke-width:0"
   id="path17-7"
   d="m 2291.5,-237.79 0,0.15 -0.1,0.15 -0.1,0.14 -0.1,0.13 0,0.13 -0.1,0.12 -0.1,0.11 0,0.11 -0.1,0.1 0,0.1 -0.1,0.09 -0.1,0.08 0,0.08 -0.1,0.08 -0.1,0.07 0,0.06 -0.1,0.06 -0.1,0.06 -0.1,0.04 0,0.05 -0.1,0.04 -0.1,0.04 -0.1,0.03 -0.1,0.03 -0.1,0.02 -0.1,0.02 -0.1,0.02 -0.2,0.02 -0.1,0.01 -0.1,0 -0.2,0.01 -0.1,0 c -1.8,0 -2,-0.48 -2.9,-2.15 l -39.9,-80.82 6.6,5.86 32.5,66.11 32.6,-66.11 h -65.1 l -6.6,-5.86 c -0.3,-0.36 -0.5,-1.07 -0.5,-1.55 0,-0.72 0.1,-0.84 2.5,-0.84 h 81.4 c 2.4,0 2.5,0.12 2.5,0.84 0,0.48 -0.2,1.19 -0.4,1.55 z" />
<path
   style="fill:#000000;stroke-width:0"
   id="path19-1"
   d="m 2390.3,-272.94 0.2,0 0.3,0 0.2,0 0.2,0 0.1,0.01 0.2,0 0.2,0.01 0.2,0.01 0.1,0.02 0.2,0.02 0.1,0.02 0.1,0.03 0.2,0.03 0.1,0.04 0.1,0.04 0.1,0.05 0.1,0.06 0.1,0.06 0.1,0.07 0,0.08 0.1,0.09 0.1,0.1 0,0.1 0.1,0.12 0,0.12 0,0.07 0.1,0.07 0,0.07 0,0.07 0,0.08 0,0.08 0,0.08 0,0.09 0.1,0.09 0,0.09 0,0.1 0,0.1 0,0.1 0,0.1 c 0,1.2 -1,1.2 -3.1,1.2 h -9.7 c 2.2,12.31 3.9,20.8 4.9,24.62 0.7,2.87 3.2,5.62 6.3,5.62 2.5,0 5,-1.07 6.2,-2.15 -4.6,-0.47 -6.1,-3.94 -6.1,-5.97 0,-2.4 1.8,-3.83 4.1,-3.83 2.4,0 6,2.03 6,6.58 0,5.01 -5.1,7.76 -10.3,7.76 -5.1,0 -10.2,-3.82 -12.6,-8.48 -2.1,-4.19 -3.3,-8.49 -6.1,-24.15 h -8 c -2.2,0 -3.4,0 -3.4,-2.15 0,-1.32 0.7,-1.32 3.1,-1.32 h 7.6 c -2.1,-11.12 -7,-38.14 -9.8,-50.93 -2,-10.4 -3.8,-19.13 -9.8,-19.13 -0.3,0 -3.8,0 -6,2.27 6.1,0.48 6.1,5.74 6.1,5.86 0,2.39 -1.7,3.83 -4,3.83 -2.4,0 -6,-2.03 -6,-6.58 0,-5.14 5.3,-7.77 9.9,-7.77 12.2,0 17.2,21.88 18.6,27.86 2.1,9.2 8,41 8.6,44.59 z" />
<path
   style="fill:#000000;stroke-width:0"
   id="path21-1"
   d="m 2326.6,-450.02 0,0.05 0,0.04 0.1,0.05 0,0.05 0,0.1 0,0.11 0.1,0.11 0,0.11 0,0.11 0,0.12 0.1,0.12 0,0.12 0,0.12 0,0.12 0.1,0.12 0,0.11 0,0.06 0,0.06 0,0.06 0,0.05 c 0,1.2 -1.2,1.2 -1.5,1.2 -0.1,0 -4.4,-0.36 -6.5,-0.6 -2.1,-0.12 -3.9,-0.36 -6,-0.48 -2.9,-0.24 -3.7,-0.35 -3.7,-2.51 0,-1.19 1.2,-1.19 2.4,-1.19 6.1,0 6.1,-1.08 6.1,-2.28 0,-0.83 -1,-4.3 -1.5,-6.45 l -2.8,-11.48 c -1.2,-4.78 -8,-31.92 -8.5,-34.07 -0.6,-2.99 -0.6,-5.02 -0.6,-6.57 0,-12.2 6.8,-18.54 14.6,-18.54 l 0.1,2.4 c -3.8,0 -8,2.87 -8,12.19 0,3.95 0.3,6.22 2.5,14.59 0.3,1.55 2.3,9.2 2.7,10.75 0.3,0.96 7.3,11.6 15.5,11.6 5.2,0 7.6,-5.26 7.6,-11.47 0,-5.74 -3.3,-19.25 -6.3,-25.47 -3,-6.46 -8.5,-12.19 -14,-12.19 h 0 l -0.1,-2.4 c 13.8,0 28.2,17.82 28.2,35.15 0,11 -6.2,18.77 -15.2,18.77 -6.2,0 -11.8,-5.14 -14.1,-7.53 z" />
<path
   style="fill:#000000;stroke-width:0"
   id="path23-5"
   d="m 2324.3,-691.94 0.2,0 0.3,0 0.2,0 0.2,0 0.1,0.01 0.2,0 0.2,0.01 0.2,0.01 0.1,0.02 0.2,0.02 0.1,0.02 0.1,0.03 0.2,0.03 0.1,0.04 0.1,0.04 0.1,0.05 0.1,0.06 0.1,0.06 0.1,0.07 0,0.08 0.1,0.09 0.1,0.1 0,0.1 0.1,0.12 0,0.12 0,0.07 0.1,0.07 0,0.07 0,0.07 0,0.08 0,0.08 0,0.08 0,0.09 0.1,0.09 0,0.09 0,0.1 0,0.1 0,0.1 0,0.1 c 0,1.2 -1,1.2 -3.1,1.2 h -9.7 c 2.2,12.31 3.9,20.8 4.9,24.62 0.7,2.87 3.2,5.62 6.3,5.62 2.5,0 5,-1.07 6.2,-2.15 -4.6,-0.47 -6.1,-3.94 -6.1,-5.97 0,-2.4 1.8,-3.83 4.1,-3.83 2.4,0 6,2.03 6,6.58 0,5.01 -5.1,7.76 -10.3,7.76 -5.1,0 -10.2,-3.82 -12.6,-8.48 -2.1,-4.19 -3.3,-8.49 -6.1,-24.15 h -8 c -2.2,0 -3.4,0 -3.4,-2.15 0,-1.32 0.7,-1.32 3.1,-1.32 h 7.6 c -2.1,-11.12 -7,-38.14 -9.8,-50.93 -2,-10.4 -3.8,-19.13 -9.8,-19.13 -0.3,0 -3.8,0 -6,2.27 6.1,0.48 6.1,5.74 6.1,5.86 0,2.39 -1.7,3.83 -4,3.83 -2.4,0 -6,-2.03 -6,-6.58 0,-5.14 5.3,-7.77 9.9,-7.77 12.2,0 17.2,21.88 18.6,27.86 2.1,9.2 8,41 8.6,44.59 z" />
<path
   style="fill:#000000;stroke-width:0"
   id="path25-2"
   d="m 2354,-706.23 0,0.1 0,0.1 0,0.09 0,0.09 0,0.09 0,0.08 0,0.08 0,0.08 0,0.08 0,0.07 0,0.08 0,0.06 0,0.07 0,0.07 0,0.06 0,0.06 0,0.05 0,0.06 -0.1,0.05 0,0.05 0,0.1 0,0.08 -0.1,0.08 0,0.07 -0.1,0.06 0,0.06 -0.1,0.05 0,0.05 -0.1,0.04 -0.1,0.03 -0.1,0.03 -0.1,0.03 -0.1,0.02 -0.1,0.01 -0.1,0.01 0,0.01 -0.1,0 -0.1,0.01 0,0 -0.1,0.01 -0.1,0 -0.1,0 -0.1,0 0,0.01 -0.1,0 -0.1,0 -0.1,0 -0.1,0 -0.1,0 -0.1,0 c -3.3,-3.19 -7.5,-5.1 -15.1,-5.1 v -2.63 c 2.2,0 6.5,0 11.1,2.15 v -40.89 c 0,-2.94 -0.2,-3.9 -7.8,-3.9 h -2.8 V -757 h 27.5 v 2.63 h -2.8 c -7.5,0 -7.8,0.96 -7.8,3.9 z" />
<path
   style="fill:#000000;stroke-width:0"
   id="path27-7"
   d="m 2324.3,-900.94 0.2,0 0.3,0 0.2,0 0.2,0 0.1,0.01 0.2,0 0.2,0.01 0.2,0.01 0.1,0.02 0.2,0.02 0.1,0.02 0.1,0.03 0.2,0.03 0.1,0.04 0.1,0.04 0.1,0.05 0.1,0.06 0.1,0.06 0.1,0.07 0,0.08 0.1,0.09 0.1,0.1 0,0.1 0.1,0.12 0,0.12 0,0.07 0.1,0.07 0,0.07 0,0.07 0,0.08 0,0.08 0,0.08 0,0.09 0.1,0.09 0,0.09 0,0.1 0,0.1 0,0.1 0,0.1 c 0,1.2 -1,1.2 -3.1,1.2 h -9.7 c 2.2,12.31 3.9,20.8 4.9,24.62 0.7,2.87 3.2,5.62 6.3,5.62 2.5,0 5,-1.07 6.2,-2.15 -4.6,-0.47 -6.1,-3.94 -6.1,-5.97 0,-2.4 1.8,-3.83 4.1,-3.83 2.4,0 6,2.03 6,6.58 0,5.01 -5.1,7.76 -10.3,7.76 -5.1,0 -10.2,-3.82 -12.6,-8.48 -2.1,-4.19 -3.3,-8.49 -6.1,-24.15 h -8 c -2.2,0 -3.4,0 -3.4,-2.15 0,-1.32 0.7,-1.32 3.1,-1.32 h 7.6 c -2.1,-11.12 -7,-38.14 -9.8,-50.93 -2,-10.4 -3.8,-19.13 -9.8,-19.13 -0.3,0 -3.8,0 -6,2.27 6.1,0.48 6.1,5.74 6.1,5.86 0,2.39 -1.7,3.83 -4,3.83 -2.4,0 -6,-2.03 -6,-6.58 0,-5.14 5.3,-7.77 9.9,-7.77 12.2,0 17.2,21.88 18.6,27.86 2.1,9.2 8,41 8.6,44.59 z" />
<path
   style="fill:#000000;stroke-width:0"
   id="path29"
   d="m 2351.5,-950.74 0.1,0.11 0.1,0.13 0.2,0.13 0.1,0.14 0.2,0.14 0.2,0.15 0.2,0.16 0.2,0.16 0.2,0.16 0.2,0.17 0.4,0.34 0.4,0.35 0.4,0.36 0.5,0.35 0.4,0.35 0.4,0.34 0.2,0.17 0.2,0.16 0.2,0.15 0.2,0.15 0.1,0.15 0.2,0.14 0.2,0.13 0.1,0.12 0.2,0.12 0.1,0.11 c 4.9,4.54 9.6,8.93 9.6,16.18 0,9.48 -7.9,15.62 -17.9,15.62 -9.6,0 -15.9,-7.25 -15.9,-14.34 0,-3.91 3.1,-4.47 4.2,-4.47 1.7,0 4.2,1.2 4.2,4.22 0,4.15 -4,4.15 -5,4.15 2.4,5.82 7.7,7.81 11.6,7.81 7.4,0 11.2,-6.3 11.2,-12.99 0,-8.29 -5.8,-14.35 -15.2,-23.99 l -10,-10.36 c -1,-0.88 -1,-1.04 -1,-3.03 h 31.5 l 2.3,14.27 h -2.4 c -0.3,-1.6 -0.9,-5.58 -1.9,-7.1 -0.5,-0.64 -6.5,-0.64 -7.8,-0.64 h -14.2 z" />
<path
   style="fill:#000000;stroke-width:0"
   id="path31"
   d="m 2320.3,-1109.9 0.2,0 0.3,0 0.2,0 0.2,0 0.1,0 0.2,0 0.2,0 0.2,0 0.1,0 0.2,0 0.1,0.1 0.1,0 0.2,0 0.1,0.1 0.1,0 0.1,0 0.1,0.1 0.1,0.1 0.1,0 0,0.1 0.1,0.1 0.1,0.1 0,0.1 0.1,0.1 0,0.1 0,0.1 0.1,0.1 0,0 0,0.1 0,0.1 0,0.1 0,0.1 0,0 0.1,0.1 0,0.1 0,0.1 0,0.1 0,0.1 0,0.1 c 0,1.2 -1,1.2 -3.1,1.2 h -9.7 c 2.2,12.3 3.9,20.8 4.9,24.7 0.7,2.8 3.2,5.6 6.3,5.6 2.5,0 5,-1.1 6.2,-2.2 -4.6,-0.5 -6.1,-3.9 -6.1,-6 0,-2.4 1.8,-3.8 4.1,-3.8 2.4,0 6,2 6,6.6 0,5 -5.1,7.8 -10.3,7.8 -5.1,0 -10.2,-3.9 -12.6,-8.5 -2.1,-4.2 -3.3,-8.5 -6.1,-24.2 h -8 c -2.2,0 -3.4,0 -3.4,-2.1 0,-1.3 0.7,-1.3 3.1,-1.3 h 7.6 c -2.1,-11.2 -7,-38.2 -9.8,-51 -2,-10.4 -3.8,-19.1 -9.8,-19.1 -0.3,0 -3.8,0 -6,2.3 6.1,0.5 6.1,5.7 6.1,5.8 0,2.4 -1.7,3.9 -4,3.9 -2.4,0 -6,-2.1 -6,-6.6 0,-5.2 5.3,-7.8 9.9,-7.8 12.2,0 17.2,21.9 18.6,27.9 2.1,9.2 8,41 8.6,44.6 z" />
<path
   style="fill:#000000;stroke-width:0"
   id="path33"
   d="m 2339.9,-1162.9 0.1,0.1 0,0.1 0,0.2 0.1,0.1 0,0.2 0,0.1 0.1,0.2 0,0.2 0.1,0.1 0,0.2 0,0.2 0.1,0.2 0.1,0.4 0.1,0.4 0.1,0.4 0.1,0.4 0,0.2 0.1,0.1 0,0.2 0,0.2 0.1,0.2 0,0.2 0.1,0.1 0,0.2 0,0.1 0.1,0.1 0,0.2 0,0.1 c 1.1,4.3 1.1,4.4 3,7 2.6,3.9 6.3,7.4 11.7,7.4 2.9,0 4.5,-1.7 4.5,-5.4 0,-4.4 -3.3,-13.5 -4.8,-17.4 -1.1,-2.6 -1.1,-3.1 -1.1,-4.1 0,-4.6 3.8,-6.8 7.2,-6.8 7.8,0 11.1,11.2 11.1,12.2 0,0.8 -0.7,1 -1.2,1 -1,0 -1.1,-0.5 -1.4,-1.3 -1.9,-6.6 -5.2,-9.7 -8.3,-9.7 -1.2,0 -1.9,0.8 -1.9,2.7 0,1.8 0.7,3.6 1.5,5.5 1.2,3.1 4.7,12.2 4.7,16.7 0,6 -4.2,8.9 -9.9,8.9 -6.5,0 -10.6,-4 -12.9,-7 -0.6,4.4 -4.1,7 -8.2,7 -2.8,0 -4.8,-1.9 -6.1,-4.4 -1.9,-3.7 -2.7,-7.7 -2.7,-7.9 0,-0.7 0.5,-1 1.2,-1 1,0 1.1,0.3 1.7,2.4 0.9,3.9 2.3,8.6 5.7,8.6 2.1,0 2.6,-2 2.6,-3.7 0,-1.5 -0.5,-3 -1.1,-5.6 -0.1,-0.7 -1.3,-5.4 -1.7,-6.5 l -2.9,-11.9 c -0.3,-1.2 -0.8,-3.2 -0.8,-3.5 0,-1.9 1.5,-2.5 2.5,-2.5 1.5,0 2.7,1 3.2,1.9 0.3,0.5 0.9,3.2 1.3,4.9 z" />
<path
   style="fill:#000000;stroke-width:0"
   id="path35"
   d="m 2340,-1324.3 1.2,0.2 1.2,0.3 1.2,0.3 1.2,0.4 1.1,0.4 1.2,0.4 1.1,0.5 1.1,0.5 1.1,0.5 1.1,0.5 1,0.6 1.1,0.6 0.9,0.7 1,0.7 0.9,0.7 0.9,0.7 0.8,0.7 0.8,0.8 0.8,0.8 0.7,0.8 0.7,0.9 0.6,0.9 0.6,0.8 0.5,0.9 0.4,1 0.5,0.9 0.3,1 0.3,0.9 0.2,1 0.2,1 0.1,1 0,1.1 c 0,9.3 -8.2,16.5 -21.7,16.5 l -1.6,-3.5 c 13.5,0 13.5,-11.5 13.5,-12.6 0,-9.7 -9.7,-22 -25.4,-22 h -17.3 l -0.7,-2.4 h 22.5 c 14.1,0 14.1,-13.1 14.1,-14.1 0,-11.4 -10.4,-23.6 -25.2,-23.6 h 0 -16.2 c -1.6,0 -1.9,0 -2.6,0.1 -1.3,0.1 -1.4,0.3 -1.4,1.3 0,0.8 0.2,1.6 0.5,2.6 l 8.3,33.7 0.7,2.4 7.5,29.9 c 1,4.4 1.5,4.7 6.2,4.7 h 15.5 l 1.6,3.5 h -38.4 c -2.3,0 -3.4,0 -3.4,-2.3 0,-1.2 1.1,-1.2 2.9,-1.2 7.3,0 7.3,-1 7.3,-2.3 0,-0.2 0,-0.9 -0.5,-2.7 l -16.1,-64.4 c -1.1,-4.1 -1.3,-5.3 -9.7,-5.3 -2.3,0 -3.5,0 -3.5,-2.2 0,-1.3 0.8,-1.3 3.2,-1.3 h 41 c 18.2,0 32.3,13.9 32.3,25.9 0,9.9 -8.6,15.8 -18.2,16.8 z" />
</g>    </g>
    <g
       id="g4266"
       transform="matrix(131.11636,0,0,131.11636,232.6146,400.09423)"
       clip-path="url(#clipPath4328)">
      <rect
         style="fill:#ffffff;stroke:none"
         height="1"
         width="1"
         y="-1.2337514"
         x="-3.6574416"
         id="background-6" />
      <g
         style="font-style:normal;font-variant:normal;font-weight:normal;font-stretch:normal;letter-spacing:normal;word-spacing:normal;text-anchor:start;fill:none;stroke:#000000;stroke-linecap:butt;stroke-linejoin:miter;stroke-miterlimit:10.43299961;stroke-opacity:1;stroke-dasharray:none;stroke-dashoffset:0"
         word-spacing="normal"
         letter-spacing="normal"
         font-size-adjust="none"
         font-stretch="normal"
         font-weight="normal"
         font-variant="normal"
         font-style="normal"
         stroke-miterlimit="10.433"
         xml:space="preserve"
         transform="matrix(0.0017361,0,0,-0.0017361,-3.6886917,-0.04625144)"
         id="content-1">
<path
   style="fill:#000000;stroke-width:0"
   id="path9-42"
   d="m 2183,-69.32 1.2,0.243 1.2,0.282 1.2,0.32 1.2,0.356 1.1,0.391 1.2,0.427 1.1,0.461 1.1,0.493 1.1,0.526 1.1,0.557 1,0.588 1.1,0.618 0.9,0.646 1,0.674 0.9,0.7 0.9,0.727 0.8,0.753 0.8,0.776 0.8,0.8 0.7,0.823 0.7,0.844 0.6,0.865 0.6,0.886 0.5,0.904 0.4,0.922 0.5,0.94 0.3,0.956 0.3,0.972 0.2,0.987 0.2,1 0.1,1.014 0,1.025 c 0,9.324 -8.2,16.496 -21.7,16.496 l -1.6,-3.464 c 13.5,0 13.5,-11.477 13.5,-12.555 0,-9.684 -9.7,-21.996 -25.4,-21.996 h -17.3 l -0.7,-2.391 h 22.5 c 14.1,0 14.1,-13.152 14.1,-14.109 0,-11.477 -10.4,-23.667 -25.2,-23.667 h 0 -16.2 c -1.6,0 -1.9,0 -2.6,0.12 -1.3,0.12 -1.4,0.35 -1.4,1.31 0,0.84 0.2,1.56 0.5,2.63 l 8.3,33.716 0.7,2.391 7.5,29.886 c 1,4.426 1.5,4.665 6.2,4.665 h 15.5 l 1.6,3.464 h -38.4 c -2.3,0 -3.4,0 -3.4,-2.269 0,-1.195 1.1,-1.195 2.9,-1.195 7.3,0 7.3,-0.958 7.3,-2.274 0,-0.238 0,-0.957 -0.5,-2.75 l -16.1,-64.314 c -1.1,-4.19 -1.3,-5.38 -9.7,-5.38 -2.3,0 -3.5,0 -3.5,-2.15 0,-1.32 0.8,-1.32 3.2,-1.32 h 41 c 18.2,0 32.3,13.867 32.3,25.941 0,9.805 -8.6,15.782 -18.2,16.739 z" />
<path
   style="fill:#000000;stroke-width:0"
   id="path11-3"
   d="m 2319.8,-84.504 0.4,0.001 0.4,0.004 0.3,0.011 0.2,0.009 0.2,0.012 0.2,0.016 0.2,0.02 0.1,0.024 0.2,0.029 0.2,0.034 0.1,0.04 0.2,0.046 0.1,0.053 0.2,0.06 0.1,0.067 0.2,0.075 0.1,0.083 0.1,0.092 0.1,0.101 0.1,0.111 0.1,0.121 0,0.064 0.1,0.067 0,0.07 0.1,0.072 0,0.076 0,0.078 0,0.081 0.1,0.085 0,0.087 0,0.09 0,0.094 0,0.097 0.1,0.1 0,0.104 0,0.106 0,0.111 c 0,2.39 -2.2,2.39 -4.2,2.39 h -64.7 c -2,0 -4.2,0 -4.2,-2.39 0,-2.391 2.2,-2.391 4.2,-2.391 z" />
<path
   style="fill:#000000;stroke-width:0"
   id="path13-2"
   d="m 2411.5,-28.793 0,0.154 -0.1,0.146 -0.1,0.14 -0.1,0.134 0,0.126 -0.1,0.121 -0.1,0.114 0,0.108 -0.1,0.102 0,0.097 -0.1,0.09 -0.1,0.085 0,0.08 -0.1,0.074 -0.1,0.07 0,0.064 -0.1,0.059 -0.1,0.054 -0.1,0.05 0,0.045 -0.1,0.041 -0.1,0.037 -0.1,0.032 -0.1,0.029 -0.1,0.024 -0.1,0.021 -0.1,0.018 -0.2,0.014 -0.1,0.01 -0.1,0.008 -0.2,0.004 -0.1,0.001 c -1.8,0 -2,-0.476 -2.9,-2.152 l -39.9,-80.817 6.6,5.86 32.5,66.109 32.6,-66.109 h -65.1 l -6.6,-5.86 c -0.3,-0.36 -0.5,-1.07 -0.5,-1.55 0,-0.72 0.1,-0.84 2.5,-0.84 h 81.4 c 2.4,0 2.5,0.12 2.5,0.84 0,0.48 -0.2,1.19 -0.4,1.55 z" />
<path
   style="fill:#000000;stroke-width:0"
   id="path15-2"
   d="m 2511.3,-63.941 0.2,0 0.3,0 0.2,0.001 0.2,0.003 0.1,0.004 0.2,0.007 0.2,0.008 0.2,0.012 0.1,0.015 0.2,0.019 0.1,0.023 0.1,0.027 0.2,0.033 0.1,0.038 0.1,0.044 0.1,0.05 0.1,0.056 0.1,0.064 0.1,0.071 0,0.08 0.1,0.087 0.1,0.096 0,0.106 0.1,0.115 0,0.125 0,0.066 0.1,0.069 0,0.072 0,0.074 0,0.077 0,0.081 0,0.083 0,0.086 0.1,0.089 0,0.092 0,0.095 0,0.098 0,0.102 0,0.105 c 0,1.195 -1,1.195 -3.1,1.195 h -9.7 c 2.2,12.313 3.9,20.801 4.9,24.625 0.7,2.871 3.2,5.621 6.3,5.621 2.5,0 5,-1.078 6.2,-2.152 -4.6,-0.476 -6.1,-3.945 -6.1,-5.976 0,-2.391 1.8,-3.829 4.1,-3.829 2.4,0 6,2.036 6,6.579 0,5.019 -5.1,7.769 -10.3,7.769 -5.1,0 -10.2,-3.824 -12.6,-8.488 -2.1,-4.184 -3.3,-8.488 -6.1,-24.149 h -8 c -2.2,0 -3.4,0 -3.4,-2.152 0,-1.316 0.7,-1.316 3.1,-1.316 h 7.6 c -2.1,-11.118 -7,-38.139 -9.8,-50.929 -2,-10.4 -3.8,-19.13 -9.8,-19.13 -0.3,0 -3.8,0 -6,2.27 6.1,0.48 6.1,5.74 6.1,5.86 0,2.39 -1.7,3.83 -4,3.83 -2.4,0 -6,-2.03 -6,-6.58 0,-5.14 5.3,-7.77 9.9,-7.77 12.2,0 17.2,21.88 18.6,27.86 2.1,9.202 8,41.003 8.6,44.589 z" />
<path
   style="fill:#000000;stroke-width:0"
   id="path17-1"
   d="m 2291.5,-237.79 0,0.15 -0.1,0.15 -0.1,0.14 -0.1,0.13 0,0.13 -0.1,0.12 -0.1,0.11 0,0.11 -0.1,0.1 0,0.1 -0.1,0.09 -0.1,0.08 0,0.08 -0.1,0.08 -0.1,0.07 0,0.06 -0.1,0.06 -0.1,0.06 -0.1,0.04 0,0.05 -0.1,0.04 -0.1,0.04 -0.1,0.03 -0.1,0.03 -0.1,0.02 -0.1,0.02 -0.1,0.02 -0.2,0.02 -0.1,0.01 -0.1,0 -0.2,0.01 -0.1,0 c -1.8,0 -2,-0.48 -2.9,-2.15 l -39.9,-80.82 6.6,5.86 32.5,66.11 32.6,-66.11 h -65.1 l -6.6,-5.86 c -0.3,-0.36 -0.5,-1.07 -0.5,-1.55 0,-0.72 0.1,-0.84 2.5,-0.84 h 81.4 c 2.4,0 2.5,0.12 2.5,0.84 0,0.48 -0.2,1.19 -0.4,1.55 z" />
<path
   style="fill:#000000;stroke-width:0"
   id="path19-6"
   d="m 2390.3,-272.94 0.2,0 0.3,0 0.2,0 0.2,0 0.1,0.01 0.2,0 0.2,0.01 0.2,0.01 0.1,0.02 0.2,0.02 0.1,0.02 0.1,0.03 0.2,0.03 0.1,0.04 0.1,0.04 0.1,0.05 0.1,0.06 0.1,0.06 0.1,0.07 0,0.08 0.1,0.09 0.1,0.1 0,0.1 0.1,0.12 0,0.12 0,0.07 0.1,0.07 0,0.07 0,0.07 0,0.08 0,0.08 0,0.08 0,0.09 0.1,0.09 0,0.09 0,0.1 0,0.1 0,0.1 0,0.1 c 0,1.2 -1,1.2 -3.1,1.2 h -9.7 c 2.2,12.31 3.9,20.8 4.9,24.62 0.7,2.87 3.2,5.62 6.3,5.62 2.5,0 5,-1.07 6.2,-2.15 -4.6,-0.47 -6.1,-3.94 -6.1,-5.97 0,-2.4 1.8,-3.83 4.1,-3.83 2.4,0 6,2.03 6,6.58 0,5.01 -5.1,7.76 -10.3,7.76 -5.1,0 -10.2,-3.82 -12.6,-8.48 -2.1,-4.19 -3.3,-8.49 -6.1,-24.15 h -8 c -2.2,0 -3.4,0 -3.4,-2.15 0,-1.32 0.7,-1.32 3.1,-1.32 h 7.6 c -2.1,-11.12 -7,-38.14 -9.8,-50.93 -2,-10.4 -3.8,-19.13 -9.8,-19.13 -0.3,0 -3.8,0 -6,2.27 6.1,0.48 6.1,5.74 6.1,5.86 0,2.39 -1.7,3.83 -4,3.83 -2.4,0 -6,-2.03 -6,-6.58 0,-5.14 5.3,-7.77 9.9,-7.77 12.2,0 17.2,21.88 18.6,27.86 2.1,9.2 8,41 8.6,44.59 z" />
<path
   style="fill:#000000;stroke-width:0"
   id="path21-8"
   d="m 2267.6,-450.02 0,0.05 0,0.04 0.1,0.05 0,0.05 0,0.1 0,0.11 0.1,0.11 0,0.11 0,0.11 0,0.12 0.1,0.12 0,0.12 0,0.12 0,0.12 0.1,0.12 0,0.11 0,0.06 0,0.06 0,0.06 0,0.05 c 0,1.2 -1.2,1.2 -1.5,1.2 -0.1,0 -4.4,-0.36 -6.5,-0.6 -2.1,-0.12 -3.9,-0.36 -6,-0.48 -2.9,-0.24 -3.7,-0.35 -3.7,-2.51 0,-1.19 1.2,-1.19 2.4,-1.19 6.1,0 6.1,-1.08 6.1,-2.28 0,-0.83 -1,-4.3 -1.5,-6.45 l -2.8,-11.48 c -1.2,-4.78 -8,-31.92 -8.5,-34.07 -0.6,-2.99 -0.6,-5.02 -0.6,-6.57 0,-12.2 6.8,-18.54 14.6,-18.54 l 0.1,2.4 c -3.8,0 -8,2.87 -8,12.19 0,3.95 0.3,6.22 2.5,14.59 0.3,1.55 2.3,9.2 2.7,10.75 0.3,0.96 7.3,11.6 15.5,11.6 5.2,0 7.6,-5.26 7.6,-11.47 0,-5.74 -3.3,-19.25 -6.3,-25.47 -3,-6.46 -8.5,-12.19 -14,-12.19 h 0 l -0.1,-2.4 c 13.8,0 28.2,17.82 28.2,35.15 0,11 -6.2,18.77 -15.2,18.77 -6.2,0 -11.8,-5.14 -14.1,-7.53 z" />
<path
   style="fill:#000000;stroke-width:0"
   id="path23-57"
   d="m 2341.3,-444.76 0,0 0,0.01 0,0.02 0,0.01 0,0.02 0,0.01 0,0.02 0,0.03 0,0.02 0,0.02 0,0.03 0.1,0.03 0,0.06 0,0.07 0,0.08 0.1,0.07 0,0.08 0,0.09 0,0.09 0.1,0.09 0,0.18 0.1,0.19 0,0.09 0.1,0.09 0,0.08 0,0.09 0.1,0.08 0,0.08 0,0.07 0,0.07 0.1,0.07 0,0.03 0,0.02 0,0.03 0,0.03 0,0.02 0,0.02 0,0.02 0,0.01 0,0.02 0,0.01 c 0,1.44 -1.2,2.27 -2.1,2.27 -0.7,0 -1.7,0 -2.7,-2.62 l -40,-112.51 c 0,-0.12 -0.7,-1.91 -0.7,-2.15 0,-1.43 1.1,-2.27 2.1,-2.27 0.7,0 1.8,0.12 2.6,2.63 z" />
<path
   style="fill:#000000;stroke-width:0"
   id="path25-6"
   d="m 2400.6,-509.91 h -2.6 c -0.4,-2.04 -1.3,-8.61 -2.5,-10.53 -0.9,-1.07 -7.7,-1.07 -11.3,-1.07 h -22.1 c 3.2,2.75 10.5,10.4 13.6,13.27 18.2,16.74 24.9,22.95 24.9,34.79 0,13.75 -10.9,22.95 -24.7,22.95 -13.9,0 -22,-11.83 -22,-22.12 0,-6.09 5.2,-6.09 5.6,-6.09 2.5,0 5.6,1.79 5.6,5.62 0,3.34 -2.3,5.62 -5.6,5.62 -1.1,0 -1.3,0 -1.7,-0.12 2.3,8.13 8.7,13.63 16.5,13.63 10.2,0 16.4,-8.49 16.4,-19.49 0,-10.16 -5.9,-19.01 -12.7,-26.66 l -24.1,-27.02 V -530 h 43.6 z" />
<path
   style="fill:#000000;stroke-width:0"
   id="path27-1"
   d="m 2324.3,-691.94 0.2,0 0.3,0 0.2,0 0.2,0 0.1,0.01 0.2,0 0.2,0.01 0.2,0.01 0.1,0.02 0.2,0.02 0.1,0.02 0.1,0.03 0.2,0.03 0.1,0.04 0.1,0.04 0.1,0.05 0.1,0.06 0.1,0.06 0.1,0.07 0,0.08 0.1,0.09 0.1,0.1 0,0.1 0.1,0.12 0,0.12 0,0.07 0.1,0.07 0,0.07 0,0.07 0,0.08 0,0.08 0,0.08 0,0.09 0.1,0.09 0,0.09 0,0.1 0,0.1 0,0.1 0,0.1 c 0,1.2 -1,1.2 -3.1,1.2 h -9.7 c 2.2,12.31 3.9,20.8 4.9,24.62 0.7,2.87 3.2,5.62 6.3,5.62 2.5,0 5,-1.07 6.2,-2.15 -4.6,-0.47 -6.1,-3.94 -6.1,-5.97 0,-2.4 1.8,-3.83 4.1,-3.83 2.4,0 6,2.03 6,6.58 0,5.01 -5.1,7.76 -10.3,7.76 -5.1,0 -10.2,-3.82 -12.6,-8.48 -2.1,-4.19 -3.3,-8.49 -6.1,-24.15 h -8 c -2.2,0 -3.4,0 -3.4,-2.15 0,-1.32 0.7,-1.32 3.1,-1.32 h 7.6 c -2.1,-11.12 -7,-38.14 -9.8,-50.93 -2,-10.4 -3.8,-19.13 -9.8,-19.13 -0.3,0 -3.8,0 -6,2.27 6.1,0.48 6.1,5.74 6.1,5.86 0,2.39 -1.7,3.83 -4,3.83 -2.4,0 -6,-2.03 -6,-6.58 0,-5.14 5.3,-7.77 9.9,-7.77 12.2,0 17.2,21.88 18.6,27.86 2.1,9.2 8,41 8.6,44.59 z" />
<path
   style="fill:#000000;stroke-width:0"
   id="path29-8"
   d="m 2354,-706.23 0,0.1 0,0.1 0,0.09 0,0.09 0,0.09 0,0.08 0,0.08 0,0.08 0,0.08 0,0.07 0,0.08 0,0.06 0,0.07 0,0.07 0,0.06 0,0.06 0,0.05 0,0.06 -0.1,0.05 0,0.05 0,0.1 0,0.08 -0.1,0.08 0,0.07 -0.1,0.06 0,0.06 -0.1,0.05 0,0.05 -0.1,0.04 -0.1,0.03 -0.1,0.03 -0.1,0.03 -0.1,0.02 -0.1,0.01 -0.1,0.01 0,0.01 -0.1,0 -0.1,0.01 0,0 -0.1,0.01 -0.1,0 -0.1,0 -0.1,0 0,0.01 -0.1,0 -0.1,0 -0.1,0 -0.1,0 -0.1,0 -0.1,0 c -3.3,-3.19 -7.5,-5.1 -15.1,-5.1 v -2.63 c 2.2,0 6.5,0 11.1,2.15 v -40.89 c 0,-2.94 -0.2,-3.9 -7.8,-3.9 h -2.8 V -757 h 27.5 v 2.63 h -2.8 c -7.5,0 -7.8,0.96 -7.8,3.9 z" />
<path
   style="fill:#000000;stroke-width:0"
   id="path31-9"
   d="m 2324.3,-900.94 0.2,0 0.3,0 0.2,0 0.2,0 0.1,0.01 0.2,0 0.2,0.01 0.2,0.01 0.1,0.02 0.2,0.02 0.1,0.02 0.1,0.03 0.2,0.03 0.1,0.04 0.1,0.04 0.1,0.05 0.1,0.06 0.1,0.06 0.1,0.07 0,0.08 0.1,0.09 0.1,0.1 0,0.1 0.1,0.12 0,0.12 0,0.07 0.1,0.07 0,0.07 0,0.07 0,0.08 0,0.08 0,0.08 0,0.09 0.1,0.09 0,0.09 0,0.1 0,0.1 0,0.1 0,0.1 c 0,1.2 -1,1.2 -3.1,1.2 h -9.7 c 2.2,12.31 3.9,20.8 4.9,24.62 0.7,2.87 3.2,5.62 6.3,5.62 2.5,0 5,-1.07 6.2,-2.15 -4.6,-0.47 -6.1,-3.94 -6.1,-5.97 0,-2.4 1.8,-3.83 4.1,-3.83 2.4,0 6,2.03 6,6.58 0,5.01 -5.1,7.76 -10.3,7.76 -5.1,0 -10.2,-3.82 -12.6,-8.48 -2.1,-4.19 -3.3,-8.49 -6.1,-24.15 h -8 c -2.2,0 -3.4,0 -3.4,-2.15 0,-1.32 0.7,-1.32 3.1,-1.32 h 7.6 c -2.1,-11.12 -7,-38.14 -9.8,-50.93 -2,-10.4 -3.8,-19.13 -9.8,-19.13 -0.3,0 -3.8,0 -6,2.27 6.1,0.48 6.1,5.74 6.1,5.86 0,2.39 -1.7,3.83 -4,3.83 -2.4,0 -6,-2.03 -6,-6.58 0,-5.14 5.3,-7.77 9.9,-7.77 12.2,0 17.2,21.88 18.6,27.86 2.1,9.2 8,41 8.6,44.59 z" />
<path
   style="fill:#000000;stroke-width:0"
   id="path33-2"
   d="m 2351.5,-950.74 0.1,0.11 0.1,0.13 0.2,0.13 0.1,0.14 0.2,0.14 0.2,0.15 0.2,0.16 0.2,0.16 0.2,0.16 0.2,0.17 0.4,0.34 0.4,0.35 0.4,0.36 0.5,0.35 0.4,0.35 0.4,0.34 0.2,0.17 0.2,0.16 0.2,0.15 0.2,0.15 0.1,0.15 0.2,0.14 0.2,0.13 0.1,0.12 0.2,0.12 0.1,0.11 c 4.9,4.54 9.6,8.93 9.6,16.18 0,9.48 -7.9,15.62 -17.9,15.62 -9.6,0 -15.9,-7.25 -15.9,-14.34 0,-3.91 3.1,-4.47 4.2,-4.47 1.7,0 4.2,1.2 4.2,4.22 0,4.15 -4,4.15 -5,4.15 2.4,5.82 7.7,7.81 11.6,7.81 7.4,0 11.2,-6.3 11.2,-12.99 0,-8.29 -5.8,-14.35 -15.2,-23.99 l -10,-10.36 c -1,-0.88 -1,-1.04 -1,-3.03 h 31.5 l 2.3,14.27 h -2.4 c -0.3,-1.6 -0.9,-5.58 -1.9,-7.1 -0.5,-0.64 -6.5,-0.64 -7.8,-0.64 h -14.2 z" />
<path
   style="fill:#000000;stroke-width:0"
   id="path35-7"
   d="m 2320.3,-1109.9 0.2,0 0.3,0 0.2,0 0.2,0 0.1,0 0.2,0 0.2,0 0.2,0 0.1,0 0.2,0 0.1,0.1 0.1,0 0.2,0 0.1,0.1 0.1,0 0.1,0 0.1,0.1 0.1,0.1 0.1,0 0,0.1 0.1,0.1 0.1,0.1 0,0.1 0.1,0.1 0,0.1 0,0.1 0.1,0.1 0,0 0,0.1 0,0.1 0,0.1 0,0.1 0,0 0.1,0.1 0,0.1 0,0.1 0,0.1 0,0.1 0,0.1 c 0,1.2 -1,1.2 -3.1,1.2 h -9.7 c 2.2,12.3 3.9,20.8 4.9,24.7 0.7,2.8 3.2,5.6 6.3,5.6 2.5,0 5,-1.1 6.2,-2.2 -4.6,-0.5 -6.1,-3.9 -6.1,-6 0,-2.4 1.8,-3.8 4.1,-3.8 2.4,0 6,2 6,6.6 0,5 -5.1,7.8 -10.3,7.8 -5.1,0 -10.2,-3.9 -12.6,-8.5 -2.1,-4.2 -3.3,-8.5 -6.1,-24.2 h -8 c -2.2,0 -3.4,0 -3.4,-2.1 0,-1.3 0.7,-1.3 3.1,-1.3 h 7.6 c -2.1,-11.2 -7,-38.2 -9.8,-51 -2,-10.4 -3.8,-19.1 -9.8,-19.1 -0.3,0 -3.8,0 -6,2.3 6.1,0.5 6.1,5.7 6.1,5.8 0,2.4 -1.7,3.9 -4,3.9 -2.4,0 -6,-2.1 -6,-6.6 0,-5.2 5.3,-7.8 9.9,-7.8 12.2,0 17.2,21.9 18.6,27.9 2.1,9.2 8,41 8.6,44.6 z" />
<path
   style="fill:#000000;stroke-width:0"
   id="path37"
   d="m 2339.9,-1162.9 0.1,0.1 0,0.1 0,0.2 0.1,0.1 0,0.2 0,0.1 0.1,0.2 0,0.2 0.1,0.1 0,0.2 0,0.2 0.1,0.2 0.1,0.4 0.1,0.4 0.1,0.4 0.1,0.4 0,0.2 0.1,0.1 0,0.2 0,0.2 0.1,0.2 0,0.2 0.1,0.1 0,0.2 0,0.1 0.1,0.1 0,0.2 0,0.1 c 1.1,4.3 1.1,4.4 3,7 2.6,3.9 6.3,7.4 11.7,7.4 2.9,0 4.5,-1.7 4.5,-5.4 0,-4.4 -3.3,-13.5 -4.8,-17.4 -1.1,-2.6 -1.1,-3.1 -1.1,-4.1 0,-4.6 3.8,-6.8 7.2,-6.8 7.8,0 11.1,11.2 11.1,12.2 0,0.8 -0.7,1 -1.2,1 -1,0 -1.1,-0.5 -1.4,-1.3 -1.9,-6.6 -5.2,-9.7 -8.3,-9.7 -1.2,0 -1.9,0.8 -1.9,2.7 0,1.8 0.7,3.6 1.5,5.5 1.2,3.1 4.7,12.2 4.7,16.7 0,6 -4.2,8.9 -9.9,8.9 -6.5,0 -10.6,-4 -12.9,-7 -0.6,4.4 -4.1,7 -8.2,7 -2.8,0 -4.8,-1.9 -6.1,-4.4 -1.9,-3.7 -2.7,-7.7 -2.7,-7.9 0,-0.7 0.5,-1 1.2,-1 1,0 1.1,0.3 1.7,2.4 0.9,3.9 2.3,8.6 5.7,8.6 2.1,0 2.6,-2 2.6,-3.7 0,-1.5 -0.5,-3 -1.1,-5.6 -0.1,-0.7 -1.3,-5.4 -1.7,-6.5 l -2.9,-11.9 c -0.3,-1.2 -0.8,-3.2 -0.8,-3.5 0,-1.9 1.5,-2.5 2.5,-2.5 1.5,0 2.7,1 3.2,1.9 0.3,0.5 0.9,3.2 1.3,4.9 z" />
<path
   style="fill:#000000;stroke-width:0"
   id="path39"
   d="m 2340,-1324.3 1.2,0.2 1.2,0.3 1.2,0.3 1.2,0.4 1.1,0.4 1.2,0.4 1.1,0.5 1.1,0.5 1.1,0.5 1.1,0.5 1,0.6 1.1,0.6 0.9,0.7 1,0.7 0.9,0.7 0.9,0.7 0.8,0.7 0.8,0.8 0.8,0.8 0.7,0.8 0.7,0.9 0.6,0.9 0.6,0.8 0.5,0.9 0.4,1 0.5,0.9 0.3,1 0.3,0.9 0.2,1 0.2,1 0.1,1 0,1.1 c 0,9.3 -8.2,16.5 -21.7,16.5 l -1.6,-3.5 c 13.5,0 13.5,-11.5 13.5,-12.6 0,-9.7 -9.7,-22 -25.4,-22 h -17.3 l -0.7,-2.4 h 22.5 c 14.1,0 14.1,-13.1 14.1,-14.1 0,-11.4 -10.4,-23.6 -25.2,-23.6 h 0 -16.2 c -1.6,0 -1.9,0 -2.6,0.1 -1.3,0.1 -1.4,0.3 -1.4,1.3 0,0.8 0.2,1.6 0.5,2.6 l 8.3,33.7 0.7,2.4 7.5,29.9 c 1,4.4 1.5,4.7 6.2,4.7 h 15.5 l 1.6,3.5 h -38.4 c -2.3,0 -3.4,0 -3.4,-2.3 0,-1.2 1.1,-1.2 2.9,-1.2 7.3,0 7.3,-1 7.3,-2.3 0,-0.2 0,-0.9 -0.5,-2.7 l -16.1,-64.4 c -1.1,-4.1 -1.3,-5.3 -9.7,-5.3 -2.3,0 -3.5,0 -3.5,-2.2 0,-1.3 0.8,-1.3 3.2,-1.3 h 41 c 18.2,0 32.3,13.9 32.3,25.9 0,9.9 -8.6,15.8 -18.2,16.8 z" />
</g>    </g>
    <path
       style="fill:none;stroke:#000000;stroke-width:1;stroke-linecap:butt;stroke-linejoin:miter;stroke-opacity:1;stroke-miterlimit:4;stroke-dasharray:24,24;stroke-dashoffset:9"
       d="m 250,246.09448 0,-57"
       id="path4332"
       transform="translate(0,308.2677)"
       sodipodi:nodetypes="cc" />
    <path
       style="fill:none;stroke:#000000;stroke-width:1px;stroke-linecap:butt;stroke-linejoin:miter;stroke-opacity:1"
       d="m 295,218.09448 -35,0"
       id="path4334"
       transform="translate(0,308.2677)"
       sodipodi:nodetypes="cc" />
    <path
       sodipodi:nodetypes="ccccc"
       id="path4336"
       d="m 251,526.36218 19,6 -3,-6 3,-6 -19,6 z"
       style="fill:#000000;fill-opacity:1;stroke:#000000;stroke-width:1px;stroke-linecap:butt;stroke-linejoin:round;stroke-opacity:1" />
    <path
       sodipodi:nodetypes="ccccc"
       id="path4338"
       d="m 304,526.36218 -19,6 3,-6 -3,-6 19,6 z"
       style="fill:#000000;fill-opacity:1;stroke:#000000;stroke-width:1px;stroke-linecap:butt;stroke-linejoin:round;stroke-opacity:1" />
    <path
       style="fill:none;stroke:#000000;stroke-width:1;stroke-linecap:butt;stroke-linejoin:miter;stroke-opacity:1;stroke-miterlimit:4;stroke-dasharray:24,24;stroke-dashoffset:0"
       d="m 193,361.09448 57,0"
       id="path4342"
       transform="translate(0,308.2677)"
       sodipodi:nodetypes="cc" />
    <path
       id="path4344"
       d="M 425,952.36218 424.84922,497.70687"
       style="fill:none;stroke:#000000;stroke-width:1;stroke-linecap:butt;stroke-linejoin:miter;stroke-miterlimit:4;stroke-opacity:1;stroke-dasharray:24, 24;stroke-dashoffset:0" />
    <path
       style="fill:none;stroke:#000000;stroke-width:1;stroke-linecap:butt;stroke-linejoin:miter;stroke-opacity:1;stroke-miterlimit:4;stroke-dasharray:24,24;stroke-dashoffset:7.6"
       d="m 305,246.09448 -112,0"
       id="path4350"
       transform="translate(0,308.2677)"
       sodipodi:nodetypes="cc" />
    <path
       style="fill:none;stroke:#000000;stroke-width:1px;stroke-linecap:butt;stroke-linejoin:miter;stroke-opacity:1"
       d="m 222,563.36218 0,97"
       id="path4354"
       sodipodi:nodetypes="cc" />
    <path
       style="fill:#000000;fill-opacity:1;stroke:#000000;stroke-width:1px;stroke-linecap:butt;stroke-linejoin:round;stroke-opacity:1"
       d="m 222,555.36218 -6,19 6,-3 6,3 -6,-19 z"
       id="path4356"
       sodipodi:nodetypes="ccccc" />
    <path
       sodipodi:nodetypes="ccccc"
       id="path4358"
       d="m 222,668.36218 -6,-19 6,3 6,-3 -6,19 z"
       style="fill:#000000;fill-opacity:1;stroke:#000000;stroke-width:1px;stroke-linecap:butt;stroke-linejoin:round;stroke-opacity:1" />
    <text
       xml:space="preserve"
       style="font-size:28px;font-style:normal;font-weight:normal;text-align:center;text-anchor:middle;fill:#000000;fill-opacity:1;stroke:none;font-family:Calibri;-inkscape-font-specification:Calibri"
       x="184.55859"
       y="617.36218"
       id="text4360"><tspan
         sodipodi:role="line"
         id="tspan4362"
         x="184.55859"
         y="617.36218">-3 dB</tspan></text>
    <path
       style="fill:none;stroke:#0000ff;stroke-width:1.39999999999999990;stroke-linecap:butt;stroke-linejoin:miter;stroke-opacity:1;stroke-miterlimit:4;stroke-dasharray:none"
       d="m 860,244.09448 120,0"
       id="path4366"
       transform="translate(0,308.2677)"
       sodipodi:nodetypes="cc" />
  </g>
</svg>
