<?xml version="1.0" encoding="UTF-8" standalone="no"?>
<!-- Created with Inkscape (http://www.inkscape.org/) -->

<svg
   xmlns:dc="http://purl.org/dc/elements/1.1/"
   xmlns:cc="http://creativecommons.org/ns#"
   xmlns:rdf="http://www.w3.org/1999/02/22-rdf-syntax-ns#"
   xmlns:svg="http://www.w3.org/2000/svg"
   xmlns="http://www.w3.org/2000/svg"
   xmlns:sodipodi="http://sodipodi.sourceforge.net/DTD/sodipodi-0.dtd"
   xmlns:inkscape="http://www.inkscape.org/namespaces/inkscape"
   width="1214"
   height="886"
   id="svg2"
   version="1.1"
   inkscape:version="0.47 r22583"
   sodipodi:docname="chapter04-02.svg">
  <defs
     id="defs4">
    <inkscape:perspective
       sodipodi:type="inkscape:persp3d"
       inkscape:vp_x="0 : 526.18109 : 1"
       inkscape:vp_y="0 : 1000 : 0"
       inkscape:vp_z="744.09448 : 526.18109 : 1"
       inkscape:persp3d-origin="372.04724 : 350.78739 : 1"
       id="perspective10" />
    <inkscape:perspective
       id="perspective2825"
       inkscape:persp3d-origin="0.5 : 0.33333333 : 1"
       inkscape:vp_z="1 : 0.5 : 1"
       inkscape:vp_y="0 : 1000 : 0"
       inkscape:vp_x="0 : 0.5 : 1"
       sodipodi:type="inkscape:persp3d" />
  </defs>
  <sodipodi:namedview
     id="base"
     pagecolor="#ffffff"
     bordercolor="#666666"
     borderopacity="1.0"
     inkscape:pageopacity="0.0"
     inkscape:pageshadow="2"
     inkscape:zoom="0.86117381"
     inkscape:cx="607"
     inkscape:cy="443"
     inkscape:document-units="px"
     inkscape:current-layer="layer1"
     showgrid="false"
     inkscape:window-width="1280"
     inkscape:window-height="968"
     inkscape:window-x="-4"
     inkscape:window-y="-4"
     inkscape:window-maximized="1"
     showguides="true"
     inkscape:guide-bbox="true" />
  <metadata
     id="metadata7">
    <rdf:RDF>
      <cc:Work
         rdf:about="">
        <dc:format>image/svg+xml</dc:format>
        <dc:type
           rdf:resource="http://purl.org/dc/dcmitype/StillImage" />
        <dc:title />
      </cc:Work>
    </rdf:RDF>
  </metadata>
  <g
     inkscape:label="Capa 1"
     inkscape:groupmode="layer"
     id="layer1"
     transform="translate(17.281971,-334.57211)"
     style="display:inline">
    <path
       style="fill:#afafaf;fill-opacity:1;stroke:#000000;stroke-width:1px;stroke-linecap:round;stroke-linejoin:miter;stroke-opacity:1"
       d="M 140.12702,401.34807 C 126.14107,288.75278 126.1197,288.83956 116.40473,212.19038 87.848765,240.28913 63.785566,357.73437 140.12702,401.34807 z"
       id="path3707"
       transform="translate(-17.281971,334.57211)"
       sodipodi:nodetypes="ccc" />
    <path
       style="fill:none;stroke:#000000;stroke-width:1px;stroke-linecap:butt;stroke-linejoin:miter;stroke-opacity:1"
       d="M 138.48994,860.66902 823.18619,1074.2893 857.01817,589.0445 92.148096,490.28615 138.48994,860.66902 z"
       id="path2831"
       sodipodi:nodetypes="ccccc" />
    <path
       style="fill:none;stroke:#000000;stroke-width:1px;stroke-linecap:butt;stroke-linejoin:miter;stroke-opacity:1"
       d="M 857.03054,589.18687 1017.2267,504.75218 358.04488,443.72667 92.138496,490.12733"
       id="path2833" />
    <path
       style="fill:none;stroke:#000000;stroke-width:1px;stroke-linecap:butt;stroke-linejoin:miter;stroke-opacity:1"
       d="M 823.11511,1074.1907 976.91241,892.75567 1017.6384,504.68175"
       id="path2835"
       sodipodi:nodetypes="ccc" />
    <path
       id="path2844"
       style="fill:none;stroke:#000000;stroke-width:1px;stroke-linecap:butt;stroke-linejoin:miter;stroke-opacity:1"
       d="m 1043.2249,972.71929 c -40.7966,-36.48057 31.2671,-350.44217 73.6142,-350.79807 48.3268,27.42879 -15.99,345.37442 -73.6142,350.79807 z"
       sodipodi:nodetypes="ccc" />
    <path
       style="fill:none;stroke:#000000;stroke-width:1px;stroke-linecap:butt;stroke-linejoin:bevel;stroke-opacity:1"
       d="M 173.0628,871.08067 129.6195,495.25733 392.30965,447.08569 407.51245,761.12948 173.0628,871.08067 z"
       id="path3619"
       sodipodi:nodetypes="ccccc" />
    <path
       style="fill:none;stroke:#000000;stroke-width:1px;stroke-linecap:butt;stroke-linejoin:miter;stroke-opacity:1"
       d="M 393.15382,419.50111 994.07911,558.17543"
       id="path3621"
       transform="translate(-17.281971,334.57211)"
       sodipodi:nodetypes="cc" />
    <path
       style="fill:none;stroke:#000000;stroke-width:1px;stroke-linecap:butt;stroke-linejoin:miter;stroke-opacity:1"
       d="M 156.1095,525.78884 393.1186,419.46324 375.35988,109.08427"
       id="path3623"
       transform="translate(-17.281971,334.57211)"
       sodipodi:nodetypes="ccc" />
    <path
       style="fill:none;stroke:#000000;stroke-width:1px;stroke-linecap:butt;stroke-linejoin:bevel;stroke-opacity:1"
       d="M 978.49866,165.21585 805.46651,245.60157 781.06107,721.14116 942.99494,546.32454 978.49866,165.21585 z"
       id="path3625"
       transform="translate(-17.281971,334.57211)"
       sodipodi:nodetypes="ccccc" />
    <path
       style="fill:none;stroke:#000000;stroke-width:1px;stroke-linecap:butt;stroke-linejoin:miter;stroke-opacity:1"
       d="m 272.53051,306.73474 263.97945,50.20299"
       id="path3629"
       transform="translate(-17.281971,334.57211)" />
    <path
       style="fill:#000000;fill-opacity:1;stroke:#000000;stroke-width:1px;stroke-linecap:round;stroke-linejoin:round;stroke-opacity:1"
       d="m 510.19879,367.75545 6.09527,-14.62866 -7.16804,-17.11552 38.96099,23.01575 -37.88822,8.72843 z"
       id="path3631"
       transform="translate(-17.281971,334.57211)" />
    <path
       style="fill:none;stroke:#000000;stroke-width:1px;stroke-linecap:butt;stroke-linejoin:miter;stroke-opacity:1"
       d="M 555.26712,381.76339 325.21607,336.24969"
       id="path3697"
       transform="translate(-17.281971,334.57211)" />
    <path
       style="fill:#000000;fill-opacity:1;stroke:#000000;stroke-width:1px;stroke-linecap:round;stroke-linejoin:round;stroke-opacity:1"
       d="m 338.36083,323.08929 -32.81695,8.72843 34.62115,21.74793 -6.14403,-15.65266 4.33983,-14.8237 z"
       id="path3705"
       transform="translate(-17.281971,334.57211)" />
    <path
       style="fill:none;stroke:#000000;stroke-width:1px;stroke-linecap:butt;stroke-linejoin:miter;stroke-opacity:1"
       d="m 249.3599,183.70984 c -116.74801,41.53792 -92.37892,291.98716 34.20423,240.533 113.6966,-46.21597 86.43228,-283.4544 -34.20423,-240.533 z"
       id="path3709"
       transform="translate(-17.281971,334.57211)"
       sodipodi:nodetypes="css" />
    <path
       style="fill:#afafaf;fill-opacity:1;stroke:#000000;stroke-width:1px;stroke-linecap:butt;stroke-linejoin:bevel;stroke-opacity:1"
       d="m 958.56361,600.84433 c -62.36371,-4.16142 -130.4702,289.15112 -71.26117,331.8627 l 155.87196,40.04915 c -40.7966,-36.48057 31.4944,-350.46801 73.7055,-350.85314 l -158.31629,-21.05875 0,4e-5 z"
       id="path2840"
       sodipodi:nodetypes="cccccc" />
    <path
       id="path3715"
       transform="translate(-17.281971,334.57211)"
       style="fill:#4b4b4b;fill-opacity:1;fill-rule:evenodd;stroke:#000000;stroke-width:1px;stroke-linecap:butt;stroke-linejoin:miter;stroke-opacity:1"
       d="m 1132.9082,294.26486 c -39.8163,-3.85546 -115.4354,322.56121 -66.5605,336.94932 42.8294,12.60837 119.8798,-331.78634 66.5605,-336.94932 z m -1.5703,14.89339 c -38.7012,13.40467 -93.3754,315.30661 -61.6418,309.97636 41.1834,-6.91752 98.6743,-322.80305 61.6418,-309.97636 z"
       sodipodi:nodetypes="csscsc" />
    <path
       style="fill:none;stroke:#000000;stroke-width:2;stroke-linecap:butt;stroke-linejoin:miter;stroke-miterlimit:4;stroke-opacity:1;stroke-dasharray:none"
       d="m 1102.0968,464.12208 c 0,0 55.1901,7.35238 72.7434,19.35582 74.9692,51.26618 -72.3967,102.21219 -8.8106,190.86198"
       id="path3711"
       transform="translate(-17.281971,334.57211)"
       sodipodi:nodetypes="csc" />
    <path
       style="fill:none;stroke:#000000;stroke-width:1px;stroke-linecap:butt;stroke-linejoin:miter;stroke-opacity:1"
       d="m 1105.1018,448.58638 c -6.4391,0.28151 -9.6624,32.57551 -7.378,31.56305 6.2707,-2.77923 9.4568,-31.65393 7.378,-31.56305 z"
       id="path3732"
       transform="translate(-17.281971,334.57211)"
       sodipodi:nodetypes="css" />
    <path
       style="fill:#afafaf;fill-opacity:1;stroke:#000000;stroke-width:1px;stroke-linecap:butt;stroke-linejoin:miter;stroke-opacity:1"
       d="m 533.53518,678.69317 c -1.15585,0 -1.54425,-0.26334 -2.23456,1.11728 -0.16655,0.33311 0.26335,0.85393 0,1.11728 -0.26334,0.26334 -0.74485,0 -1.11727,0 0,0.37242 0.16655,0.78417 0,1.11727 -0.23554,0.47109 -0.88174,0.64619 -1.11728,1.11728 -0.16655,0.33311 0.26335,0.85393 0,1.11727 -0.26334,0.26335 -0.85393,-0.26334 -1.11727,0 -0.26335,0.26335 0.16655,0.78417 0,1.11728 -0.23555,0.47109 -0.88174,0.64619 -1.11728,1.11728 -0.0476,0.0952 -0.0476,4.37386 0,4.4691 2.32492,4.64984 -0.0771,-1.19441 2.23455,1.11728 0.26335,0.26334 -0.26334,0.85393 0,1.11727 0.52669,0.52669 1.70787,-0.52668 2.23455,0 0.26335,0.26335 0,0.74485 0,1.11728 0,2.9794 0,5.95881 0,8.93821 0,0.37242 0,0.74485 0,1.11728 0,0.37242 0.26335,0.85393 0,1.11727 -0.26334,0.26335 -0.85393,-0.26334 -1.11727,0 -0.52669,0.52669 0.52669,1.70787 0,2.23455 -0.26335,0.26335 -0.85393,-0.26334 -1.11728,0 -0.26334,0.26335 0,0.74486 0,1.11728 0,0.37243 0,0.74485 0,1.11728 0,1.86212 0,3.72425 0,5.58638 0,0.37242 -0.26334,0.85393 0,1.11727 0.26335,0.26335 0.85393,-0.26334 1.11728,0 0.26334,0.26335 -0.26335,0.85394 0,1.11728 0.37245,0.37245 1.8621,-0.37245 2.23455,0 0.26335,0.26334 -0.26334,0.85393 0,1.11728 0.0506,0.0506 5.05959,0 5.58638,0 0.41031,0 4.42415,-0.045 4.46911,0 0.26334,0.26334 -0.26335,0.85393 0,1.11727 0.52669,0.52669 1.56833,-0.33311 2.23455,0 0.47108,0.23554 0.64619,0.88174 1.11727,1.11728 0.33311,0.16655 0.85394,-0.26335 1.11728,0 0.52669,0.52669 -0.52669,1.70786 0,2.23455 0.26335,0.26335 0.74485,0 1.11728,0 2.23455,0 4.4691,0 6.70365,0 0.37243,0 0.74485,0 1.11728,0 0.37243,0 0.78417,0.16655 1.11728,0 0.47108,-0.23554 0.64619,-0.88173 1.11727,-1.11728 0.44299,-0.22149 3.12342,0.22842 3.35183,0 0.52669,-0.52668 -0.33311,-1.56833 0,-2.23455 0.23554,-0.47108 0.88173,-0.64619 1.11728,-1.11727 0.16655,-0.33311 -0.26335,-0.85394 0,-1.11728 0.26334,-0.26334 0.85393,0.26334 1.11727,0 0.22842,-0.22841 -0.22149,-2.90884 0,-3.35183 0.23555,-0.47108 0.88174,-0.64619 1.11728,-1.11727 0.33311,-0.66622 -0.33311,-1.56834 0,-2.23456 0.23554,-0.47108 0.88173,-0.64619 1.11728,-1.11727 0.3331,-0.66622 -0.52669,-1.70787 0,-2.23456 0.26334,-0.26334 1.11727,-0.37242 1.11727,0 0,0.37243 -1.11727,0.37243 -1.11727,0 0,-0.52668 0.88173,-0.64619 1.11727,-1.11727 0.14444,-0.28887 0,-5.91173 0,-6.70366 0,-0.37242 -0.26334,-0.85393 0,-1.11728 0.26335,-0.26334 0.85393,0.26335 1.11728,0 0.26334,-0.26334 -0.26335,-0.85393 0,-1.11727 0.26334,-0.26335 1.11727,-0.37243 1.11727,0 0,0.37242 -1.11727,0.37242 -1.11727,0 0,-0.52669 0.64619,-0.88173 1.11727,-1.11728 0.33311,-0.16655 0.85394,0.26335 1.11728,0 0.26334,-0.26334 0,-0.74485 0,-1.11727 0,-0.37243 0,-0.74485 0,-1.11728 0,-2.9794 0,-5.95881 0,-8.93821 0,-0.37242 0,-0.74485 0,-1.11728 0,-0.37242 0.26334,-0.85393 0,-1.11727 -0.26334,-0.26335 -0.85393,0.26334 -1.11728,0 -0.37208,-0.37209 0.37209,-1.86247 0,-2.23455 -0.26334,-0.26335 -0.85393,0.26334 -1.11727,0 -0.26335,-0.26335 0.26334,-0.85394 0,-1.11728 -2.31169,-2.31168 0.0904,3.53256 -2.23455,-1.11728 -0.16656,-0.3331 0.26334,-0.85393 0,-1.11727 -0.37282,-0.37281 -1.86175,0.37281 -2.23456,0 -0.26334,-0.26335 0.26335,-0.85393 0,-1.11728 -0.52669,-0.52669 -1.70786,0.52669 -2.23455,0 -0.26334,-0.26334 0.26335,-0.85393 0,-1.11727 -0.26334,-0.26335 -0.85393,0.26334 -1.11728,0 -0.26334,-0.26335 0.26335,-0.85394 0,-1.11728 -0.52668,-0.52669 -1.70786,0.52669 -2.23455,0 -0.26334,-0.26335 0.26335,-0.85393 0,-1.11728 -0.52669,-0.52669 -1.56833,0.33311 -2.23455,0 -0.47108,-0.23554 -1.4897,-0.74485 -1.11728,-1.11727 0.37243,-0.37243 1.64397,1.11727 1.11728,1.11727 -0.83277,0 -1.44452,-0.85393 -2.23455,-1.11727 -0.63037,-0.21012 -2.61766,0 -3.35183,0 -0.37243,0 -1.4897,0 -1.11728,0 0.74485,0 2.97941,0 2.23456,0 -1.90535,0 -2.84051,0 -4.46911,0 -0.37242,0 -1.11728,0.37242 -1.11728,0 0,-0.37243 1.48971,0 1.11728,0 -0.74485,0 -1.4897,0 -2.23455,0 -0.37243,0 -0.78417,-0.16656 -1.11728,0 -1.94233,0.97116 -3.72425,2.23455 -10.05548,6.70365 z"
       id="path3738" />
    <path
       style="fill:none;stroke:#000000;stroke-width:1px;stroke-linecap:butt;stroke-linejoin:miter;stroke-opacity:1"
       d="m 568.50747,362.73039 293.94101,56.4608"
       id="path3633"
       transform="translate(-17.281971,334.57211)"
       sodipodi:nodetypes="cc" />
    <path
       style="fill:#000000;fill-opacity:1;stroke:#000000;stroke-width:1px;stroke-linecap:round;stroke-linejoin:round;stroke-opacity:1"
       d="m 608.55212,353.95575 7.26557,17.74944 -8.24081,15.79895 44.66617,-8.67967 -43.69093,-24.86872 z"
       id="path3695"
       transform="translate(-17.281971,334.57211)" />
    <text
       xml:space="preserve"
       style="font-size:36px;font-style:normal;font-weight:normal;fill:#000000;fill-opacity:1;stroke:none;font-family:Calibri;-inkscape-font-specification:Calibri"
       x="512.30695"
       y="656.34766"
       id="text3740"><tspan
         sodipodi:role="line"
         id="tspan3742"
         x="512.30695"
         y="656.34766">Defecto</tspan></text>
    <text
       xml:space="preserve"
       style="font-size:36px;font-style:normal;font-weight:normal;fill:#000000;fill-opacity:1;stroke:none;font-family:Calibri;-inkscape-font-specification:Calibri"
       x="681.01563"
       y="396.02231"
       id="text3744"><tspan
         sodipodi:role="line"
         id="tspan3746"
         x="681.01563"
         y="396.02231">Acoplamiento</tspan></text>
    <path
       style="fill:none;stroke:#000000;stroke-width:1;stroke-linecap:butt;stroke-linejoin:miter;stroke-miterlimit:4;stroke-opacity:1;stroke-dasharray:6, 6;stroke-dashoffset:0"
       d="M 292.72636,128.48676 778.74149,78.209332 942.98108,198.87516"
       id="path3748"
       transform="translate(-17.281971,334.57211)" />
    <text
       xml:space="preserve"
       style="font-size:36px;font-style:italic;font-weight:normal;fill:#000000;fill-opacity:1;stroke:none;font-family:Calibri;-inkscape-font-specification:Calibri Italic"
       x="546.9425"
       y="781.48254"
       id="text3750"><tspan
         sodipodi:role="line"
         id="tspan3752"
         x="546.9425"
         y="781.48254">Forward Scattering</tspan></text>
    <text
       xml:space="preserve"
       style="font-size:36px;font-style:italic;font-weight:normal;fill:#000000;fill-opacity:1;stroke:none;font-family:Calibri;-inkscape-font-specification:Calibri Italic"
       x="199.46962"
       y="735.67426"
       id="text3754"><tspan
         sodipodi:role="line"
         id="tspan3756"
         x="199.46962"
         y="735.67426">Backward Scattering</tspan></text>
  </g>
</svg>
